{
.appVersion = "1230";
DisplayStrings = (
"/grave.cap/acute.cap/circumflex.cap/tilde.cap/macron.cap/breve.cap",
"6"
);
classes = (
{
automatic = 1;

glyphs = (
{
glyphname = .notdef;
layers = (
{
layerId = UUID0;
paths = (
{
closed = 1;
nodes = (
"55 0 LINE",
"455 0 LINE",
"455 700 LINE",
"55 700 LINE"
);
},
{
closed = 1;
nodes = (
"395 640 LINE",
"395 60 LINE",
"115 60 LINE",
"115 640 LINE"
);
}
);
width = 500;
},
{
layerId = "D666A065-31E2-40D8-BE19-B3556ED1E29D";
paths = (
{
closed = 1;
nodes = (
"55 0 LINE",
"455 0 LINE",
"455 700 LINE",
"55 700 LINE"
);
},
{
closed = 1;
nodes = (
"395 640 LINE",
"395 60 LINE",
"115 60 LINE",
"115 640 LINE"
);
}
);
width = 500;
},
{
layerId = "703BE3CC-3FB5-4948-8633-0DF44FA889B7";
paths = (
{
closed = 1;
nodes = (
"55 0 LINE",
"455 0 LINE",
"455 700 LINE",
"55 700 LINE"
);
},
{
closed = 1;
nodes = (
"395 640 LINE",
"395 60 LINE",
"115 60 LINE",
"115 640 LINE"
);
}
);
width = 500;
},
{
layerId = "51A3A961-7A3D-4D9D-A8A6-EF0E27CBF030";
paths = (
{
closed = 1;
nodes = (
"55 0 LINE",
"455 0 LINE",
"455 700 LINE",
"55 700 LINE"
);
},
{
closed = 1;
nodes = (
"395 640 LINE",
"395 60 LINE",
"115 60 LINE",
"115 640 LINE"
);
}
);
width = 500;
},
{
layerId = "183D4CB5-BDC3-4BCB-9164-6C94CC175920";
paths = (
{
closed = 1;
nodes = (
"55 0 LINE",
"455 0 LINE",
"455 700 LINE",
"55 700 LINE"
);
},
{
closed = 1;
nodes = (
"395 640 LINE",
"395 60 LINE",
"115 60 LINE",
"115 640 LINE"
);
}
);
width = 500;
}
);
},
{
color = 4;
glyphname = A;
layers = (
{
anchors = (
{
name = bottom;
position = "{331, -30}";
},
{
name = top;
position = "{373, 730}";
}
);
background = {
paths = (
{
closed = 1;
nodes = (
"257 0 LINE",
"257 47 LINE",
"200 55 LINE",
"171 61 OFFCURVE",
"165 75 OFFCURVE",
"177 109 CURVE SMOOTH",
"219 231 LINE",
"487 231 LINE",
"530 105 LINE",
"543 70 OFFCURVE",
"538 59 OFFCURVE",
"511 55 CURVE SMOOTH",
"453 48 LINE",
"453 0 LINE",
"720 0 LINE",
"720 50 LINE",
"679 58 LINE",
"651 65 OFFCURVE",
"648 74 OFFCURVE",
"635 109 CURVE SMOOTH",
"426 700 LINE",
"320 700 LINE",
"109 110 LINE",
"94 71 OFFCURVE",
"88 61 OFFCURVE",
"63 56 CURVE SMOOTH",
"15 48 LINE",
"15 0 LINE"
);
},
{
closed = 1;
nodes = (
"353 617 LINE",
"357 617 LINE",
"468 288 LINE",
"239 288 LINE"
);
}
);
};
hints = (
{
horizontal = 1;
place = "{231, 57}";
type = Stem;
},
{
horizontal = 1;
place = "{0, 21}";
target = up;
type = BottomGhost;
},
{
horizontal = 1;
place = "{706, -20}";
target = down;
type = TopGhost;
}
);
layerId = UUID0;
paths = (
{
closed = 1;
nodes = (
"322 695 LINE",
"93 58 LINE",
"14 46 LINE",
"8 0 LINE",
"242 0 LINE",
"248 46 LINE",
"157 58 LINE",
"217 231 LINE",
"457 231 LINE",
"503 58 LINE",
"422 46 LINE",
"416 0 LINE",
"682 0 LINE",
"688 46 LINE",
"603 57 LINE",
"421 706 LINE"
);
},
{
closed = 1;
nodes = (
"352 619 LINE",
"355 619 LINE",
"442 288 LINE",
"237 288 LINE"
);
}
);
width = 691;
},
{
anchors = (
{
name = bottom;
position = "{369, -30}";
},
{
name = top;
position = "{410, 730}";
}
);
background = {
paths = (
{
closed = 1;
nodes = (
"260 0 LINE",
"260 47 LINE",
"203 55 LINE",
"174 61 OFFCURVE",
"168 75 OFFCURVE",
"180 109 CURVE SMOOTH",
"222 231 LINE",
"490 231 LINE",
"533 105 LINE",
"546 70 OFFCURVE",
"541 59 OFFCURVE",
"514 55 CURVE SMOOTH",
"456 48 LINE",
"456 0 LINE",
"723 0 LINE",
"723 50 LINE",
"682 58 LINE",
"654 65 OFFCURVE",
"651 74 OFFCURVE",
"638 109 CURVE SMOOTH",
"429 700 LINE",
"323 700 LINE",
"112 110 LINE",
"97 71 OFFCURVE",
"91 61 OFFCURVE",
"66 56 CURVE SMOOTH",
"18 48 LINE",
"18 0 LINE"
);
},
{
closed = 1;
nodes = (
"356 617 LINE",
"360 617 LINE",
"471 288 LINE",
"242 288 LINE"
);
}
);
};
hints = (
{
horizontal = 1;
place = "{231, 57}";
type = Stem;
},
{
horizontal = 1;
place = "{0, 21}";
target = up;
type = BottomGhost;
},
{
horizontal = 1;
place = "{706, -20}";
target = down;
type = TopGhost;
}
);
layerId = "D666A065-31E2-40D8-BE19-B3556ED1E29D";
paths = (
{
closed = 1;
nodes = (
"356 695 LINE",
"112 58 LINE",
"25 46 LINE",
"19 0 LINE",
"271 0 LINE",
"277 46 LINE",
"179 58 LINE",
"243 231 LINE",
"504 231 LINE",
"555 58 LINE",
"467 46 LINE",
"461 0 LINE",
"745 0 LINE",
"752 46 LINE",
"658 57 LINE",
"459 706 LINE"
);
},
{
closed = 1;
nodes = (
"388 619 LINE",
"391 619 LINE",
"488 288 LINE",
"264 288 LINE"
);
}
);
width = 758;
},
{
anchors = (
{
name = bottom;
position = "{331, -30}";
},
{
name = top;
position = "{373, 730}";
}
);
background = {
paths = (
{
closed = 1;
nodes = (
"340 725 LINE",
"94 30 LINE",
"15 19 LINE",
"12 0 LINE",
"211 0 LINE",
"214 19 LINE",
"122 30 LINE",
"502 31 LINE",
"419 19 LINE",
"416 0 LINE",
"682 0 LINE",
"685 19 LINE",
"602 30 LINE",
"422 736 LINE"
);
},
{
closed = 1;
nodes = (
"345 679 LINE",
"348 679 LINE",
"502 31 LINE",
"122 30 LINE"
);
}
);
};
hints = (
{
horizontal = 1;
place = "{231, 57}";
type = Stem;
},
{
horizontal = 1;
place = "{0, 21}";
target = up;
type = BottomGhost;
},
{
horizontal = 1;
place = "{706, -20}";
target = down;
type = TopGhost;
}
);
layerId = "703BE3CC-3FB5-4948-8633-0DF44FA889B7";
paths = (
{
closed = 1;
nodes = (
"340 725 LINE",
"94 30 LINE",
"15 19 LINE",
"12 0 LINE",
"211 0 LINE",
"214 19 LINE",
"122 30 LINE",
"201 263 LINE",
"446 263 LINE",
"502 31 LINE",
"419 19 LINE",
"416 0 LINE",
"682 0 LINE",
"685 19 LINE",
"602 30 LINE",
"422 736 LINE"
);
},
{
closed = 1;
nodes = (
"345 679 LINE",
"348 679 LINE",
"441 285 LINE",
"209 285 LINE"
);
}
);
width = 691;
},
{
anchors = (
{
name = bottom;
position = "{340, -30}";
},
{
name = top;
position = "{371, 730}";
}
);
background = {
anchors = (
{
name = bottom;
position = "{329, -30}";
},
{
name = top;
position = "{371, 730}";
}
);
hints = (
{
horizontal = 1;
place = "{231, 57}";
type = Stem;
},
{
horizontal = 1;
place = "{0, 21}";
target = up;
type = BottomGhost;
},
{
horizontal = 1;
place = "{706, -20}";
target = down;
type = TopGhost;
}
);
paths = (
{
closed = 1;
nodes = (
"320 695 LINE",
"91 58 LINE",
"12 46 LINE",
"6 0 LINE",
"240 0 LINE",
"246 46 LINE",
"155 58 LINE",
"215 231 LINE",
"455 231 LINE",
"501 58 LINE",
"420 46 LINE",
"414 0 LINE",
"680 0 LINE",
"686 46 LINE",
"601 57 LINE",
"419 706 LINE"
);
},
{
closed = 1;
nodes = (
"350 619 LINE",
"353 619 LINE",
"440 288 LINE",
"235 288 LINE"
);
}
);
};
hints = (
{
horizontal = 1;
place = "{231, 57}";
type = Stem;
},
{
horizontal = 1;
place = "{0, 21}";
target = up;
type = BottomGhost;
},
{
horizontal = 1;
place = "{706, -20}";
target = down;
type = TopGhost;
}
);
layerId = "51A3A961-7A3D-4D9D-A8A6-EF0E27CBF030";
paths = (
{
closed = 1;
nodes = (
"332 699 LINE",
"96 44 LINE",
"17 32 LINE",
"12 0 LINE",
"229 0 LINE",
"233 32 LINE",
"141 44 LINE",
"211 239 LINE",
"465 239 LINE",
"520 44 LINE",
"435 32 LINE",
"430 0 LINE",
"652 0 LINE",
"656 32 LINE",
"572 44 LINE",
"378 701 LINE"
);
},
{
closed = 1;
nodes = (
"350 636 LINE",
"351 636 LINE",
"453 278 LINE",
"225 278 LINE"
);
}
);
width = 668;
},
{
anchors = (
{
name = bottom;
position = "{311, -30}";
},
{
name = top;
position = "{385, 730}";
}
);
background = {
anchors = (
{
name = bottom;
position = "{331, -30}";
},
{
name = top;
position = "{373, 730}";
}
);
hints = (
{
horizontal = 1;
place = "{231, 57}";
type = Stem;
},
{
horizontal = 1;
place = "{0, 21}";
target = up;
type = BottomGhost;
},
{
horizontal = 1;
place = "{706, -20}";
target = down;
type = TopGhost;
}
);
paths = (
{
closed = 1;
nodes = (
"322 695 LINE",
"93 58 LINE",
"14 46 LINE",
"8 0 LINE",
"242 0 LINE",
"248 46 LINE",
"157 58 LINE",
"217 231 LINE",
"457 231 LINE",
"503 58 LINE",
"422 46 LINE",
"416 0 LINE",
"682 0 LINE",
"688 46 LINE",
"603 57 LINE",
"421 706 LINE"
);
},
{
closed = 1;
nodes = (
"352 619 LINE",
"355 619 LINE",
"442 288 LINE",
"237 288 LINE"
);
}
);
};
hints = (
{
horizontal = 1;
place = "{231, 57}";
type = Stem;
},
{
horizontal = 1;
place = "{0, 21}";
target = up;
type = BottomGhost;
},
{
horizontal = 1;
place = "{706, -20}";
target = down;
type = TopGhost;
}
);
layerId = "183D4CB5-BDC3-4BCB-9164-6C94CC175920";
paths = (
{
closed = 1;
nodes = (
"296 693 LINE",
"72 102 LINE",
"8 93 LINE",
"-2 0 LINE",
"274 0 LINE",
"281 90 LINE",
"199 102 LINE",
"236 204 LINE",
"437 204 LINE",
"461 102 LINE",
"388 90 LINE",
"379 0 LINE",
"761 0 LINE",
"767 94 LINE",
"699 103 LINE",
"523 714 LINE"
);
},
{
closed = 1;
nodes = (
"357 579 LINE",
"361 579 LINE",
"414 304 LINE",
"264 304 LINE"
);
}
);
width = 771;
}
);
leftKerningGroup = A;
leftMetricsKey = "=A";
rightKerningGroup = A;
rightMetricsKey = "=A";
unicode = 0041;
},
{
color = 4;
glyphname = B;
layers = (
{
background = {
paths = (
{
closed = 1;
nodes = (
"323 0 LINE SMOOTH",
"518 0 OFFCURVE",
"616 77 OFFCURVE",
"616 199 CURVE SMOOTH",
"616 305 OFFCURVE",
"546 360 OFFCURVE",
"431 370 CURVE",
"431 375 LINE",
"505 392 OFFCURVE",
"576 450 OFFCURVE",
"576 534 CURVE SMOOTH",
"576 661 OFFCURVE",
"472 700 OFFCURVE",
"317 700 CURVE SMOOTH",
"62 700 LINE",
"62 652 LINE",
"118 643 LINE SMOOTH",
"148 638 OFFCURVE",
"151 627 OFFCURVE",
"151 596 CURVE SMOOTH",
"151 108 LINE SMOOTH",
"151 78 OFFCURVE",
"149 62 OFFCURVE",
"120 57 CURVE SMOOTH",
"62 48 LINE",
"62 0 LINE"
);
},
{
closed = 1;
nodes = (
"300 55 OFFCURVE",
"268 56 OFFCURVE",
"250 60 CURVE",
"250 333 LINE",
"273 336 OFFCURVE",
"295 337 OFFCURVE",
"325 337 CURVE SMOOTH",
"425 337 OFFCURVE",
"509 306 OFFCURVE",
"509 202 CURVE SMOOTH",
"509 104 OFFCURVE",
"441 55 OFFCURVE",
"321 55 CURVE SMOOTH"
);
},
{
closed = 1;
nodes = (
"279 389 OFFCURVE",
"263 389 OFFCURVE",
"250 391 CURVE",
"250 646 LINE",
"308 646 LINE SMOOTH",
"407 646 OFFCURVE",
"469 625 OFFCURVE",
"469 530 CURVE SMOOTH",
"469 437 OFFCURVE",
"405 389 OFFCURVE",
"305 389 CURVE SMOOTH"
);
}
);
};
hints = (
{
place = "{156, 87}";
type = Stem;
},
{
place = "{465, 97}";
type = Stem;
},
{
place = "{493, 69}";
type = Stem;
},
{
place = "{493, 97}";
type = Stem;
},
{
horizontal = 1;
place = "{0, 54}";
type = Stem;
},
{
horizontal = 1;
place = "{646, 54}";
type = Stem;
}
);
layerId = UUID0;
paths = (
{
closed = 1;
nodes = (
"562 651 OFFCURVE",
"482 700 OFFCURVE",
"315 700 CURVE SMOOTH",
"88 700 LINE",
"82 654 LINE",
"169 637 LINE",
"144 60 LINE",
"55 44 LINE",
"50 0 LINE",
"284 0 LINE SMOOTH",
"476 0 OFFCURVE",
"590 76 OFFCURVE",
"590 205 CURVE SMOOTH",
"590 297 OFFCURVE",
"529 353 OFFCURVE",
"413 369 CURVE",
"413 374 LINE",
"505 408 OFFCURVE",
"562 475 OFFCURVE",
"562 549 CURVE SMOOTH"
);
},
{
closed = 1;
nodes = (
"288 328 LINE",
"312 333 OFFCURVE",
"325 334 OFFCURVE",
"348 334 CURVE SMOOTH",
"443 334 OFFCURVE",
"493 291 OFFCURVE",
"493 208 CURVE SMOOTH",
"493 106 OFFCURVE",
"426 54 OFFCURVE",
"296 54 CURVE SMOOTH",
"232 54 LINE",
"255 646 LINE",
"306 646 LINE SMOOTH",
"417 646 OFFCURVE",
"465 613 OFFCURVE",
"465 537 CURVE SMOOTH",
"465 450 OFFCURVE",
"406 396 OFFCURVE",
"290 378 CURVE"
);
}
);
width = 615;
},
{
background = {
paths = (
{
closed = 1;
nodes = (
"610 651 OFFCURVE",
"523 700 OFFCURVE",
"343 700 CURVE SMOOTH",
"102 700 LINE",
"95 654 LINE",
"189 637 LINE",
"166 59 LINE",
"76 46 LINE",
"71 0 LINE",
"314 0 LINE SMOOTH",
"519 0 OFFCURVE",
"642 76 OFFCURVE",
"642 204 CURVE SMOOTH",
"642 297 OFFCURVE",
"575 353 OFFCURVE",
"450 369 CURVE",
"450 374 LINE",
"549 408 OFFCURVE",
"610 475 OFFCURVE",
"610 548 CURVE SMOOTH"
);
},
{
closed = 1;
nodes = (
"315 328 LINE",
"342 333 OFFCURVE",
"357 334 OFFCURVE",
"381 334 CURVE SMOOTH",
"486 334 OFFCURVE",
"541 290 OFFCURVE",
"541 207 CURVE SMOOTH",
"541 106 OFFCURVE",
"469 54 OFFCURVE",
"328 54 CURVE SMOOTH",
"256 54 LINE",
"277 646 LINE",
"335 646 LINE SMOOTH",
"445 646 OFFCURVE",
"509 620 OFFCURVE",
"509 536 CURVE SMOOTH",
"509 450 OFFCURVE",
"444 396 OFFCURVE",
"317 378 CURVE"
);
}
);
};
hints = (
{
place = "{156, 87}";
type = Stem;
},
{
place = "{465, 97}";
type = Stem;
},
{
place = "{493, 69}";
type = Stem;
},
{
place = "{493, 97}";
type = Stem;
},
{
horizontal = 1;
place = "{0, 54}";
type = Stem;
},
{
horizontal = 1;
place = "{646, 54}";
type = Stem;
}
);
layerId = "D666A065-31E2-40D8-BE19-B3556ED1E29D";
paths = (
{
closed = 1;
nodes = (
"609 651 OFFCURVE",
"523 700 OFFCURVE",
"343 700 CURVE SMOOTH",
"102 700 LINE",
"95 654 LINE",
"189 637 LINE",
"166 59 LINE",
"76 46 LINE",
"71 0 LINE",
"314 0 LINE SMOOTH",
"519 0 OFFCURVE",
"641 76 OFFCURVE",
"641 204 CURVE SMOOTH",
"641 297 OFFCURVE",
"576 356 OFFCURVE",
"442 369 CURVE",
"442 378 LINE",
"550 407 OFFCURVE",
"609 475 OFFCURVE",
"609 548 CURVE SMOOTH"
);
},
{
closed = 1;
nodes = (
"315 324 LINE",
"337 327 OFFCURVE",
"357 329 OFFCURVE",
"381 329 CURVE SMOOTH",
"486 329 OFFCURVE",
"541 291 OFFCURVE",
"541 207 CURVE SMOOTH",
"541 106 OFFCURVE",
"469 57 OFFCURVE",
"328 57 CURVE SMOOTH",
"256 57 LINE",
"277 643 LINE",
"335 643 LINE SMOOTH",
"445 643 OFFCURVE",
"509 620 OFFCURVE",
"509 536 CURVE SMOOTH",
"509 450 OFFCURVE",
"444 404 OFFCURVE",
"317 386 CURVE"
);
}
);
width = 676;
},
{
background = {
paths = (
{
closed = 1;
nodes = (
"552 651 OFFCURVE",
"475 700 OFFCURVE",
"316 700 CURVE SMOOTH",
"90 700 LINE",
"88 683 LINE",
"170 668 LINE",
"144 30 LINE",
"60 18 LINE",
"58 0 LINE",
"285 0 LINE SMOOTH",
"469 0 OFFCURVE",
"580 76 OFFCURVE",
"580 205 CURVE SMOOTH",
"580 297 OFFCURVE",
"522 356 OFFCURVE",
"401 370 CURVE",
"401 372 LINE",
"498 403 OFFCURVE",
"552 475 OFFCURVE",
"552 549 CURVE SMOOTH"
);
},
{
closed = 1;
nodes = (
"289 342 LINE",
"313 347 OFFCURVE",
"326 348 OFFCURVE",
"349 348 CURVE SMOOTH",
"436 348 OFFCURVE",
"483 305 OFFCURVE",
"483 208 CURVE SMOOTH",
"483 86 OFFCURVE",
"416 23 OFFCURVE",
"294 23 CURVE SMOOTH",
"230 23 LINE",
"257 677 LINE",
"308 677 LINE SMOOTH",
"411 677 OFFCURVE",
"455 633 OFFCURVE",
"455 537 CURVE SMOOTH",
"455 436 OFFCURVE",
"405 382 OFFCURVE",
"291 365 CURVE"
);
}
);
};
hints = (
{
place = "{156, 87}";
type = Stem;
},
{
place = "{465, 97}";
type = Stem;
},
{
place = "{493, 69}";
type = Stem;
},
{
place = "{493, 97}";
type = Stem;
},
{
horizontal = 1;
place = "{0, 54}";
type = Stem;
},
{
horizontal = 1;
place = "{646, 54}";
type = Stem;
}
);
layerId = "703BE3CC-3FB5-4948-8633-0DF44FA889B7";
paths = (
{
closed = 1;
nodes = (
"552 681 OFFCURVE",
"476 730 OFFCURVE",
"317 730 CURVE SMOOTH",
"90 730 LINE",
"88 713 LINE",
"170 698 LINE",
"144 30 LINE",
"60 18 LINE",
"58 0 LINE",
"285 0 LINE SMOOTH",
"469 0 OFFCURVE",
"580 76 OFFCURVE",
"580 215 CURVE SMOOTH",
"580 314 OFFCURVE",
"522 373 OFFCURVE",
"401 387 CURVE",
"401 389 LINE",
"498 420 OFFCURVE",
"552 492 OFFCURVE",
"552 566 CURVE SMOOTH"
);
},
{
closed = 1;
nodes = (
"289 359 LINE",
"313 364 OFFCURVE",
"326 365 OFFCURVE",
"349 365 CURVE SMOOTH",
"436 365 OFFCURVE",
"483 322 OFFCURVE",
"483 218 CURVE SMOOTH",
"483 86 OFFCURVE",
"416 23 OFFCURVE",
"294 23 CURVE SMOOTH",
"230 23 LINE",
"257 707 LINE",
"309 707 LINE SMOOTH",
"412 707 OFFCURVE",
"455 663 OFFCURVE",
"455 554 CURVE SMOOTH",
"455 453 OFFCURVE",
"405 399 OFFCURVE",
"291 382 CURVE"
);
}
);
width = 613;
},
{
background = {
hints = (
{
place = "{156, 87}";
type = Stem;
},
{
place = "{465, 97}";
type = Stem;
},
{
place = "{493, 69}";
type = Stem;
},
{
place = "{493, 97}";
type = Stem;
},
{
horizontal = 1;
place = "{0, 54}";
type = Stem;
},
{
horizontal = 1;
place = "{646, 54}";
type = Stem;
}
);
paths = (
{
closed = 1;
nodes = (
"558 1551 OFFCURVE",
"478 1600 OFFCURVE",
"311 1600 CURVE SMOOTH",
"84 1600 LINE",
"78 1554 LINE",
"165 1537 LINE",
"140 960 LINE",
"51 944 LINE",
"46 900 LINE",
"280 900 LINE SMOOTH",
"472 900 OFFCURVE",
"586 976 OFFCURVE",
"586 1105 CURVE SMOOTH",
"586 1197 OFFCURVE",
"525 1253 OFFCURVE",
"409 1269 CURVE",
"409 1274 LINE",
"501 1308 OFFCURVE",
"558 1375 OFFCURVE",
"558 1449 CURVE SMOOTH"
);
},
{
closed = 1;
nodes = (
"284 1228 LINE",
"308 1233 OFFCURVE",
"321 1234 OFFCURVE",
"344 1234 CURVE SMOOTH",
"439 1234 OFFCURVE",
"489 1191 OFFCURVE",
"489 1108 CURVE SMOOTH",
"489 1006 OFFCURVE",
"422 954 OFFCURVE",
"292 954 CURVE SMOOTH",
"228 954 LINE",
"251 1546 LINE",
"302 1546 LINE SMOOTH",
"413 1546 OFFCURVE",
"461 1513 OFFCURVE",
"461 1437 CURVE SMOOTH",
"461 1350 OFFCURVE",
"402 1296 OFFCURVE",
"286 1278 CURVE"
);
},
{
closed = 1;
nodes = (
"144 46 LINE",
"59 32 LINE",
"55 0 LINE",
"285 0 LINE",
"288 33 LINE",
"191 45 LINE",
"215 655 LINE",
"302 668 LINE",
"305 700 LINE",
"84 700 LINE",
"80 668 LINE",
"168 655 LINE"
);
}
);
};
hints = (
{
place = "{156, 87}";
type = Stem;
},
{
place = "{465, 97}";
type = Stem;
},
{
place = "{493, 69}";
type = Stem;
},
{
place = "{493, 97}";
type = Stem;
},
{
horizontal = 1;
place = "{0, 54}";
type = Stem;
},
{
horizontal = 1;
place = "{646, 54}";
type = Stem;
}
);
layerId = "51A3A961-7A3D-4D9D-A8A6-EF0E27CBF030";
paths = (
{
closed = 1;
nodes = (
"533 651 OFFCURVE",
"465 700 OFFCURVE",
"288 700 CURVE SMOOTH",
"85 700 LINE",
"81 668 LINE",
"168 655 LINE",
"144 46 LINE",
"60 32 LINE",
"56 0 LINE",
"285 0 LINE SMOOTH",
"461 0 OFFCURVE",
"561 71 OFFCURVE",
"561 203 CURVE SMOOTH",
"561 303 OFFCURVE",
"486 362 OFFCURVE",
"372 369 CURVE",
"372 374 LINE",
"463 401 OFFCURVE",
"533 460 OFFCURVE",
"533 549 CURVE SMOOTH"
);
},
{
closed = 1;
nodes = (
"258 333 LINE",
"283 338 OFFCURVE",
"307 340 OFFCURVE",
"335 340 CURVE SMOOTH",
"436 340 OFFCURVE",
"509 295 OFFCURVE",
"509 206 CURVE SMOOTH",
"509 88 OFFCURVE",
"427 39 OFFCURVE",
"288 39 CURVE SMOOTH",
"191 39 LINE",
"215 661 LINE",
"292 661 LINE SMOOTH",
"424 661 OFFCURVE",
"481 623 OFFCURVE",
"481 545 CURVE SMOOTH",
"481 445 OFFCURVE",
"389 395 OFFCURVE",
"260 374 CURVE"
);
}
);
width = 594;
},
{
background = {
hints = (
{
place = "{156, 87}";
type = Stem;
},
{
place = "{465, 97}";
type = Stem;
},
{
place = "{493, 69}";
type = Stem;
},
{
place = "{493, 97}";
type = Stem;
},
{
horizontal = 1;
place = "{0, 54}";
type = Stem;
},
{
horizontal = 1;
place = "{646, 54}";
type = Stem;
}
);
paths = (
{
closed = 1;
nodes = (
"548 651 OFFCURVE",
"468 700 OFFCURVE",
"301 700 CURVE SMOOTH",
"74 700 LINE",
"68 654 LINE",
"155 637 LINE",
"130 60 LINE",
"41 44 LINE",
"36 0 LINE",
"270 0 LINE SMOOTH",
"462 0 OFFCURVE",
"576 76 OFFCURVE",
"576 205 CURVE SMOOTH",
"576 297 OFFCURVE",
"515 353 OFFCURVE",
"399 369 CURVE",
"399 374 LINE",
"491 408 OFFCURVE",
"548 475 OFFCURVE",
"548 549 CURVE SMOOTH"
);
},
{
closed = 1;
nodes = (
"274 328 LINE",
"298 333 OFFCURVE",
"311 334 OFFCURVE",
"334 334 CURVE SMOOTH",
"429 334 OFFCURVE",
"479 291 OFFCURVE",
"479 208 CURVE SMOOTH",
"479 106 OFFCURVE",
"412 54 OFFCURVE",
"282 54 CURVE SMOOTH",
"218 54 LINE",
"241 646 LINE",
"292 646 LINE SMOOTH",
"403 646 OFFCURVE",
"451 613 OFFCURVE",
"451 537 CURVE SMOOTH",
"451 450 OFFCURVE",
"392 396 OFFCURVE",
"276 378 CURVE"
);
}
);
};
hints = (
{
place = "{156, 87}";
type = Stem;
},
{
place = "{465, 97}";
type = Stem;
},
{
place = "{493, 69}";
type = Stem;
},
{
place = "{493, 97}";
type = Stem;
},
{
horizontal = 1;
place = "{0, 54}";
type = Stem;
},
{
horizontal = 1;
place = "{646, 54}";
type = Stem;
}
);
layerId = "183D4CB5-BDC3-4BCB-9164-6C94CC175920";
paths = (
{
closed = 1;
nodes = (
"673 651 OFFCURVE",
"585 700 OFFCURVE",
"415 700 CURVE SMOOTH",
"46 700 LINE",
"40 613 LINE",
"124 596 LINE",
"101 105 LINE",
"15 91 LINE",
"8 0 LINE",
"360 0 LINE SMOOTH",
"575 0 OFFCURVE",
"703 73 OFFCURVE",
"703 204 CURVE SMOOTH",
"703 302 OFFCURVE",
"632 356 OFFCURVE",
"509 369 CURVE",
"509 374 LINE",
"618 408 OFFCURVE",
"673 478 OFFCURVE",
"673 549 CURVE SMOOTH"
);
},
{
closed = 1;
nodes = (
"368 308 LINE",
"373 308 OFFCURVE",
"380 309 OFFCURVE",
"397 309 CURVE SMOOTH",
"445 309 OFFCURVE",
"481 276 OFFCURVE",
"481 215 CURVE SMOOTH",
"481 129 OFFCURVE",
"418 104 OFFCURVE",
"340 104 CURVE SMOOTH",
"332 104 LINE",
"355 601 LINE",
"361 601 LINE SMOOTH",
"430 601 OFFCURVE",
"462 578 OFFCURVE",
"462 515 CURVE SMOOTH",
"462 449 OFFCURVE",
"428 412 OFFCURVE",
"370 399 CURVE"
);
}
);
width = 716;
}
);
leftMetricsKey = H;
unicode = 0042;
},
{
color = 4;
glyphname = C;
layers = (
{
anchors = (
{
name = bottom;
position = "{334, -30}";
},
{
name = top;
position = "{373, 730}";
}
);
background = {
paths = (
{
closed = 1;
nodes = (
"522 -14 OFFCURVE",
"608 64 OFFCURVE",
"649 133 CURVE",
"602 167 LINE",
"552 95 OFFCURVE",
"493 55 OFFCURVE",
"399 55 CURVE SMOOTH",
"245 55 OFFCURVE",
"161 190 OFFCURVE",
"161 352 CURVE SMOOTH",
"161 541 OFFCURVE",
"231 651 OFFCURVE",
"374 651 CURVE SMOOTH",
"482 651 OFFCURVE",
"542 595 OFFCURVE",
"582 471 CURVE",
"636 483 LINE",
"597 716 LINE",
"548 716 LINE",
"538 653 LINE",
"510 681 OFFCURVE",
"461 714 OFFCURVE",
"372 714 CURVE SMOOTH",
"190 714 OFFCURVE",
"54 578 OFFCURVE",
"54 351 CURVE SMOOTH",
"54 161 OFFCURVE",
"159 -14 OFFCURVE",
"389 -14 CURVE SMOOTH"
);
}
);
};
hints = (
{
place = "{66, 94}";
type = Stem;
},
{
horizontal = 1;
place = "{-14, 69}";
type = Stem;
},
{
horizontal = 1;
place = "{507, 208}";
type = Stem;
},
{
horizontal = 1;
place = "{652, 63}";
type = Stem;
}
);
layerId = UUID0;
paths = (
{
closed = 1;
nodes = (
"472 537 LINE",
"491 518 OFFCURVE",
"517 507 OFFCURVE",
"544 507 CURVE SMOOTH",
"576 507 OFFCURVE",
"599 531 OFFCURVE",
"599 566 CURVE SMOOTH",
"599 649 OFFCURVE",
"501 715 OFFCURVE",
"379 715 CURVE SMOOTH",
"186 715 OFFCURVE",
"61 562 OFFCURVE",
"61 325 CURVE SMOOTH",
"61 119 OFFCURVE",
"172 -14 OFFCURVE",
"344 -14 CURVE SMOOTH",
"439 -14 OFFCURVE",
"521 34 OFFCURVE",
"589 128 CURVE",
"550 168 LINE",
"484 90 OFFCURVE",
"425 55 OFFCURVE",
"354 55 CURVE SMOOTH",
"233 55 OFFCURVE",
"155 165 OFFCURVE",
"155 334 CURVE SMOOTH",
"155 538 OFFCURVE",
"234 652 OFFCURVE",
"375 652 CURVE SMOOTH",
"461 652 OFFCURVE",
"511 616 OFFCURVE",
"489 571 CURVE SMOOTH"
);
}
);
width = 624;
},
{
anchors = (
{
name = bottom;
position = "{368, -30}";
},
{
name = top;
position = "{406, 730}";
}
);
background = {
paths = (
{
closed = 1;
nodes = (
"521 -14 OFFCURVE",
"607 64 OFFCURVE",
"648 133 CURVE",
"601 167 LINE",
"551 95 OFFCURVE",
"492 55 OFFCURVE",
"398 55 CURVE SMOOTH",
"244 55 OFFCURVE",
"160 190 OFFCURVE",
"160 352 CURVE SMOOTH",
"160 541 OFFCURVE",
"230 651 OFFCURVE",
"373 651 CURVE SMOOTH",
"481 651 OFFCURVE",
"541 595 OFFCURVE",
"581 471 CURVE",
"635 483 LINE",
"596 716 LINE",
"547 716 LINE",
"537 653 LINE",
"509 681 OFFCURVE",
"460 714 OFFCURVE",
"371 714 CURVE SMOOTH",
"189 714 OFFCURVE",
"53 578 OFFCURVE",
"53 351 CURVE SMOOTH",
"53 161 OFFCURVE",
"158 -14 OFFCURVE",
"388 -14 CURVE SMOOTH"
);
}
);
};
hints = (
{
place = "{66, 94}";
type = Stem;
},
{
horizontal = 1;
place = "{-14, 69}";
type = Stem;
},
{
horizontal = 1;
place = "{507, 208}";
type = Stem;
},
{
horizontal = 1;
place = "{652, 63}";
type = Stem;
}
);
layerId = "D666A065-31E2-40D8-BE19-B3556ED1E29D";
paths = (
{
closed = 1;
nodes = (
"513 533 LINE",
"531 513 OFFCURVE",
"558 500 OFFCURVE",
"587 500 CURVE SMOOTH",
"624 500 OFFCURVE",
"650 527 OFFCURVE",
"650 566 CURVE SMOOTH",
"650 648 OFFCURVE",
"548 715 OFFCURVE",
"417 715 CURVE SMOOTH",
"211 715 OFFCURVE",
"72 563 OFFCURVE",
"72 328 CURVE SMOOTH",
"72 119 OFFCURVE",
"192 -14 OFFCURVE",
"375 -14 CURVE SMOOTH",
"487 -14 OFFCURVE",
"578 34 OFFCURVE",
"641 128 CURVE",
"600 168 LINE",
"539 90 OFFCURVE",
"472 55 OFFCURVE",
"385 55 CURVE SMOOTH",
"254 55 OFFCURVE",
"170 165 OFFCURVE",
"170 337 CURVE SMOOTH",
"170 538 OFFCURVE",
"259 652 OFFCURVE",
"412 652 CURVE SMOOTH",
"506 652 OFFCURVE",
"556 615 OFFCURVE",
"533 571 CURVE SMOOTH"
);
}
);
width = 684;
},
{
anchors = (
{
name = bottom;
position = "{330, -30}";
},
{
name = top;
position = "{369, 730}";
}
);
background = {
paths = (
{
closed = 1;
nodes = (
"472 567 LINE",
"491 548 OFFCURVE",
"517 537 OFFCURVE",
"544 537 CURVE SMOOTH",
"576 537 OFFCURVE",
"599 561 OFFCURVE",
"599 596 CURVE SMOOTH",
"599 679 OFFCURVE",
"501 745 OFFCURVE",
"379 745 CURVE SMOOTH",
"186 745 OFFCURVE",
"61 592 OFFCURVE",
"60 341 CURVE SMOOTH",
"59 119 OFFCURVE",
"171 -14 OFFCURVE",
"343 -14 CURVE SMOOTH",
"438 -14 OFFCURVE",
"520 34 OFFCURVE",
"588 128 CURVE",
"549 168 LINE",
"483 90 OFFCURVE",
"424 55 OFFCURVE",
"353 55 CURVE SMOOTH",
"232 55 OFFCURVE",
"153 165 OFFCURVE",
"154 350 CURVE SMOOTH",
"155 568 OFFCURVE",
"234 682 OFFCURVE",
"375 682 CURVE SMOOTH",
"461 682 OFFCURVE",
"511 646 OFFCURVE",
"489 601 CURVE SMOOTH"
);
}
);
};
hints = (
{
place = "{66, 94}";
type = Stem;
},
{
horizontal = 1;
place = "{-14, 69}";
type = Stem;
},
{
horizontal = 1;
place = "{507, 208}";
type = Stem;
},
{
horizontal = 1;
place = "{652, 63}";
type = Stem;
}
);
layerId = "703BE3CC-3FB5-4948-8633-0DF44FA889B7";
paths = (
{
closed = 1;
nodes = (
"472 566 LINE",
"491 550 OFFCURVE",
"520 540 OFFCURVE",
"542 540 CURVE SMOOTH",
"571 540 OFFCURVE",
"595 565 OFFCURVE",
"595 600 CURVE SMOOTH",
"595 688 OFFCURVE",
"489 745 OFFCURVE",
"376 745 CURVE SMOOTH",
"182 745 OFFCURVE",
"61 596 OFFCURVE",
"60 341 CURVE SMOOTH",
"59 119 OFFCURVE",
"163 -14 OFFCURVE",
"340 -14 CURVE SMOOTH",
"434 -14 OFFCURVE",
"515 30 OFFCURVE",
"582 128 CURVE",
"569 139 LINE",
"502 57 OFFCURVE",
"444 25 OFFCURVE",
"359 25 CURVE SMOOTH",
"238 25 OFFCURVE",
"153 125 OFFCURVE",
"154 350 CURVE SMOOTH",
"155 608 OFFCURVE",
"238 722 OFFCURVE",
"374 722 CURVE SMOOTH",
"457 722 OFFCURVE",
"526 680 OFFCURVE",
"490 604 CURVE SMOOTH"
);
}
);
width = 614;
},
{
anchors = (
{
name = bottom;
position = "{329, -30}";
},
{
name = top;
position = "{366, 730}";
}
);
background = {
anchors = (
{
name = bottom;
position = "{335, -30}";
},
{
name = top;
position = "{374, 730}";
}
);
hints = (
{
place = "{66, 94}";
type = Stem;
},
{
horizontal = 1;
place = "{-14, 69}";
type = Stem;
},
{
horizontal = 1;
place = "{507, 208}";
type = Stem;
},
{
horizontal = 1;
place = "{652, 63}";
type = Stem;
}
);
paths = (
{
closed = 1;
nodes = (
"462 537 LINE",
"481 518 OFFCURVE",
"507 507 OFFCURVE",
"534 507 CURVE SMOOTH",
"566 507 OFFCURVE",
"589 531 OFFCURVE",
"589 566 CURVE SMOOTH",
"589 649 OFFCURVE",
"491 715 OFFCURVE",
"369 715 CURVE SMOOTH",
"176 715 OFFCURVE",
"51 562 OFFCURVE",
"51 325 CURVE SMOOTH",
"51 119 OFFCURVE",
"162 -14 OFFCURVE",
"334 -14 CURVE SMOOTH",
"429 -14 OFFCURVE",
"511 34 OFFCURVE",
"579 128 CURVE",
"540 168 LINE",
"474 90 OFFCURVE",
"415 55 OFFCURVE",
"344 55 CURVE SMOOTH",
"223 55 OFFCURVE",
"145 165 OFFCURVE",
"145 334 CURVE SMOOTH",
"145 538 OFFCURVE",
"224 652 OFFCURVE",
"365 652 CURVE SMOOTH",
"451 652 OFFCURVE",
"501 616 OFFCURVE",
"479 571 CURVE SMOOTH"
);
},
{
closed = 1;
nodes = (
"52 -880 OFFCURVE",
"157 -1014 OFFCURVE",
"331 -1014 CURVE SMOOTH",
"519 -1014 OFFCURVE",
"631 -856 OFFCURVE",
"631 -622 CURVE SMOOTH",
"631 -417 OFFCURVE",
"528 -285 OFFCURVE",
"360 -285 CURVE SMOOTH",
"169 -285 OFFCURVE",
"52 -439 OFFCURVE",
"52 -669 CURVE SMOOTH"
);
},
{
closed = 1;
nodes = (
"105 -453 OFFCURVE",
"204 -330 OFFCURVE",
"353 -330 CURVE SMOOTH",
"501 -330 OFFCURVE",
"582 -441 OFFCURVE",
"580 -633 CURVE SMOOTH",
"578 -845 OFFCURVE",
"488 -969 OFFCURVE",
"340 -969 CURVE SMOOTH",
"187 -969 OFFCURVE",
"101 -854 OFFCURVE",
"103 -654 CURVE SMOOTH"
);
}
);
};
hints = (
{
place = "{66, 94}";
type = Stem;
},
{
horizontal = 1;
place = "{-14, 69}";
type = Stem;
},
{
horizontal = 1;
place = "{507, 208}";
type = Stem;
},
{
horizontal = 1;
place = "{652, 63}";
type = Stem;
}
);
layerId = "51A3A961-7A3D-4D9D-A8A6-EF0E27CBF030";
paths = (
{
closed = 1;
nodes = (
"469 558 LINE",
"485 542 OFFCURVE",
"501 533 OFFCURVE",
"525 533 CURVE SMOOTH",
"551 533 OFFCURVE",
"573 553 OFFCURVE",
"573 585 CURVE SMOOTH",
"573 659 OFFCURVE",
"475 715 OFFCURVE",
"371 715 CURVE SMOOTH",
"189 715 OFFCURVE",
"67 565 OFFCURVE",
"67 326 CURVE SMOOTH",
"67 109 OFFCURVE",
"175 -14 OFFCURVE",
"328 -14 CURVE SMOOTH",
"421 -14 OFFCURVE",
"506 39 OFFCURVE",
"565 121 CURVE",
"537 149 LINE",
"470 66 OFFCURVE",
"406 31 OFFCURVE",
"332 31 CURVE SMOOTH",
"202 31 OFFCURVE",
"118 145 OFFCURVE",
"118 331 CURVE SMOOTH",
"118 536 OFFCURVE",
"221 670 OFFCURVE",
"369 670 CURVE SMOOTH",
"462 670 OFFCURVE",
"506 633 OFFCURVE",
"482 584 CURVE SMOOTH"
);
}
);
width = 612;
},
{
anchors = (
{
name = bottom;
position = "{357, -30}";
},
{
name = top;
position = "{404, 730}";
}
);
background = {
hints = (
{
place = "{66, 94}";
type = Stem;
},
{
horizontal = 1;
place = "{-14, 69}";
type = Stem;
},
{
horizontal = 1;
place = "{507, 208}";
type = Stem;
},
{
horizontal = 1;
place = "{652, 63}";
type = Stem;
}
);
paths = (
{
closed = 1;
nodes = (
"477 476 LINE",
"503 448 OFFCURVE",
"548 431 OFFCURVE",
"584 431 CURVE SMOOTH",
"634 431 OFFCURVE",
"675 470 OFFCURVE",
"675 525 CURVE SMOOTH",
"675 635 OFFCURVE",
"584 715 OFFCURVE",
"408 715 CURVE SMOOTH",
"186 715 OFFCURVE",
"32 573 OFFCURVE",
"32 314 CURVE SMOOTH",
"32 95 OFFCURVE",
"166 -14 OFFCURVE",
"368 -14 CURVE SMOOTH",
"523 -14 OFFCURVE",
"615 78 OFFCURVE",
"667 162 CURVE",
"585 227 LINE",
"538 160 OFFCURVE",
"485 115 OFFCURVE",
"416 115 CURVE SMOOTH",
"321 115 OFFCURVE",
"269 178 OFFCURVE",
"269 332 CURVE SMOOTH",
"269 522 OFFCURVE",
"327 612 OFFCURVE",
"438 612 CURVE SMOOTH",
"513 612 OFFCURVE",
"523 569 OFFCURVE",
"495 512 CURVE SMOOTH"
);
}
);
};
hints = (
{
place = "{66, 94}";
type = Stem;
},
{
horizontal = 1;
place = "{-14, 69}";
type = Stem;
},
{
horizontal = 1;
place = "{507, 208}";
type = Stem;
},
{
horizontal = 1;
place = "{652, 63}";
type = Stem;
}
);
layerId = "183D4CB5-BDC3-4BCB-9164-6C94CC175920";
paths = (
{
closed = 1;
nodes = (
"472 476 LINE",
"498 448 OFFCURVE",
"543 431 OFFCURVE",
"579 431 CURVE SMOOTH",
"629 431 OFFCURVE",
"670 470 OFFCURVE",
"670 525 CURVE SMOOTH",
"670 635 OFFCURVE",
"579 715 OFFCURVE",
"408 715 CURVE SMOOTH",
"186 715 OFFCURVE",
"38 573 OFFCURVE",
"38 314 CURVE SMOOTH",
"38 95 OFFCURVE",
"161 -14 OFFCURVE",
"363 -14 CURVE SMOOTH",
"518 -14 OFFCURVE",
"610 78 OFFCURVE",
"662 162 CURVE",
"580 227 LINE",
"533 160 OFFCURVE",
"480 115 OFFCURVE",
"411 115 CURVE SMOOTH",
"316 115 OFFCURVE",
"275 178 OFFCURVE",
"275 332 CURVE SMOOTH",
"275 522 OFFCURVE",
"338 612 OFFCURVE",
"438 612 CURVE SMOOTH",
"508 612 OFFCURVE",
"518 569 OFFCURVE",
"490 512 CURVE SMOOTH"
);
}
);
width = 695;
}
);
leftKerningGroup = O;
leftMetricsKey = O;
rightKerningGroup = C;
unicode = 0043;
},
{
color = 4;
glyphname = D;
layers = (
{
anchors = (
{
name = bottom;
position = "{348, -30}";
},
{
name = top;
position = "{363, 730}";
}
);
background = {
paths = (
{
closed = 1;
nodes = (
"321 0 LINE SMOOTH",
"576 0 OFFCURVE",
"715 146 OFFCURVE",
"715 372 CURVE SMOOTH",
"715 602 OFFCURVE",
"566 700 OFFCURVE",
"349 700 CURVE SMOOTH",
"62 700 LINE",
"62 652 LINE",
"118 643 LINE SMOOTH",
"148 638 OFFCURVE",
"151 627 OFFCURVE",
"151 596 CURVE SMOOTH",
"151 108 LINE SMOOTH",
"151 78 OFFCURVE",
"149 62 OFFCURVE",
"120 57 CURVE SMOOTH",
"62 48 LINE",
"62 0 LINE"
);
},
{
closed = 1;
nodes = (
"302 55 OFFCURVE",
"267 57 OFFCURVE",
"250 60 CURVE",
"250 646 LINE",
"341 646 LINE SMOOTH",
"515 646 OFFCURVE",
"608 548 OFFCURVE",
"608 364 CURVE SMOOTH",
"608 154 OFFCURVE",
"519 55 OFFCURVE",
"322 55 CURVE SMOOTH"
);
}
);
};
hints = (
{
place = "{156, 87}";
type = Stem;
},
{
place = "{596, 97}";
type = Stem;
},
{
horizontal = 1;
place = "{0, 55}";
type = Stem;
},
{
horizontal = 1;
place = "{646, 54}";
type = Stem;
}
);
layerId = UUID0;
paths = (
{
closed = 1;
nodes = (
"268 0 LINE SMOOTH",
"537 0 OFFCURVE",
"693 144 OFFCURVE",
"693 392 CURVE SMOOTH",
"693 588 OFFCURVE",
"570 700 OFFCURVE",
"355 700 CURVE SMOOTH",
"88 700 LINE",
"82 654 LINE",
"169 637 LINE",
"144 60 LINE",
"55 45 LINE",
"50 0 LINE"
);
},
{
closed = 1;
nodes = (
"255 646 LINE",
"344 646 LINE SMOOTH",
"504 646 OFFCURVE",
"596 550 OFFCURVE",
"596 383 CURVE SMOOTH",
"596 171 OFFCURVE",
"477 55 OFFCURVE",
"260 55 CURVE SMOOTH",
"232 55 LINE"
);
}
);
width = 732;
},
{
anchors = (
{
name = bottom;
position = "{384, -30}";
},
{
name = top;
position = "{396, 730}";
}
);
background = {
paths = (
{
closed = 1;
nodes = (
"321 0 LINE SMOOTH",
"576 0 OFFCURVE",
"715 146 OFFCURVE",
"715 372 CURVE SMOOTH",
"715 602 OFFCURVE",
"566 700 OFFCURVE",
"349 700 CURVE SMOOTH",
"62 700 LINE",
"62 652 LINE",
"118 643 LINE SMOOTH",
"148 638 OFFCURVE",
"151 627 OFFCURVE",
"151 596 CURVE SMOOTH",
"151 108 LINE SMOOTH",
"151 78 OFFCURVE",
"149 62 OFFCURVE",
"120 57 CURVE SMOOTH",
"62 48 LINE",
"62 0 LINE"
);
},
{
closed = 1;
nodes = (
"302 55 OFFCURVE",
"267 57 OFFCURVE",
"250 60 CURVE",
"250 646 LINE",
"341 646 LINE SMOOTH",
"515 646 OFFCURVE",
"608 548 OFFCURVE",
"608 364 CURVE SMOOTH",
"608 154 OFFCURVE",
"519 55 OFFCURVE",
"322 55 CURVE SMOOTH"
);
}
);
};
hints = (
{
place = "{156, 87}";
type = Stem;
},
{
place = "{596, 97}";
type = Stem;
},
{
horizontal = 1;
place = "{0, 55}";
type = Stem;
},
{
horizontal = 1;
place = "{646, 54}";
type = Stem;
}
);
layerId = "D666A065-31E2-40D8-BE19-B3556ED1E29D";
paths = (
{
closed = 1;
nodes = (
"296 0 LINE SMOOTH",
"584 0 OFFCURVE",
"753 143 OFFCURVE",
"753 390 CURVE SMOOTH",
"753 587 OFFCURVE",
"619 700 OFFCURVE",
"387 700 CURVE SMOOTH",
"102 700 LINE",
"95 654 LINE",
"189 637 LINE",
"166 59 LINE",
"77 45 LINE",
"72 0 LINE"
);
},
{
closed = 1;
nodes = (
"277 645 LINE",
"378 645 LINE SMOOTH",
"558 645 OFFCURVE",
"652 550 OFFCURVE",
"652 381 CURVE SMOOTH",
"652 165 OFFCURVE",
"526 58 OFFCURVE",
"286 58 CURVE SMOOTH",
"256 58 LINE"
);
}
);
width = 802;
},
{
anchors = (
{
name = bottom;
position = "{348, -30}";
},
{
name = top;
position = "{363, 730}";
}
);
background = {
anchors = (
{
name = bottom;
position = "{348, -30}";
},
{
name = top;
position = "{363, 730}";
}
);
paths = (
{
closed = 1;
nodes = (
"268 0 LINE SMOOTH",
"532 0 OFFCURVE",
"685 144 OFFCURVE",
"685 392 CURVE SMOOTH",
"685 588 OFFCURVE",
"565 700 OFFCURVE",
"355 700 CURVE SMOOTH",
"89 700 LINE",
"87 683 LINE",
"169 668 LINE",
"143 30 LINE",
"59 18 LINE",
"57 0 LINE"
);
},
{
closed = 1;
nodes = (
"256 677 LINE",
"345 677 LINE SMOOTH",
"500 677 OFFCURVE",
"588 570 OFFCURVE",
"588 383 CURVE SMOOTH",
"588 151 OFFCURVE",
"469 23 OFFCURVE",
"257 23 CURVE SMOOTH",
"229 23 LINE"
);
}
);
};
hints = (
{
place = "{156, 87}";
type = Stem;
},
{
place = "{596, 97}";
type = Stem;
},
{
horizontal = 1;
place = "{0, 55}";
type = Stem;
},
{
horizontal = 1;
place = "{646, 54}";
type = Stem;
}
);
layerId = "703BE3CC-3FB5-4948-8633-0DF44FA889B7";
paths = (
{
closed = 1;
nodes = (
"268 0 LINE SMOOTH",
"532 0 OFFCURVE",
"685 144 OFFCURVE",
"685 407 CURVE SMOOTH",
"685 618 OFFCURVE",
"566 730 OFFCURVE",
"356 730 CURVE SMOOTH",
"90 730 LINE",
"88 713 LINE",
"170 698 LINE",
"143 30 LINE",
"59 18 LINE",
"57 0 LINE"
);
},
{
closed = 1;
nodes = (
"257 707 LINE",
"346 707 LINE SMOOTH",
"501 707 OFFCURVE",
"588 600 OFFCURVE",
"588 398 CURVE SMOOTH",
"588 151 OFFCURVE",
"469 23 OFFCURVE",
"257 23 CURVE SMOOTH",
"229 23 LINE"
);
}
);
width = 723;
},
{
anchors = (
{
name = bottom;
position = "{340, -30}";
},
{
name = top;
position = "{345, 730}";
}
);
background = {
anchors = (
{
name = bottom;
position = "{347, -30}";
},
{
name = top;
position = "{362, 730}";
}
);
hints = (
{
place = "{156, 87}";
type = Stem;
},
{
place = "{596, 97}";
type = Stem;
},
{
horizontal = 1;
place = "{0, 55}";
type = Stem;
},
{
horizontal = 1;
place = "{646, 54}";
type = Stem;
}
);
paths = (
{
closed = 1;
nodes = (
"260 0 LINE SMOOTH",
"529 0 OFFCURVE",
"685 144 OFFCURVE",
"685 392 CURVE SMOOTH",
"685 588 OFFCURVE",
"562 700 OFFCURVE",
"347 700 CURVE SMOOTH",
"80 700 LINE",
"74 654 LINE",
"161 637 LINE",
"136 60 LINE",
"47 45 LINE",
"42 0 LINE"
);
},
{
closed = 1;
nodes = (
"247 646 LINE",
"336 646 LINE SMOOTH",
"496 646 OFFCURVE",
"588 550 OFFCURVE",
"588 383 CURVE SMOOTH",
"588 171 OFFCURVE",
"469 55 OFFCURVE",
"252 55 CURVE SMOOTH",
"224 55 LINE"
);
}
);
};
hints = (
{
place = "{156, 87}";
type = Stem;
},
{
place = "{596, 97}";
type = Stem;
},
{
horizontal = 1;
place = "{0, 55}";
type = Stem;
},
{
horizontal = 1;
place = "{646, 54}";
type = Stem;
}
);
layerId = "51A3A961-7A3D-4D9D-A8A6-EF0E27CBF030";
paths = (
{
closed = 1;
nodes = (
"245 0 LINE SMOOTH",
"511 0 OFFCURVE",
"660 149 OFFCURVE",
"660 392 CURVE SMOOTH",
"660 589 OFFCURVE",
"538 700 OFFCURVE",
"341 700 CURVE SMOOTH",
"85 700 LINE",
"81 668 LINE",
"169 655 LINE",
"145 46 LINE",
"60 32 LINE",
"56 0 LINE"
);
},
{
closed = 1;
nodes = (
"216 661 LINE",
"332 661 LINE SMOOTH",
"508 661 OFFCURVE",
"609 558 OFFCURVE",
"609 383 CURVE SMOOTH",
"609 160 OFFCURVE",
"479 39 OFFCURVE",
"233 39 CURVE SMOOTH",
"192 39 LINE"
);
}
);
width = 706;
},
{
anchors = (
{
name = bottom;
position = "{363, -30}";
},
{
name = top;
position = "{406, 730}";
}
);
background = {
anchors = (
{
name = bottom;
position = "{331, -30}";
},
{
name = top;
position = "{346, 730}";
}
);
hints = (
{
place = "{156, 87}";
type = Stem;
},
{
place = "{596, 97}";
type = Stem;
},
{
horizontal = 1;
place = "{0, 55}";
type = Stem;
},
{
horizontal = 1;
place = "{646, 54}";
type = Stem;
}
);
paths = (
{
closed = 1;
nodes = (
"251 0 LINE SMOOTH",
"520 0 OFFCURVE",
"676 144 OFFCURVE",
"676 392 CURVE SMOOTH",
"676 588 OFFCURVE",
"553 700 OFFCURVE",
"338 700 CURVE SMOOTH",
"71 700 LINE",
"65 654 LINE",
"152 637 LINE",
"127 60 LINE",
"38 45 LINE",
"33 0 LINE"
);
},
{
closed = 1;
nodes = (
"238 646 LINE",
"327 646 LINE SMOOTH",
"487 646 OFFCURVE",
"579 550 OFFCURVE",
"579 383 CURVE SMOOTH",
"579 171 OFFCURVE",
"460 55 OFFCURVE",
"243 55 CURVE SMOOTH",
"215 55 LINE"
);
}
);
};
hints = (
{
place = "{156, 87}";
type = Stem;
},
{
place = "{596, 97}";
type = Stem;
},
{
horizontal = 1;
place = "{0, 55}";
type = Stem;
},
{
horizontal = 1;
place = "{646, 54}";
type = Stem;
}
);
layerId = "183D4CB5-BDC3-4BCB-9164-6C94CC175920";
paths = (
{
closed = 1;
nodes = (
"326 0 LINE SMOOTH",
"615 0 OFFCURVE",
"792 146 OFFCURVE",
"792 391 CURVE SMOOTH",
"792 583 OFFCURVE",
"645 700 OFFCURVE",
"415 700 CURVE SMOOTH",
"46 700 LINE",
"40 613 LINE",
"123 596 LINE",
"99 105 LINE",
"14 92 LINE",
"8 0 LINE"
);
},
{
closed = 1;
nodes = (
"354 603 LINE",
"365 603 LINE SMOOTH",
"485 603 OFFCURVE",
"555 537 OFFCURVE",
"555 388 CURVE SMOOTH",
"555 201 OFFCURVE",
"463 103 OFFCURVE",
"338 103 CURVE SMOOTH",
"330 103 LINE"
);
}
);
width = 820;
}
);
leftKerningGroup = D;
leftMetricsKey = H;
rightKerningGroup = O;
rightMetricsKey = O;
unicode = 0044;
},
{
color = 4;
glyphname = E;
layers = (
{
anchors = (
{
name = bottom;
position = "{314, -30}";
},
{
name = top;
position = "{344, 730}";
}
);
background = {
paths = (
{
closed = 1;
nodes = (
"560 0 LINE",
"584 184 LINE",
"529 184 LINE",
"501 77 OFFCURVE",
"476 54 OFFCURVE",
"379 54 CURVE SMOOTH",
"250 54 LINE",
"250 325 LINE",
"337 325 LINE SMOOTH",
"419 325 OFFCURVE",
"418 317 OFFCURVE",
"430 240 CURVE",
"476 248 LINE",
"476 475 LINE",
"430 469 LINE",
"413 394 OFFCURVE",
"420 387 OFFCURVE",
"337 387 CURVE SMOOTH",
"250 387 LINE",
"250 646 LINE",
"347 646 LINE SMOOTH",
"445 646 OFFCURVE",
"470 625 OFFCURVE",
"510 520 CURVE",
"562 537 LINE",
"525 700 LINE",
"62 700 LINE",
"62 652 LINE",
"118 643 LINE SMOOTH",
"148 638 OFFCURVE",
"151 627 OFFCURVE",
"151 596 CURVE SMOOTH",
"151 108 LINE SMOOTH",
"151 78 OFFCURVE",
"149 62 OFFCURVE",
"120 57 CURVE SMOOTH",
"62 48 LINE",
"62 0 LINE"
);
}
);
};
hints = (
{
place = "{156, 80}";
type = Stem;
},
{
place = "{156, 94}";
type = Stem;
},
{
horizontal = 1;
place = "{0, 58}";
type = Stem;
},
{
horizontal = 1;
place = "{328, 63}";
type = Stem;
},
{
horizontal = 1;
place = "{643, 57}";
type = Stem;
}
);
layerId = UUID0;
paths = (
{
closed = 1;
nodes = (
"145 59 LINE",
"63 46 LINE",
"57 0 LINE",
"536 0 LINE",
"560 184 LINE",
"505 184 LINE",
"491 143 LINE SMOOTH",
"468 76 OFFCURVE",
"447 58 OFFCURVE",
"388 58 CURVE SMOOTH",
"231 58 LINE",
"242 328 LINE",
"489 328 LINE",
"494 391 LINE",
"245 391 LINE",
"255 643 LINE",
"394 643 LINE SMOOTH",
"452 643 OFFCURVE",
"469 628 OFFCURVE",
"490 559 CURVE SMOOTH",
"501 523 LINE",
"556 532 LINE",
"542 700 LINE",
"88 700 LINE",
"82 654 LINE",
"168 637 LINE"
);
}
);
width = 600;
},
{
anchors = (
{
name = bottom;
position = "{346, -30}";
},
{
name = top;
position = "{377, 730}";
}
);
background = {
paths = (
{
closed = 1;
nodes = (
"560 0 LINE",
"584 184 LINE",
"529 184 LINE",
"501 77 OFFCURVE",
"476 54 OFFCURVE",
"379 54 CURVE SMOOTH",
"250 54 LINE",
"250 325 LINE",
"337 325 LINE SMOOTH",
"419 325 OFFCURVE",
"418 317 OFFCURVE",
"430 240 CURVE",
"476 248 LINE",
"476 475 LINE",
"430 469 LINE",
"413 394 OFFCURVE",
"420 387 OFFCURVE",
"337 387 CURVE SMOOTH",
"250 387 LINE",
"250 646 LINE",
"347 646 LINE SMOOTH",
"445 646 OFFCURVE",
"470 625 OFFCURVE",
"510 520 CURVE",
"562 537 LINE",
"525 700 LINE",
"62 700 LINE",
"62 652 LINE",
"118 643 LINE SMOOTH",
"148 638 OFFCURVE",
"151 627 OFFCURVE",
"151 596 CURVE SMOOTH",
"151 108 LINE SMOOTH",
"151 78 OFFCURVE",
"149 62 OFFCURVE",
"120 57 CURVE SMOOTH",
"62 48 LINE",
"62 0 LINE"
);
}
);
};
hints = (
{
place = "{156, 80}";
type = Stem;
},
{
place = "{156, 94}";
type = Stem;
},
{
horizontal = 1;
place = "{0, 58}";
type = Stem;
},
{
horizontal = 1;
place = "{328, 63}";
type = Stem;
},
{
horizontal = 1;
place = "{643, 57}";
type = Stem;
}
);
layerId = "D666A065-31E2-40D8-BE19-B3556ED1E29D";
paths = (
{
closed = 1;
nodes = (
"166 59 LINE",
"77 46 LINE",
"71 0 LINE",
"587 0 LINE",
"612 184 LINE",
"554 184 LINE",
"539 143 LINE SMOOTH",
"512 69 OFFCURVE",
"485 58 OFFCURVE",
"429 58 CURVE SMOOTH",
"256 58 LINE",
"266 328 LINE",
"534 328 LINE",
"539 391 LINE",
"267 391 LINE",
"277 643 LINE",
"431 643 LINE SMOOTH",
"494 643 OFFCURVE",
"513 628 OFFCURVE",
"536 559 CURVE SMOOTH",
"548 523 LINE",
"606 532 LINE",
"590 700 LINE",
"102 700 LINE",
"95 654 LINE",
"189 637 LINE"
);
}
);
width = 656;
},
{
anchors = (
{
name = bottom;
position = "{314, -30}";
},
{
name = top;
position = "{344, 730}";
}
);
background = {
anchors = (
{
name = bottom;
position = "{314, -30}";
},
{
name = top;
position = "{344, 730}";
}
);
paths = (
{
closed = 1;
nodes = (
"143 30 LINE",
"59 18 LINE",
"57 0 LINE",
"516 0 LINE",
"542 171 LINE",
"523 171 LINE",
"503 106 LINE SMOOTH",
"483 41 OFFCURVE",
"450 23 OFFCURVE",
"386 23 CURVE SMOOTH",
"229 23 LINE",
"244 348 LINE",
"473 348 LINE",
"474 371 LINE",
"244 371 LINE",
"256 677 LINE",
"394 677 LINE SMOOTH",
"452 677 OFFCURVE",
"478 664 OFFCURVE",
"499 594 CURVE SMOOTH",
"519 526 LINE",
"537 528 LINE",
"521 700 LINE",
"89 700 LINE",
"87 683 LINE",
"169 668 LINE"
);
}
);
};
hints = (
{
place = "{156, 80}";
type = Stem;
},
{
place = "{156, 94}";
type = Stem;
},
{
horizontal = 1;
place = "{0, 58}";
type = Stem;
},
{
horizontal = 1;
place = "{328, 63}";
type = Stem;
},
{
horizontal = 1;
place = "{643, 57}";
type = Stem;
}
);
layerId = "703BE3CC-3FB5-4948-8633-0DF44FA889B7";
paths = (
{
closed = 1;
nodes = (
"143 30 LINE",
"59 18 LINE",
"57 0 LINE",
"516 0 LINE",
"542 171 LINE",
"523 171 LINE",
"503 106 LINE SMOOTH",
"483 41 OFFCURVE",
"450 23 OFFCURVE",
"386 23 CURVE SMOOTH",
"229 23 LINE",
"245 368 LINE",
"474 368 LINE",
"475 391 LINE",
"245 391 LINE",
"257 707 LINE",
"395 707 LINE SMOOTH",
"453 707 OFFCURVE",
"479 694 OFFCURVE",
"500 624 CURVE SMOOTH",
"520 556 LINE",
"538 558 LINE",
"522 730 LINE",
"90 730 LINE",
"88 713 LINE",
"170 698 LINE"
);
}
);
width = 586;
},
{
anchors = (
{
name = bottom;
position = "{291, -30}";
},
{
name = top;
position = "{339, 730}";
}
);
background = {
anchors = (
{
name = bottom;
position = "{330, 870}";
},
{
name = top;
position = "{338, 1630}";
}
);
hints = (
{
place = "{156, 80}";
type = Stem;
},
{
place = "{156, 94}";
type = Stem;
},
{
horizontal = 1;
place = "{0, 58}";
type = Stem;
},
{
horizontal = 1;
place = "{328, 63}";
type = Stem;
},
{
horizontal = 1;
place = "{643, 57}";
type = Stem;
}
);
paths = (
{
closed = 1;
nodes = (
"123 959 LINE",
"41 946 LINE",
"35 900 LINE",
"514 900 LINE",
"538 1084 LINE",
"483 1084 LINE",
"469 1043 LINE SMOOTH",
"446 976 OFFCURVE",
"425 958 OFFCURVE",
"366 958 CURVE SMOOTH",
"209 958 LINE",
"220 1228 LINE",
"467 1228 LINE",
"472 1291 LINE",
"223 1291 LINE",
"233 1543 LINE",
"372 1543 LINE SMOOTH",
"430 1543 OFFCURVE",
"447 1528 OFFCURVE",
"468 1459 CURVE SMOOTH",
"479 1423 LINE",
"534 1432 LINE",
"520 1600 LINE",
"66 1600 LINE",
"60 1554 LINE",
"146 1537 LINE"
);
},
{
closed = 1;
nodes = (
"145 46 LINE",
"60 32 LINE",
"56 0 LINE",
"286 0 LINE",
"289 33 LINE",
"192 45 LINE",
"216 655 LINE",
"303 668 LINE",
"306 700 LINE",
"85 700 LINE",
"81 668 LINE",
"169 655 LINE"
);
}
);
};
hints = (
{
place = "{156, 80}";
type = Stem;
},
{
place = "{156, 94}";
type = Stem;
},
{
horizontal = 1;
place = "{0, 58}";
type = Stem;
},
{
horizontal = 1;
place = "{328, 63}";
type = Stem;
},
{
horizontal = 1;
place = "{643, 57}";
type = Stem;
}
);
layerId = "51A3A961-7A3D-4D9D-A8A6-EF0E27CBF030";
paths = (
{
closed = 1;
nodes = (
"145 46 LINE",
"60 32 LINE",
"56 0 LINE",
"513 0 LINE",
"535 157 LINE",
"499 157 LINE",
"487 114 LINE SMOOTH",
"467 42 OFFCURVE",
"444 39 OFFCURVE",
"388 39 CURVE SMOOTH",
"192 39 LINE",
"204 340 LINE",
"471 340 LINE",
"475 380 LINE",
"205 380 LINE",
"216 661 LINE",
"390 661 LINE SMOOTH",
"444 661 OFFCURVE",
"468 655 OFFCURVE",
"485 591 CURVE SMOOTH",
"498 542 LINE",
"533 547 LINE",
"519 700 LINE",
"85 700 LINE",
"81 668 LINE",
"169 655 LINE"
);
}
);
width = 577;
},
{
anchors = (
{
name = bottom;
position = "{372, -30}";
},
{
name = top;
position = "{348, 730}";
}
);
background = {
hints = (
{
place = "{156, 80}";
type = Stem;
},
{
place = "{156, 94}";
type = Stem;
},
{
horizontal = 1;
place = "{0, 58}";
type = Stem;
},
{
horizontal = 1;
place = "{328, 63}";
type = Stem;
},
{
horizontal = 1;
place = "{643, 57}";
type = Stem;
}
);
paths = (
{
closed = 1;
nodes = (
"101 96 LINE",
"22 83 LINE",
"13 0 LINE",
"606 0 LINE",
"630 208 LINE",
"531 208 LINE",
"517 167 LINE SMOOTH",
"496 105 OFFCURVE",
"467 95 OFFCURVE",
"408 95 CURVE SMOOTH",
"332 95 LINE",
"343 307 LINE",
"531 307 LINE",
"536 412 LINE",
"346 412 LINE",
"355 606 LINE",
"418 606 LINE SMOOTH",
"479 606 OFFCURVE",
"500 591 OFFCURVE",
"519 534 CURVE SMOOTH",
"531 498 LINE",
"625 507 LINE",
"610 700 LINE",
"46 700 LINE",
"40 623 LINE",
"124 606 LINE"
);
}
);
};
hints = (
{
place = "{156, 80}";
type = Stem;
},
{
place = "{156, 94}";
type = Stem;
},
{
horizontal = 1;
place = "{0, 58}";
type = Stem;
},
{
horizontal = 1;
place = "{328, 63}";
type = Stem;
},
{
horizontal = 1;
place = "{643, 57}";
type = Stem;
}
);
layerId = "183D4CB5-BDC3-4BCB-9164-6C94CC175920";
paths = (
{
closed = 1;
nodes = (
"101 106 LINE",
"22 93 LINE",
"13 0 LINE",
"609 0 LINE",
"633 218 LINE",
"523 218 LINE",
"511 177 LINE SMOOTH",
"493 114 OFFCURVE",
"470 105 OFFCURVE",
"411 105 CURVE SMOOTH",
"332 105 LINE",
"343 302 LINE",
"531 302 LINE",
"536 416 LINE",
"346 416 LINE",
"355 596 LINE",
"421 596 LINE SMOOTH",
"478 596 OFFCURVE",
"496 581 OFFCURVE",
"513 524 CURVE SMOOTH",
"524 488 LINE",
"628 497 LINE",
"613 700 LINE",
"46 700 LINE",
"40 613 LINE",
"124 596 LINE"
);
}
);
width = 656;
}
);
leftKerningGroup = E;
leftMetricsKey = H;
rightKerningGroup = E;
unicode = 0045;
},
{
color = 4;
glyphname = F;
layers = (
{
background = {
paths = (
{
closed = 1;
nodes = (
"357 0 LINE",
"357 48 LINE",
"287 56 LINE SMOOTH",
"255 60 OFFCURVE",
"250 73 OFFCURVE",
"250 106 CURVE SMOOTH",
"250 305 LINE",
"337 305 LINE SMOOTH",
"417 305 OFFCURVE",
"415 290 OFFCURVE",
"430 200 CURVE",
"476 208 LINE",
"476 455 LINE",
"430 449 LINE",
"414 369 OFFCURVE",
"410 367 OFFCURVE",
"337 367 CURVE SMOOTH",
"250 367 LINE",
"250 646 LINE",
"354 646 LINE SMOOTH",
"453 646 OFFCURVE",
"477 619 OFFCURVE",
"520 503 CURVE",
"572 521 LINE",
"536 700 LINE",
"62 700 LINE",
"62 652 LINE",
"118 643 LINE SMOOTH",
"148 638 OFFCURVE",
"151 627 OFFCURVE",
"151 596 CURVE SMOOTH",
"151 108 LINE SMOOTH",
"151 78 OFFCURVE",
"149 62 OFFCURVE",
"120 57 CURVE SMOOTH",
"62 48 LINE",
"62 0 LINE"
);
}
);
};
hints = (
{
place = "{156, 79}";
type = Stem;
},
{
place = "{156, 93}";
type = Stem;
},
{
horizontal = 1;
place = "{320, 63}";
type = Stem;
},
{
horizontal = 1;
place = "{643, 57}";
type = Stem;
},
{
horizontal = 1;
place = "{0, 21}";
target = up;
type = BottomGhost;
}
);
layerId = UUID0;
paths = (
{
closed = 1;
nodes = (
"57 0 LINE",
"352 0 LINE",
"358 46 LINE",
"229 58 LINE",
"241 320 LINE",
"478 320 LINE",
"483 383 LINE",
"244 383 LINE",
"255 643 LINE",
"394 643 LINE SMOOTH",
"449 643 OFFCURVE",
"467 628 OFFCURVE",
"489 562 CURVE SMOOTH",
"502 523 LINE",
"556 533 LINE",
"542 700 LINE",
"88 700 LINE",
"82 654 LINE",
"168 637 LINE",
"145 59 LINE",
"63 46 LINE"
);
}
);
width = 561;
},
{
background = {
paths = (
{
closed = 1;
nodes = (
"357 1000 LINE",
"357 1048 LINE",
"287 1056 LINE SMOOTH",
"255 1060 OFFCURVE",
"250 1073 OFFCURVE",
"250 1106 CURVE SMOOTH",
"250 1305 LINE",
"337 1305 LINE SMOOTH",
"417 1305 OFFCURVE",
"415 1290 OFFCURVE",
"430 1200 CURVE",
"476 1208 LINE",
"476 1455 LINE",
"430 1449 LINE",
"414 1369 OFFCURVE",
"410 1367 OFFCURVE",
"337 1367 CURVE SMOOTH",
"250 1367 LINE",
"250 1646 LINE",
"354 1646 LINE SMOOTH",
"453 1646 OFFCURVE",
"477 1619 OFFCURVE",
"520 1503 CURVE",
"572 1521 LINE",
"536 1700 LINE",
"62 1700 LINE",
"62 1652 LINE",
"118 1643 LINE SMOOTH",
"148 1638 OFFCURVE",
"151 1627 OFFCURVE",
"151 1596 CURVE SMOOTH",
"151 1108 LINE SMOOTH",
"151 1078 OFFCURVE",
"149 1062 OFFCURVE",
"120 1057 CURVE SMOOTH",
"62 1048 LINE",
"62 1000 LINE"
);
},
{
closed = 1;
nodes = (
"166 59 LINE",
"77 46 LINE",
"71 0 LINE",
"587 0 LINE",
"612 184 LINE",
"554 184 LINE",
"539 143 LINE SMOOTH",
"512 69 OFFCURVE",
"485 58 OFFCURVE",
"429 58 CURVE SMOOTH",
"256 58 LINE",
"266 328 LINE",
"534 328 LINE",
"539 391 LINE",
"267 391 LINE",
"277 643 LINE",
"431 643 LINE SMOOTH",
"494 643 OFFCURVE",
"513 628 OFFCURVE",
"536 559 CURVE SMOOTH",
"548 523 LINE",
"606 532 LINE",
"590 700 LINE",
"102 700 LINE",
"95 654 LINE",
"189 637 LINE"
);
}
);
};
hints = (
{
place = "{156, 79}";
type = Stem;
},
{
place = "{156, 93}";
type = Stem;
},
{
horizontal = 1;
place = "{320, 63}";
type = Stem;
},
{
horizontal = 1;
place = "{643, 57}";
type = Stem;
},
{
horizontal = 1;
place = "{0, 21}";
target = up;
type = BottomGhost;
}
);
layerId = "D666A065-31E2-40D8-BE19-B3556ED1E29D";
paths = (
{
closed = 1;
nodes = (
"68 0 LINE",
"386 0 LINE",
"392 46 LINE",
"253 58 LINE",
"262 322 LINE",
"521 322 LINE",
"526 383 LINE",
"265 383 LINE",
"274 643 LINE",
"430 643 LINE SMOOTH",
"490 643 OFFCURVE",
"510 628 OFFCURVE",
"534 562 CURVE SMOOTH",
"548 523 LINE",
"605 533 LINE",
"589 700 LINE",
"102 700 LINE",
"95 654 LINE",
"188 637 LINE",
"163 59 LINE",
"74 46 LINE"
);
}
);
width = 618;
},
{
background = {
paths = (
{
closed = 1;
nodes = (
"57 0 LINE",
"342 0 LINE",
"344 18 LINE",
"229 30 LINE",
"243 327 LINE",
"460 327 LINE",
"463 350 LINE",
"244 350 LINE",
"256 677 LINE",
"394 677 LINE SMOOTH",
"456 677 OFFCURVE",
"479 661 OFFCURVE",
"499 594 CURVE SMOOTH",
"519 526 LINE",
"537 528 LINE",
"521 700 LINE",
"89 700 LINE",
"87 683 LINE",
"169 668 LINE",
"143 30 LINE",
"59 18 LINE"
);
}
);
};
hints = (
{
place = "{156, 79}";
type = Stem;
},
{
place = "{156, 93}";
type = Stem;
},
{
horizontal = 1;
place = "{320, 63}";
type = Stem;
},
{
horizontal = 1;
place = "{643, 57}";
type = Stem;
},
{
horizontal = 1;
place = "{0, 21}";
target = up;
type = BottomGhost;
}
);
layerId = "703BE3CC-3FB5-4948-8633-0DF44FA889B7";
paths = (
{
closed = 1;
nodes = (
"57 0 LINE",
"342 0 LINE",
"344 18 LINE",
"229 30 LINE",
"244 347 LINE",
"461 347 LINE",
"464 370 LINE",
"245 370 LINE",
"257 707 LINE",
"395 707 LINE SMOOTH",
"457 707 OFFCURVE",
"480 691 OFFCURVE",
"500 624 CURVE SMOOTH",
"520 556 LINE",
"538 558 LINE",
"522 730 LINE",
"90 730 LINE",
"88 713 LINE",
"170 698 LINE",
"143 30 LINE",
"59 18 LINE"
);
}
);
width = 562;
},
{
background = {
hints = (
{
place = "{156, 79}";
type = Stem;
},
{
place = "{156, 93}";
type = Stem;
},
{
horizontal = 1;
place = "{320, 63}";
type = Stem;
},
{
horizontal = 1;
place = "{643, 57}";
type = Stem;
},
{
horizontal = 1;
place = "{0, 21}";
target = up;
type = BottomGhost;
}
);
paths = (
{
closed = 1;
nodes = (
"58 0 LINE",
"353 0 LINE",
"359 46 LINE",
"230 58 LINE",
"242 320 LINE",
"479 320 LINE",
"484 383 LINE",
"245 383 LINE",
"256 643 LINE",
"395 643 LINE SMOOTH",
"450 643 OFFCURVE",
"468 628 OFFCURVE",
"490 562 CURVE SMOOTH",
"503 523 LINE",
"557 533 LINE",
"543 700 LINE",
"89 700 LINE",
"83 654 LINE",
"169 637 LINE",
"146 59 LINE",
"64 46 LINE"
);
}
);
};
hints = (
{
place = "{156, 79}";
type = Stem;
},
{
place = "{156, 93}";
type = Stem;
},
{
horizontal = 1;
place = "{320, 63}";
type = Stem;
},
{
horizontal = 1;
place = "{643, 57}";
type = Stem;
},
{
horizontal = 1;
place = "{0, 21}";
target = up;
type = BottomGhost;
}
);
layerId = "51A3A961-7A3D-4D9D-A8A6-EF0E27CBF030";
paths = (
{
closed = 1;
nodes = (
"56 0 LINE",
"317 0 LINE",
"320 33 LINE",
"192 45 LINE",
"204 332 LINE",
"466 332 LINE",
"469 372 LINE",
"205 372 LINE",
"216 661 LINE",
"390 661 LINE SMOOTH",
"444 661 OFFCURVE",
"468 655 OFFCURVE",
"485 591 CURVE SMOOTH",
"498 542 LINE",
"533 547 LINE",
"519 700 LINE",
"85 700 LINE",
"81 668 LINE",
"169 655 LINE",
"145 46 LINE",
"60 32 LINE"
);
}
);
width = 540;
},
{
background = {
hints = (
{
place = "{156, 79}";
type = Stem;
},
{
place = "{156, 93}";
type = Stem;
},
{
horizontal = 1;
place = "{320, 63}";
type = Stem;
},
{
horizontal = 1;
place = "{643, 57}";
type = Stem;
},
{
horizontal = 1;
place = "{0, 21}";
target = up;
type = BottomGhost;
}
);
paths = (
{
closed = 1;
nodes = (
"107 96 LINE",
"28 83 LINE",
"19 0 LINE",
"615 0 LINE",
"639 208 LINE",
"529 208 LINE",
"517 167 LINE SMOOTH",
"499 104 OFFCURVE",
"476 95 OFFCURVE",
"417 95 CURVE SMOOTH",
"338 95 LINE",
"349 307 LINE",
"537 307 LINE",
"542 412 LINE",
"352 412 LINE",
"361 606 LINE",
"427 606 LINE SMOOTH",
"484 606 OFFCURVE",
"502 591 OFFCURVE",
"519 534 CURVE SMOOTH",
"530 498 LINE",
"634 507 LINE",
"619 700 LINE",
"52 700 LINE",
"46 623 LINE",
"130 606 LINE"
);
}
);
};
hints = (
{
place = "{156, 79}";
type = Stem;
},
{
place = "{156, 93}";
type = Stem;
},
{
horizontal = 1;
place = "{320, 63}";
type = Stem;
},
{
horizontal = 1;
place = "{643, 57}";
type = Stem;
},
{
horizontal = 1;
place = "{0, 21}";
target = up;
type = BottomGhost;
}
);
layerId = "183D4CB5-BDC3-4BCB-9164-6C94CC175920";
paths = (
{
closed = 1;
nodes = (
"15 0 LINE",
"460 0 LINE",
"467 94 LINE",
"340 107 LINE",
"349 296 LINE",
"531 296 LINE",
"535 403 LINE",
"352 403 LINE",
"361 596 LINE",
"421 596 LINE SMOOTH",
"479 596 OFFCURVE",
"503 586 OFFCURVE",
"517 532 CURVE SMOOTH",
"529 484 LINE",
"635 494 LINE",
"620 700 LINE",
"46 700 LINE",
"40 613 LINE",
"130 596 LINE",
"107 105 LINE",
"20 92 LINE"
);
}
);
width = 640;
}
);
leftMetricsKey = H;
unicode = 0046;
},
{
color = 4;
glyphname = G;
layers = (
{
anchors = (
{
name = bottom;
position = "{359, -30}";
},
{
name = top;
position = "{381, 730}";
}
);
background = {
paths = (
{
closed = 1;
nodes = (
"433 332 LINE",
"427 286 LINE",
"512 266 LINE",
"505 88 LINE",
"470 65 OFFCURVE",
"417 51 OFFCURVE",
"365 51 CURVE SMOOTH",
"237 51 OFFCURVE",
"155 161 OFFCURVE",
"155 333 CURVE SMOOTH",
"155 535 OFFCURVE",
"242 652 OFFCURVE",
"393 652 CURVE SMOOTH",
"482 652 OFFCURVE",
"533 617 OFFCURVE",
"510 571 CURVE SMOOTH",
"493 537 LINE",
"512 518 OFFCURVE",
"538 507 OFFCURVE",
"565 507 CURVE SMOOTH",
"597 507 OFFCURVE",
"620 531 OFFCURVE",
"620 566 CURVE SMOOTH",
"620 650 OFFCURVE",
"522 715 OFFCURVE",
"394 715 CURVE SMOOTH",
"191 715 OFFCURVE",
"61 562 OFFCURVE",
"61 325 CURVE SMOOTH",
"61 118 OFFCURVE",
"178 -14 OFFCURVE",
"361 -14 CURVE SMOOTH",
"438 -14 OFFCURVE",
"532 16 OFFCURVE",
"590 59 CURVE",
"602 332 LINE"
);
}
);
};
hints = (
{
place = "{51, 94}";
type = Stem;
},
{
place = "{498, 88}";
type = Stem;
},
{
horizontal = 1;
place = "{-14, 65}";
type = Stem;
},
{
horizontal = 1;
place = "{507, 208}";
type = Stem;
},
{
horizontal = 1;
place = "{652, 63}";
type = Stem;
}
);
layerId = UUID0;
paths = (
{
closed = 1;
nodes = (
"433 332 LINE",
"427 286 LINE",
"512 266 LINE",
"505 88 LINE",
"470 65 OFFCURVE",
"417 51 OFFCURVE",
"365 51 CURVE SMOOTH",
"237 51 OFFCURVE",
"155 161 OFFCURVE",
"155 333 CURVE SMOOTH",
"155 535 OFFCURVE",
"242 652 OFFCURVE",
"393 652 CURVE SMOOTH",
"482 652 OFFCURVE",
"533 617 OFFCURVE",
"510 571 CURVE SMOOTH",
"493 537 LINE",
"512 518 OFFCURVE",
"538 507 OFFCURVE",
"565 507 CURVE SMOOTH",
"597 507 OFFCURVE",
"620 531 OFFCURVE",
"620 566 CURVE SMOOTH",
"620 650 OFFCURVE",
"522 715 OFFCURVE",
"394 715 CURVE SMOOTH",
"191 715 OFFCURVE",
"61 562 OFFCURVE",
"61 325 CURVE SMOOTH",
"61 118 OFFCURVE",
"178 -14 OFFCURVE",
"361 -14 CURVE SMOOTH",
"438 -14 OFFCURVE",
"532 16 OFFCURVE",
"590 59 CURVE",
"602 332 LINE"
);
}
);
width = 639;
},
{
anchors = (
{
name = bottom;
position = "{393, -30}";
},
{
name = top;
position = "{415, 730}";
}
);
background = {
paths = (
{
closed = 1;
nodes = (
"432 1232 LINE",
"426 1186 LINE",
"511 1166 LINE",
"504 988 LINE",
"469 965 OFFCURVE",
"416 951 OFFCURVE",
"364 951 CURVE SMOOTH",
"236 951 OFFCURVE",
"154 1061 OFFCURVE",
"154 1233 CURVE SMOOTH",
"154 1435 OFFCURVE",
"241 1552 OFFCURVE",
"392 1552 CURVE SMOOTH",
"481 1552 OFFCURVE",
"532 1517 OFFCURVE",
"509 1471 CURVE SMOOTH",
"492 1437 LINE",
"511 1418 OFFCURVE",
"537 1407 OFFCURVE",
"564 1407 CURVE SMOOTH",
"596 1407 OFFCURVE",
"619 1431 OFFCURVE",
"619 1466 CURVE SMOOTH",
"619 1550 OFFCURVE",
"521 1615 OFFCURVE",
"393 1615 CURVE SMOOTH",
"190 1615 OFFCURVE",
"60 1462 OFFCURVE",
"60 1225 CURVE SMOOTH",
"60 1018 OFFCURVE",
"177 886 OFFCURVE",
"360 886 CURVE SMOOTH",
"437 886 OFFCURVE",
"531 916 OFFCURVE",
"589 959 CURVE",
"601 1232 LINE"
);
},
{
closed = 1;
nodes = (
"514 2333 LINE",
"535 2314 OFFCURVE",
"562 2303 OFFCURVE",
"591 2303 CURVE SMOOTH",
"624 2303 OFFCURVE",
"651 2331 OFFCURVE",
"651 2366 CURVE SMOOTH",
"651 2448 OFFCURVE",
"549 2515 OFFCURVE",
"418 2515 CURVE SMOOTH",
"212 2515 OFFCURVE",
"73 2363 OFFCURVE",
"73 2128 CURVE SMOOTH",
"73 1919 OFFCURVE",
"193 1786 OFFCURVE",
"376 1786 CURVE SMOOTH",
"488 1786 OFFCURVE",
"579 1834 OFFCURVE",
"642 1928 CURVE",
"601 1968 LINE",
"540 1890 OFFCURVE",
"473 1855 OFFCURVE",
"386 1855 CURVE SMOOTH",
"255 1855 OFFCURVE",
"171 1965 OFFCURVE",
"171 2137 CURVE SMOOTH",
"171 2338 OFFCURVE",
"260 2452 OFFCURVE",
"413 2452 CURVE SMOOTH",
"507 2452 OFFCURVE",
"557 2415 OFFCURVE",
"534 2371 CURVE SMOOTH"
);
},
{
closed = 1;
nodes = (
"474 332 LINE",
"468 286 LINE",
"562 266 LINE",
"555 88 LINE",
"518 65 OFFCURVE",
"455 53 OFFCURVE",
"400 53 CURVE SMOOTH",
"260 53 OFFCURVE",
"170 161 OFFCURVE",
"170 336 CURVE SMOOTH",
"170 536 OFFCURVE",
"264 652 OFFCURVE",
"427 652 CURVE SMOOTH",
"525 652 OFFCURVE",
"577 614 OFFCURVE",
"553 568 CURVE SMOOTH",
"535 534 LINE",
"556 515 OFFCURVE",
"585 504 OFFCURVE",
"614 504 CURVE SMOOTH",
"647 504 OFFCURVE",
"671 528 OFFCURVE",
"671 563 CURVE SMOOTH",
"671 647 OFFCURVE",
"566 715 OFFCURVE",
"429 715 CURVE SMOOTH",
"212 715 OFFCURVE",
"72 563 OFFCURVE",
"72 328 CURVE SMOOTH",
"72 118 OFFCURVE",
"200 -14 OFFCURVE",
"396 -14 CURVE SMOOTH",
"478 -14 OFFCURVE",
"577 14 OFFCURVE",
"640 58 CURVE",
"652 332 LINE"
);
}
);
};
hints = (
{
place = "{51, 94}";
type = Stem;
},
{
place = "{498, 88}";
type = Stem;
},
{
horizontal = 1;
place = "{-14, 65}";
type = Stem;
},
{
horizontal = 1;
place = "{507, 208}";
type = Stem;
},
{
horizontal = 1;
place = "{652, 63}";
type = Stem;
}
);
layerId = "D666A065-31E2-40D8-BE19-B3556ED1E29D";
paths = (
{
closed = 1;
nodes = (
"474 332 LINE",
"468 286 LINE",
"562 266 LINE",
"555 88 LINE",
"518 65 OFFCURVE",
"455 53 OFFCURVE",
"400 53 CURVE SMOOTH",
"260 53 OFFCURVE",
"170 161 OFFCURVE",
"170 336 CURVE SMOOTH",
"170 536 OFFCURVE",
"264 652 OFFCURVE",
"427 652 CURVE SMOOTH",
"525 652 OFFCURVE",
"577 614 OFFCURVE",
"553 568 CURVE SMOOTH",
"535 534 LINE",
"555 515 OFFCURVE",
"579 501 OFFCURVE",
"612 501 CURVE SMOOTH",
"647 501 OFFCURVE",
"671 523 OFFCURVE",
"671 563 CURVE SMOOTH",
"671 647 OFFCURVE",
"566 715 OFFCURVE",
"429 715 CURVE SMOOTH",
"212 715 OFFCURVE",
"72 563 OFFCURVE",
"72 328 CURVE SMOOTH",
"72 118 OFFCURVE",
"200 -14 OFFCURVE",
"396 -14 CURVE SMOOTH",
"478 -14 OFFCURVE",
"577 14 OFFCURVE",
"640 58 CURVE",
"652 332 LINE"
);
}
);
width = 697;
},
{
anchors = (
{
name = bottom;
position = "{358, -30}";
},
{
name = top;
position = "{380, 730}";
}
);
background = {
paths = (
{
closed = 1;
nodes = (
"432 332 LINE",
"426 286 LINE",
"511 266 LINE",
"504 62 LINE",
"469 39 OFFCURVE",
"416 25 OFFCURVE",
"363 25 CURVE SMOOTH",
"236 25 OFFCURVE",
"153 135 OFFCURVE",
"154 348 CURVE SMOOTH",
"155 605 OFFCURVE",
"231 722 OFFCURVE",
"387 722 CURVE SMOOTH",
"488 722 OFFCURVE",
"528 647 OFFCURVE",
"505 601 CURVE SMOOTH",
"488 567 LINE",
"507 550 OFFCURVE",
"528 541 OFFCURVE",
"555 541 CURVE SMOOTH",
"584 541 OFFCURVE",
"607 561 OFFCURVE",
"607 596 CURVE SMOOTH",
"607 680 OFFCURVE",
"522 745 OFFCURVE",
"391 745 CURVE SMOOTH",
"181 745 OFFCURVE",
"61 592 OFFCURVE",
"60 340 CURVE SMOOTH",
"59 118 OFFCURVE",
"177 -14 OFFCURVE",
"359 -14 CURVE SMOOTH",
"437 -14 OFFCURVE",
"531 26 OFFCURVE",
"589 69 CURVE",
"601 332 LINE"
);
}
);
};
hints = (
{
place = "{51, 94}";
type = Stem;
},
{
place = "{498, 88}";
type = Stem;
},
{
horizontal = 1;
place = "{-14, 65}";
type = Stem;
},
{
horizontal = 1;
place = "{507, 208}";
type = Stem;
},
{
horizontal = 1;
place = "{652, 63}";
type = Stem;
}
);
layerId = "703BE3CC-3FB5-4948-8633-0DF44FA889B7";
paths = (
{
closed = 1;
nodes = (
"425 326 LINE",
"423 308 LINE",
"512 293 LINE",
"504 47 LINE",
"469 28 OFFCURVE",
"416 14 OFFCURVE",
"363 14 CURVE SMOOTH",
"241 14 OFFCURVE",
"153 120 OFFCURVE",
"154 348 CURVE SMOOTH",
"155 605 OFFCURVE",
"231 722 OFFCURVE",
"387 722 CURVE SMOOTH",
"488 722 OFFCURVE",
"528 647 OFFCURVE",
"505 601 CURVE SMOOTH",
"488 567 LINE",
"507 550 OFFCURVE",
"528 541 OFFCURVE",
"555 541 CURVE SMOOTH",
"584 541 OFFCURVE",
"607 561 OFFCURVE",
"607 596 CURVE SMOOTH",
"607 680 OFFCURVE",
"522 745 OFFCURVE",
"391 745 CURVE SMOOTH",
"181 745 OFFCURVE",
"61 592 OFFCURVE",
"60 340 CURVE SMOOTH",
"59 113 OFFCURVE",
"177 -14 OFFCURVE",
"359 -14 CURVE SMOOTH",
"442 -14 OFFCURVE",
"531 21 OFFCURVE",
"589 55 CURVE",
"599 326 LINE"
);
}
);
width = 645;
},
{
anchors = (
{
name = bottom;
position = "{346, -30}";
},
{
name = top;
position = "{376, 730}";
}
);
background = {
anchors = (
{
name = bottom;
position = "{361, -30}";
},
{
name = top;
position = "{383, 730}";
}
);
hints = (
{
place = "{51, 94}";
type = Stem;
},
{
place = "{498, 88}";
type = Stem;
},
{
horizontal = 1;
place = "{-14, 65}";
type = Stem;
},
{
horizontal = 1;
place = "{507, 208}";
type = Stem;
},
{
horizontal = 1;
place = "{652, 63}";
type = Stem;
}
);
paths = (
{
closed = 1;
nodes = (
"-198 332 LINE",
"-204 286 LINE",
"-119 266 LINE",
"-126 88 LINE",
"-161 65 OFFCURVE",
"-214 51 OFFCURVE",
"-266 51 CURVE SMOOTH",
"-394 51 OFFCURVE",
"-476 161 OFFCURVE",
"-476 333 CURVE SMOOTH",
"-476 535 OFFCURVE",
"-389 652 OFFCURVE",
"-238 652 CURVE SMOOTH",
"-149 652 OFFCURVE",
"-98 617 OFFCURVE",
"-121 571 CURVE SMOOTH",
"-138 537 LINE",
"-119 518 OFFCURVE",
"-93 507 OFFCURVE",
"-66 507 CURVE SMOOTH",
"-34 507 OFFCURVE",
"-11 531 OFFCURVE",
"-11 566 CURVE SMOOTH",
"-11 650 OFFCURVE",
"-109 715 OFFCURVE",
"-237 715 CURVE SMOOTH",
"-440 715 OFFCURVE",
"-570 562 OFFCURVE",
"-570 325 CURVE SMOOTH",
"-570 118 OFFCURVE",
"-453 -14 OFFCURVE",
"-270 -14 CURVE SMOOTH",
"-193 -14 OFFCURVE",
"-99 16 OFFCURVE",
"-41 59 CURVE",
"-29 332 LINE"
);
},
{
closed = 1;
nodes = (
"437 330 LINE",
"433 298 LINE",
"521 285 LINE",
"513 75 LINE",
"478 52 OFFCURVE",
"420 30 OFFCURVE",
"343 30 CURVE SMOOTH",
"215 30 OFFCURVE",
"118 145 OFFCURVE",
"118 331 CURVE SMOOTH",
"118 536 OFFCURVE",
"216 670 OFFCURVE",
"378 670 CURVE SMOOTH",
"475 670 OFFCURVE",
"523 633 OFFCURVE",
"497 581 CURVE SMOOTH",
"484 555 LINE",
"500 539 OFFCURVE",
"516 530 OFFCURVE",
"540 530 CURVE SMOOTH",
"566 530 OFFCURVE",
"588 550 OFFCURVE",
"588 582 CURVE SMOOTH",
"588 651 OFFCURVE",
"499 715 OFFCURVE",
"379 715 CURVE SMOOTH",
"184 715 OFFCURVE",
"67 564 OFFCURVE",
"67 326 CURVE SMOOTH",
"67 113 OFFCURVE",
"188 -14 OFFCURVE",
"339 -14 CURVE SMOOTH",
"423 -14 OFFCURVE",
"498 13 OFFCURVE",
"559 57 CURVE",
"570 330 LINE"
);
}
);
};
hints = (
{
place = "{51, 94}";
type = Stem;
},
{
place = "{498, 88}";
type = Stem;
},
{
horizontal = 1;
place = "{-14, 65}";
type = Stem;
},
{
horizontal = 1;
place = "{507, 208}";
type = Stem;
},
{
horizontal = 1;
place = "{652, 63}";
type = Stem;
}
);
layerId = "51A3A961-7A3D-4D9D-A8A6-EF0E27CBF030";
paths = (
{
closed = 1;
nodes = (
"444 330 LINE",
"440 298 LINE",
"528 285 LINE",
"520 75 LINE",
"485 52 OFFCURVE",
"420 28 OFFCURVE",
"353 28 CURVE SMOOTH",
"215 28 OFFCURVE",
"118 145 OFFCURVE",
"118 331 CURVE SMOOTH",
"118 536 OFFCURVE",
"216 670 OFFCURVE",
"378 670 CURVE SMOOTH",
"478 670 OFFCURVE",
"537 636 OFFCURVE",
"513 587 CURVE SMOOTH",
"500 561 LINE",
"514 545 OFFCURVE",
"530 536 OFFCURVE",
"551 536 CURVE SMOOTH",
"578 536 OFFCURVE",
"595 554 OFFCURVE",
"595 584 CURVE SMOOTH",
"595 649 OFFCURVE",
"507 715 OFFCURVE",
"379 715 CURVE SMOOTH",
"184 715 OFFCURVE",
"67 564 OFFCURVE",
"67 326 CURVE SMOOTH",
"67 113 OFFCURVE",
"188 -14 OFFCURVE",
"353 -14 CURVE SMOOTH",
"430 -14 OFFCURVE",
"505 10 OFFCURVE",
"566 54 CURVE",
"577 330 LINE"
);
}
);
width = 628;
},
{
anchors = (
{
name = bottom;
position = "{411, -30}";
},
{
name = top;
position = "{410, 730}";
}
);
background = {
hints = (
{
place = "{51, 94}";
type = Stem;
},
{
place = "{498, 88}";
type = Stem;
},
{
horizontal = 1;
place = "{-14, 65}";
type = Stem;
},
{
horizontal = 1;
place = "{507, 208}";
type = Stem;
},
{
horizontal = 1;
place = "{652, 63}";
type = Stem;
}
);
paths = (
{
closed = 1;
nodes = (
"432 340 LINE",
"420 250 LINE",
"508 232 LINE",
"504 131 LINE",
"478 114 OFFCURVE",
"442 104 OFFCURVE",
"408 104 CURVE SMOOTH",
"318 104 OFFCURVE",
"275 162 OFFCURVE",
"275 325 CURVE SMOOTH",
"275 514 OFFCURVE",
"332 613 OFFCURVE",
"452 613 CURVE SMOOTH",
"541 613 OFFCURVE",
"562 577 OFFCURVE",
"540 526 CURVE SMOOTH",
"519 478 LINE",
"541 451 OFFCURVE",
"588 430 OFFCURVE",
"623 430 CURVE SMOOTH",
"671 430 OFFCURVE",
"715 471 OFFCURVE",
"715 533 CURVE SMOOTH",
"715 640 OFFCURVE",
"614 715 OFFCURVE",
"439 715 CURVE SMOOTH",
"189 715 OFFCURVE",
"38 571 OFFCURVE",
"38 313 CURVE SMOOTH",
"38 98 OFFCURVE",
"172 -14 OFFCURVE",
"388 -14 CURVE SMOOTH",
"511 -14 OFFCURVE",
"653 37 OFFCURVE",
"707 84 CURVE",
"719 340 LINE"
);
}
);
};
hints = (
{
place = "{51, 94}";
type = Stem;
},
{
place = "{498, 88}";
type = Stem;
},
{
horizontal = 1;
place = "{-14, 65}";
type = Stem;
},
{
horizontal = 1;
place = "{507, 208}";
type = Stem;
},
{
horizontal = 1;
place = "{652, 63}";
type = Stem;
}
);
layerId = "183D4CB5-BDC3-4BCB-9164-6C94CC175920";
paths = (
{
closed = 1;
nodes = (
"426 340 LINE",
"414 250 LINE",
"502 232 LINE",
"498 131 LINE",
"472 114 OFFCURVE",
"440 105 OFFCURVE",
"406 105 CURVE SMOOTH",
"316 105 OFFCURVE",
"275 162 OFFCURVE",
"275 325 CURVE SMOOTH",
"275 514 OFFCURVE",
"332 613 OFFCURVE",
"452 613 CURVE SMOOTH",
"535 613 OFFCURVE",
"556 577 OFFCURVE",
"534 526 CURVE SMOOTH",
"513 478 LINE",
"535 451 OFFCURVE",
"582 430 OFFCURVE",
"617 430 CURVE SMOOTH",
"665 430 OFFCURVE",
"709 471 OFFCURVE",
"709 533 CURVE SMOOTH",
"709 640 OFFCURVE",
"608 715 OFFCURVE",
"439 715 CURVE SMOOTH",
"189 715 OFFCURVE",
"38 571 OFFCURVE",
"38 313 CURVE SMOOTH",
"38 98 OFFCURVE",
"166 -14 OFFCURVE",
"388 -14 CURVE SMOOTH",
"511 -14 OFFCURVE",
"647 32 OFFCURVE",
"701 79 CURVE",
"713 340 LINE"
);
}
);
width = 745;
}
);
leftKerningGroup = O;
leftMetricsKey = O;
rightKerningGroup = G;
unicode = 0047;
},
{
color = 4;
glyphname = H;
layers = (
{
anchors = (
{
name = bottom;
position = "{381, -30}";
},
{
name = top;
position = "{411, 730}";
}
);
background = {
paths = (
{
closed = 1;
nodes = (
"338 0 LINE",
"338 48 LINE",
"282 57 LINE SMOOTH",
"253 62 OFFCURVE",
"250 73 OFFCURVE",
"250 104 CURVE SMOOTH",
"250 328 LINE",
"590 328 LINE",
"590 108 LINE SMOOTH",
"590 78 OFFCURVE",
"588 62 OFFCURVE",
"559 57 CURVE SMOOTH",
"502 48 LINE",
"502 0 LINE",
"777 0 LINE",
"777 48 LINE",
"722 57 LINE SMOOTH",
"692 62 OFFCURVE",
"689 73 OFFCURVE",
"689 104 CURVE SMOOTH",
"689 592 LINE SMOOTH",
"689 622 OFFCURVE",
"691 638 OFFCURVE",
"720 643 CURVE SMOOTH",
"777 652 LINE",
"777 700 LINE",
"502 700 LINE",
"502 652 LINE",
"557 643 LINE SMOOTH",
"587 638 OFFCURVE",
"590 627 OFFCURVE",
"590 596 CURVE SMOOTH",
"590 391 LINE",
"250 391 LINE",
"250 592 LINE SMOOTH",
"250 622 OFFCURVE",
"252 638 OFFCURVE",
"280 643 CURVE SMOOTH",
"338 652 LINE",
"338 700 LINE",
"62 700 LINE",
"62 652 LINE",
"118 643 LINE SMOOTH",
"148 638 OFFCURVE",
"151 627 OFFCURVE",
"151 596 CURVE SMOOTH",
"151 108 LINE SMOOTH",
"151 78 OFFCURVE",
"149 62 OFFCURVE",
"120 57 CURVE SMOOTH",
"62 48 LINE",
"62 0 LINE"
);
}
);
};
hints = (
{
place = "{156, 88}";
type = Stem;
},
{
place = "{216, 28}";
type = Stem;
},
{
place = "{558, 55}";
type = Stem;
},
{
place = "{558, 87}";
type = Stem;
},
{
horizontal = 1;
place = "{328, 63}";
type = Stem;
},
{
horizontal = 1;
place = "{0, 21}";
target = up;
type = BottomGhost;
},
{
horizontal = 1;
place = "{700, -20}";
target = down;
type = TopGhost;
}
);
layerId = UUID0;
paths = (
{
closed = 1;
nodes = (
"546 59 LINE",
"464 46 LINE",
"458 0 LINE",
"723 0 LINE",
"729 46 LINE",
"634 59 LINE",
"656 637 LINE",
"741 654 LINE",
"747 700 LINE",
"490 700 LINE",
"484 654 LINE",
"570 637 LINE",
"559 391 LINE",
"245 391 LINE",
"255 637 LINE",
"340 654 LINE",
"346 700 LINE",
"88 700 LINE",
"82 654 LINE",
"168 637 LINE",
"145 59 LINE",
"63 46 LINE",
"57 0 LINE",
"322 0 LINE",
"328 46 LINE",
"233 59 LINE",
"243 328 LINE",
"557 328 LINE"
);
}
);
width = 769;
},
{
anchors = (
{
name = bottom;
position = "{418, -30}";
},
{
name = top;
position = "{448, 730}";
}
);
background = {
paths = (
{
closed = 1;
nodes = (
"338 0 LINE",
"338 48 LINE",
"282 57 LINE SMOOTH",
"253 62 OFFCURVE",
"250 73 OFFCURVE",
"250 104 CURVE SMOOTH",
"250 328 LINE",
"590 328 LINE",
"590 108 LINE SMOOTH",
"590 78 OFFCURVE",
"588 62 OFFCURVE",
"559 57 CURVE SMOOTH",
"502 48 LINE",
"502 0 LINE",
"777 0 LINE",
"777 48 LINE",
"722 57 LINE SMOOTH",
"692 62 OFFCURVE",
"689 73 OFFCURVE",
"689 104 CURVE SMOOTH",
"689 592 LINE SMOOTH",
"689 622 OFFCURVE",
"691 638 OFFCURVE",
"720 643 CURVE SMOOTH",
"777 652 LINE",
"777 700 LINE",
"502 700 LINE",
"502 652 LINE",
"557 643 LINE SMOOTH",
"587 638 OFFCURVE",
"590 627 OFFCURVE",
"590 596 CURVE SMOOTH",
"590 391 LINE",
"250 391 LINE",
"250 592 LINE SMOOTH",
"250 622 OFFCURVE",
"252 638 OFFCURVE",
"280 643 CURVE SMOOTH",
"338 652 LINE",
"338 700 LINE",
"62 700 LINE",
"62 652 LINE",
"118 643 LINE SMOOTH",
"148 638 OFFCURVE",
"151 627 OFFCURVE",
"151 596 CURVE SMOOTH",
"151 108 LINE SMOOTH",
"151 78 OFFCURVE",
"149 62 OFFCURVE",
"120 57 CURVE SMOOTH",
"62 48 LINE",
"62 0 LINE"
);
}
);
};
hints = (
{
place = "{156, 88}";
type = Stem;
},
{
place = "{216, 28}";
type = Stem;
},
{
place = "{558, 55}";
type = Stem;
},
{
place = "{558, 87}";
type = Stem;
},
{
horizontal = 1;
place = "{328, 63}";
type = Stem;
},
{
horizontal = 1;
place = "{0, 21}";
target = up;
type = BottomGhost;
},
{
horizontal = 1;
place = "{700, -20}";
target = down;
type = TopGhost;
}
);
layerId = "D666A065-31E2-40D8-BE19-B3556ED1E29D";
paths = (
{
closed = 1;
nodes = (
"600 59 LINE",
"511 46 LINE",
"505 0 LINE",
"786 0 LINE",
"792 46 LINE",
"689 59 LINE",
"711 637 LINE",
"803 654 LINE",
"809 700 LINE",
"536 700 LINE",
"530 654 LINE",
"623 637 LINE",
"612 391 LINE",
"267 391 LINE",
"277 637 LINE",
"369 654 LINE",
"376 700 LINE",
"102 700 LINE",
"95 654 LINE",
"189 637 LINE",
"166 59 LINE",
"77 46 LINE",
"71 0 LINE",
"353 0 LINE",
"359 46 LINE",
"256 59 LINE",
"266 328 LINE",
"610 328 LINE"
);
}
);
width = 842;
},
{
anchors = (
{
name = bottom;
position = "{381, -30}";
},
{
name = top;
position = "{411, 730}";
}
);
background = {
paths = (
{
closed = 1;
nodes = (
"544 30 LINE",
"460 18 LINE",
"458 0 LINE",
"723 0 LINE",
"725 18 LINE",
"632 30 LINE",
"657 668 LINE",
"746 683 LINE",
"748 700 LINE",
"491 700 LINE",
"489 683 LINE",
"571 668 LINE",
"558 371 LINE",
"244 371 LINE",
"256 668 LINE",
"345 683 LINE",
"347 700 LINE",
"89 700 LINE",
"87 683 LINE",
"169 668 LINE",
"143 30 LINE",
"59 18 LINE",
"57 0 LINE",
"322 0 LINE",
"324 18 LINE",
"231 30 LINE",
"244 348 LINE",
"558 348 LINE"
);
}
);
};
hints = (
{
place = "{156, 88}";
type = Stem;
},
{
place = "{216, 28}";
type = Stem;
},
{
place = "{558, 55}";
type = Stem;
},
{
place = "{558, 87}";
type = Stem;
},
{
horizontal = 1;
place = "{328, 63}";
type = Stem;
},
{
horizontal = 1;
place = "{0, 21}";
target = up;
type = BottomGhost;
},
{
horizontal = 1;
place = "{700, -20}";
target = down;
type = TopGhost;
}
);
layerId = "703BE3CC-3FB5-4948-8633-0DF44FA889B7";
paths = (
{
closed = 1;
nodes = (
"544 30 LINE",
"460 18 LINE",
"458 0 LINE",
"723 0 LINE",
"725 18 LINE",
"632 30 LINE",
"658 698 LINE",
"747 713 LINE",
"749 730 LINE",
"492 730 LINE",
"490 713 LINE",
"572 698 LINE",
"559 386 LINE",
"245 386 LINE",
"257 698 LINE",
"346 713 LINE",
"348 730 LINE",
"90 730 LINE",
"88 713 LINE",
"170 698 LINE",
"143 30 LINE",
"59 18 LINE",
"57 0 LINE",
"322 0 LINE",
"324 18 LINE",
"231 30 LINE",
"245 363 LINE",
"559 363 LINE"
);
}
);
width = 769;
},
{
anchors = (
{
name = bottom;
position = "{359, -30}";
},
{
name = top;
position = "{393, 730}";
}
);
background = {
anchors = (
{
name = bottom;
position = "{379, -30}";
},
{
name = top;
position = "{409, 730}";
}
);
hints = (
{
place = "{156, 88}";
type = Stem;
},
{
place = "{216, 28}";
type = Stem;
},
{
place = "{558, 55}";
type = Stem;
},
{
place = "{558, 87}";
type = Stem;
},
{
horizontal = 1;
place = "{328, 63}";
type = Stem;
},
{
horizontal = 1;
place = "{0, 21}";
target = up;
type = BottomGhost;
},
{
horizontal = 1;
place = "{700, -20}";
target = down;
type = TopGhost;
}
);
paths = (
{
closed = 1;
nodes = (
"544 59 LINE",
"462 46 LINE",
"456 0 LINE",
"721 0 LINE",
"727 46 LINE",
"632 59 LINE",
"654 637 LINE",
"739 654 LINE",
"745 700 LINE",
"488 700 LINE",
"482 654 LINE",
"568 637 LINE",
"557 391 LINE",
"243 391 LINE",
"253 637 LINE",
"338 654 LINE",
"344 700 LINE",
"86 700 LINE",
"80 654 LINE",
"166 637 LINE",
"143 59 LINE",
"61 46 LINE",
"55 0 LINE",
"320 0 LINE",
"326 46 LINE",
"231 59 LINE",
"241 328 LINE",
"555 328 LINE"
);
}
);
};
hints = (
{
place = "{156, 88}";
type = Stem;
},
{
place = "{216, 28}";
type = Stem;
},
{
place = "{558, 55}";
type = Stem;
},
{
place = "{558, 87}";
type = Stem;
},
{
horizontal = 1;
place = "{328, 63}";
type = Stem;
},
{
horizontal = 1;
place = "{0, 21}";
target = up;
type = BottomGhost;
},
{
horizontal = 1;
place = "{700, -20}";
target = down;
type = TopGhost;
}
);
layerId = "51A3A961-7A3D-4D9D-A8A6-EF0E27CBF030";
paths = (
{
closed = 1;
nodes = (
"538 46 LINE",
"454 33 LINE",
"450 0 LINE",
"679 0 LINE",
"683 33 LINE",
"587 46 LINE",
"612 655 LINE",
"697 668 LINE",
"700 700 LINE",
"480 700 LINE",
"476 668 LINE",
"563 655 LINE",
"550 380 LINE",
"205 380 LINE",
"217 655 LINE",
"303 668 LINE",
"306 700 LINE",
"85 700 LINE",
"81 668 LINE",
"168 655 LINE",
"144 46 LINE",
"60 32 LINE",
"56 0 LINE",
"285 0 LINE",
"289 33 LINE",
"193 46 LINE",
"204 341 LINE",
"549 341 LINE"
);
}
);
width = 726;
},
{
anchors = (
{
name = bottom;
position = "{420, -30}";
},
{
name = top;
position = "{437, 730}";
}
);
background = {
hints = (
{
place = "{156, 88}";
type = Stem;
},
{
place = "{216, 28}";
type = Stem;
},
{
place = "{558, 55}";
type = Stem;
},
{
place = "{558, 87}";
type = Stem;
},
{
horizontal = 1;
place = "{328, 63}";
type = Stem;
},
{
horizontal = 1;
place = "{0, 21}";
target = up;
type = BottomGhost;
},
{
horizontal = 1;
place = "{700, -20}";
target = down;
type = TopGhost;
}
);
paths = (
{
closed = 1;
nodes = (
"522 94 LINE",
"450 82 LINE",
"444 0 LINE",
"839 0 LINE",
"845 84 LINE",
"753 97 LINE",
"777 605 LINE",
"857 619 LINE",
"862 700 LINE",
"484 700 LINE",
"479 622 LINE",
"546 605 LINE",
"537 404 LINE",
"344 404 LINE",
"353 608 LINE",
"422 622 LINE",
"426 700 LINE",
"45 700 LINE",
"40 624 LINE",
"122 607 LINE",
"98 92 LINE",
"20 81 LINE",
"14 0 LINE",
"393 0 LINE",
"399 82 LINE",
"329 97 LINE",
"339 301 LINE",
"533 301 LINE"
);
}
);
};
hints = (
{
place = "{156, 88}";
type = Stem;
},
{
place = "{216, 28}";
type = Stem;
},
{
place = "{558, 55}";
type = Stem;
},
{
place = "{558, 87}";
type = Stem;
},
{
horizontal = 1;
place = "{328, 63}";
type = Stem;
},
{
horizontal = 1;
place = "{0, 21}";
target = up;
type = BottomGhost;
},
{
horizontal = 1;
place = "{700, -20}";
target = down;
type = TopGhost;
}
);
layerId = "183D4CB5-BDC3-4BCB-9164-6C94CC175920";
paths = (
{
closed = 1;
nodes = (
"509 104 LINE",
"442 92 LINE",
"436 0 LINE",
"824 0 LINE",
"830 94 LINE",
"740 107 LINE",
"764 595 LINE",
"844 609 LINE",
"849 700 LINE",
"471 700 LINE",
"466 612 LINE",
"533 595 LINE",
"524 408 LINE",
"344 408 LINE",
"353 598 LINE",
"422 612 LINE",
"426 700 LINE",
"45 700 LINE",
"40 614 LINE",
"122 597 LINE",
"98 102 LINE",
"20 91 LINE",
"14 0 LINE",
"393 0 LINE",
"399 92 LINE",
"329 107 LINE",
"339 299 LINE",
"520 299 LINE"
);
}
);
width = 849;
}
);
leftKerningGroup = H;
rightKerningGroup = H;
unicode = 0048;
},
{
color = 4;
glyphname = I;
layers = (
{
anchors = (
{
name = bottom;
position = "{186, -30}";
},
{
name = top;
position = "{212, 730}";
}
);
background = {
paths = (
{
closed = 1;
nodes = (
"342 0 LINE",
"342 48 LINE",
"281 57 LINE SMOOTH",
"252 62 OFFCURVE",
"249 73 OFFCURVE",
"249 104 CURVE SMOOTH",
"249 592 LINE SMOOTH",
"249 622 OFFCURVE",
"251 638 OFFCURVE",
"279 643 CURVE SMOOTH",
"342 652 LINE",
"342 700 LINE",
"57 700 LINE",
"57 652 LINE",
"117 643 LINE SMOOTH",
"147 638 OFFCURVE",
"150 627 OFFCURVE",
"150 596 CURVE SMOOTH",
"150 108 LINE",
"150 78 OFFCURVE",
"148 62 OFFCURVE",
"119 57 CURVE SMOOTH",
"57 48 LINE",
"57 0 LINE"
);
}
);
};
hints = (
{
place = "{156, 87}";
type = Stem;
},
{
horizontal = 1;
place = "{0, 21}";
target = up;
type = BottomGhost;
},
{
horizontal = 1;
place = "{700, -20}";
target = down;
type = TopGhost;
}
);
layerId = UUID0;
paths = (
{
closed = 1;
nodes = (
"143 59 LINE",
"61 46 LINE",
"55 0 LINE",
"320 0 LINE",
"326 46 LINE",
"231 59 LINE",
"253 637 LINE",
"338 654 LINE",
"344 700 LINE",
"88 700 LINE",
"82 654 LINE",
"168 637 LINE"
);
}
);
width = 366;
},
{
anchors = (
{
name = bottom;
position = "{208, -30}";
},
{
name = top;
position = "{232, 730}";
}
);
background = {
paths = (
{
closed = 1;
nodes = (
"341 1248 LINE",
"347 1494 LINE",
"439 1513 LINE",
"445 1559 LINE",
"171 1554 LINE",
"165 1508 LINE",
"259 1493 LINE",
"245 914 LINE",
"156 900 LINE",
"151 854 LINE",
"433 858 LINE",
"438 905 LINE",
"335 916 LINE",
"341 1185 LINE"
);
},
{
closed = 0;
nodes = (
"266 391 LINE",
"276 637 LINE",
"368 654 LINE",
"375 700 LINE",
"101 700 LINE",
"94 654 LINE",
"188 637 LINE",
"165 59 LINE",
"76 46 LINE",
"70 0 LINE",
"352 0 LINE",
"358 46 LINE",
"255 59 LINE",
"265 328 LINE"
);
}
);
};
hints = (
{
place = "{156, 87}";
type = Stem;
},
{
horizontal = 1;
place = "{0, 21}";
target = up;
type = BottomGhost;
},
{
horizontal = 1;
place = "{700, -20}";
target = down;
type = TopGhost;
}
);
layerId = "D666A065-31E2-40D8-BE19-B3556ED1E29D";
paths = (
{
closed = 1;
nodes = (
"163 59 LINE",
"74 46 LINE",
"68 0 LINE",
"350 0 LINE",
"356 46 LINE",
"253 59 LINE",
"274 637 LINE",
"366 654 LINE",
"373 700 LINE",
"101 700 LINE",
"95 654 LINE",
"188 637 LINE"
);
}
);
width = 406;
},
{
anchors = (
{
name = bottom;
position = "{187, -30}";
},
{
name = top;
position = "{213, 730}";
}
);
background = {
paths = (
{
closed = 1;
nodes = (
"143 30 LINE",
"59 18 LINE",
"56 0 LINE",
"322 0 LINE",
"324 18 LINE",
"231 30 LINE",
"256 668 LINE",
"345 683 LINE",
"347 700 LINE",
"89 700 LINE",
"87 683 LINE",
"169 668 LINE"
);
}
);
};
hints = (
{
place = "{156, 87}";
type = Stem;
},
{
horizontal = 1;
place = "{0, 21}";
target = up;
type = BottomGhost;
},
{
horizontal = 1;
place = "{700, -20}";
target = down;
type = TopGhost;
}
);
layerId = "703BE3CC-3FB5-4948-8633-0DF44FA889B7";
paths = (
{
closed = 1;
nodes = (
"143 30 LINE",
"59 18 LINE",
"56 0 LINE",
"322 0 LINE",
"324 18 LINE",
"231 30 LINE",
"257 698 LINE",
"346 713 LINE",
"348 730 LINE",
"90 730 LINE",
"88 713 LINE",
"170 698 LINE"
);
}
);
width = 368;
},
{
anchors = (
{
name = bottom;
position = "{172, -30}";
},
{
name = top;
position = "{194, 730}";
}
);
background = {
anchors = (
{
name = bottom;
position = "{184, -30}";
},
{
name = top;
position = "{210, 730}";
}
);
hints = (
{
place = "{156, 87}";
type = Stem;
},
{
horizontal = 1;
place = "{0, 21}";
target = up;
type = BottomGhost;
},
{
horizontal = 1;
place = "{700, -20}";
target = down;
type = TopGhost;
}
);
paths = (
{
closed = 1;
nodes = (
"641 59 LINE",
"559 46 LINE",
"553 0 LINE",
"818 0 LINE",
"824 46 LINE",
"729 59 LINE",
"751 637 LINE",
"836 654 LINE",
"842 700 LINE",
"586 700 LINE",
"580 654 LINE",
"666 637 LINE"
);
},
{
closed = 1;
nodes = (
"548 46 LINE",
"464 33 LINE",
"460 0 LINE",
"689 0 LINE",
"693 33 LINE",
"597 46 LINE",
"622 655 LINE",
"707 668 LINE",
"710 700 LINE",
"490 700 LINE",
"486 668 LINE",
"573 655 LINE",
"560 380 LINE",
"205 380 LINE",
"217 655 LINE",
"303 668 LINE",
"306 700 LINE",
"85 700 LINE",
"81 668 LINE",
"168 655 LINE",
"144 46 LINE",
"60 32 LINE",
"56 0 LINE",
"285 0 LINE",
"289 33 LINE",
"193 46 LINE",
"204 341 LINE",
"559 341 LINE"
);
}
);
};
hints = (
{
place = "{156, 87}";
type = Stem;
},
{
horizontal = 1;
place = "{0, 21}";
target = up;
type = BottomGhost;
},
{
horizontal = 1;
place = "{700, -20}";
target = down;
type = TopGhost;
}
);
layerId = "51A3A961-7A3D-4D9D-A8A6-EF0E27CBF030";
paths = (
{
closed = 1;
nodes = (
"145 46 LINE",
"60 32 LINE",
"56 0 LINE",
"286 0 LINE",
"289 33 LINE",
"192 45 LINE",
"216 655 LINE",
"303 668 LINE",
"306 700 LINE",
"85 700 LINE",
"81 668 LINE",
"169 655 LINE"
);
}
);
width = 332;
},
{
anchors = (
{
name = bottom;
position = "{215, -30}";
},
{
name = top;
position = "{249, 730}";
}
);
background = {
anchors = (
{
name = bottom;
position = "{165, -30}";
},
{
name = top;
position = "{191, 730}";
}
);
hints = (
{
place = "{156, 87}";
type = Stem;
},
{
horizontal = 1;
place = "{0, 21}";
target = up;
type = BottomGhost;
},
{
horizontal = 1;
place = "{700, -20}";
target = down;
type = TopGhost;
}
);
paths = (
{
closed = 1;
nodes = (
"122 59 LINE",
"40 46 LINE",
"34 0 LINE",
"299 0 LINE",
"305 46 LINE",
"210 59 LINE",
"232 637 LINE",
"317 654 LINE",
"323 700 LINE",
"67 700 LINE",
"61 654 LINE",
"147 637 LINE"
);
}
);
};
hints = (
{
place = "{156, 87}";
type = Stem;
},
{
horizontal = 1;
place = "{0, 21}";
target = up;
type = BottomGhost;
},
{
horizontal = 1;
place = "{700, -20}";
target = down;
type = TopGhost;
}
);
layerId = "183D4CB5-BDC3-4BCB-9164-6C94CC175920";
paths = (
{
closed = 1;
nodes = (
"104 105 LINE",
"20 95 LINE",
"16 0 LINE",
"429 0 LINE",
"433 95 LINE",
"335 108 LINE",
"358 597 LINE",
"444 611 LINE",
"452 700 LINE",
"46 700 LINE",
"39 611 LINE",
"127 594 LINE"
);
}
);
width = 453;
}
);
leftKerningGroup = H;
leftMetricsKey = H;
rightKerningGroup = H;
rightMetricsKey = H;
unicode = 0049;
},
{
color = 4;
glyphname = J;
layers = (
{
anchors = (
{
name = top;
position = "{216, 730}";
}
);
background = {
paths = (
{
closed = 1;
nodes = (
"411 -14 OFFCURVE",
"447 120 OFFCURVE",
"447 224 CURVE SMOOTH",
"447 592 LINE",
"447 622 OFFCURVE",
"449 639 OFFCURVE",
"477 643 CURVE SMOOTH",
"540 652 LINE",
"540 700 LINE",
"245 700 LINE",
"245 651 LINE",
"315 641 LINE SMOOTH",
"345 637 OFFCURVE",
"348 625 OFFCURVE",
"348 594 CURVE",
"348 201 LINE SMOOTH",
"348 101 OFFCURVE",
"317 50 OFFCURVE",
"243 50 CURVE SMOOTH",
"204 50 OFFCURVE",
"176 65 OFFCURVE",
"166 74 CURVE",
"190 114 OFFCURVE",
"196 128 OFFCURVE",
"196 145 CURVE SMOOTH",
"196 170 OFFCURVE",
"177 190 OFFCURVE",
"133 190 CURVE SMOOTH",
"87 190 OFFCURVE",
"58 152 OFFCURVE",
"58 108 CURVE SMOOTH",
"58 28 OFFCURVE",
"145 -14 OFFCURVE",
"237 -14 CURVE SMOOTH"
);
}
);
};
hints = (
{
place = "{144, 99}";
type = Stem;
},
{
place = "{156, 87}";
type = Stem;
},
{
horizontal = 1;
place = "{-229, 21}";
target = up;
type = BottomGhost;
},
{
horizontal = 1;
place = "{700, -20}";
target = down;
type = TopGhost;
}
);
layerId = UUID0;
paths = (
{
closed = 1;
nodes = (
"144 59 LINE SMOOTH",
"139 -48 OFFCURVE",
"115 -104 OFFCURVE",
"38 -190 CURVE",
"65 -229 LINE",
"188 -131 OFFCURVE",
"227 -64 OFFCURVE",
"232 59 CURVE SMOOTH",
"254 637 LINE",
"339 654 LINE",
"345 700 LINE",
"73 700 LINE",
"67 654 LINE",
"169 637 LINE"
);
}
);
width = 367;
},
{
anchors = (
{
name = top;
position = "{236, 730}";
}
);
background = {
paths = (
{
closed = 1;
nodes = (
"162 59 LINE",
"73 46 LINE",
"67 0 LINE",
"349 0 LINE",
"355 46 LINE",
"252 59 LINE",
"273 637 LINE",
"365 654 LINE",
"372 700 LINE",
"100 700 LINE",
"94 654 LINE",
"187 637 LINE"
);
}
);
};
hints = (
{
place = "{144, 99}";
type = Stem;
},
{
place = "{156, 87}";
type = Stem;
},
{
horizontal = 1;
place = "{-229, 21}";
target = up;
type = BottomGhost;
},
{
horizontal = 1;
place = "{700, -20}";
target = down;
type = TopGhost;
}
);
layerId = "D666A065-31E2-40D8-BE19-B3556ED1E29D";
paths = (
{
closed = 1;
nodes = (
"162 59 LINE SMOOTH",
"157 -48 OFFCURVE",
"130 -105 OFFCURVE",
"45 -191 CURVE",
"76 -229 LINE",
"220 -120 OFFCURVE",
"246 -44 OFFCURVE",
"251 86 CURVE SMOOTH",
"273 637 LINE",
"365 654 LINE",
"372 700 LINE",
"83 700 LINE",
"76 654 LINE",
"187 637 LINE"
);
}
);
width = 399;
},
{
anchors = (
{
name = top;
position = "{211, 730}";
}
);
background = {
anchors = (
{
name = top;
position = "{211, 730}";
}
);
paths = (
{
closed = 1;
nodes = (
"139 59 LINE SMOOTH",
"134 -63 OFFCURVE",
"120 -128 OFFCURVE",
"48 -214 CURVE",
"60 -229 LINE",
"183 -131 OFFCURVE",
"222 -64 OFFCURVE",
"227 59 CURVE SMOOTH",
"251 668 LINE",
"340 683 LINE",
"342 700 LINE",
"84 700 LINE",
"82 683 LINE",
"164 668 LINE"
);
}
);
};
hints = (
{
place = "{144, 99}";
type = Stem;
},
{
place = "{156, 87}";
type = Stem;
},
{
horizontal = 1;
place = "{-229, 21}";
target = up;
type = BottomGhost;
},
{
horizontal = 1;
place = "{700, -20}";
target = down;
type = TopGhost;
}
);
layerId = "703BE3CC-3FB5-4948-8633-0DF44FA889B7";
paths = (
{
closed = 1;
nodes = (
"139 59 LINE SMOOTH",
"134 -63 OFFCURVE",
"120 -128 OFFCURVE",
"48 -214 CURVE",
"60 -229 LINE",
"183 -131 OFFCURVE",
"222 -64 OFFCURVE",
"227 59 CURVE SMOOTH",
"252 698 LINE",
"341 713 LINE",
"343 730 LINE",
"85 730 LINE",
"83 713 LINE",
"165 698 LINE"
);
}
);
width = 357;
},
{
anchors = (
{
name = top;
position = "{195, 730}";
}
);
background = {
anchors = (
{
name = top;
position = "{201, 730}";
}
);
hints = (
{
place = "{144, 99}";
type = Stem;
},
{
place = "{156, 87}";
type = Stem;
},
{
horizontal = 1;
place = "{-229, 21}";
target = up;
type = BottomGhost;
},
{
horizontal = 1;
place = "{700, -20}";
target = down;
type = TopGhost;
}
);
paths = (
{
closed = 1;
nodes = (
"136 46 LINE",
"51 32 LINE",
"47 0 LINE",
"277 0 LINE",
"280 33 LINE",
"183 45 LINE",
"207 655 LINE",
"294 668 LINE",
"297 700 LINE",
"76 700 LINE",
"72 668 LINE",
"160 655 LINE"
);
}
);
};
hints = (
{
place = "{144, 99}";
type = Stem;
},
{
place = "{156, 87}";
type = Stem;
},
{
horizontal = 1;
place = "{-229, 21}";
target = up;
type = BottomGhost;
},
{
horizontal = 1;
place = "{700, -20}";
target = down;
type = TopGhost;
}
);
layerId = "51A3A961-7A3D-4D9D-A8A6-EF0E27CBF030";
paths = (
{
closed = 1;
nodes = (
"136 41 LINE SMOOTH",
"132 -55 OFFCURVE",
"95 -128 OFFCURVE",
"23 -194 CURVE",
"36 -224 LINE",
"144 -138 OFFCURVE",
"178 -75 OFFCURVE",
"183 45 CURVE SMOOTH",
"207 655 LINE",
"294 668 LINE",
"297 700 LINE",
"62 700 LINE",
"57 668 LINE",
"160 655 LINE"
);
}
);
width = 307;
},
{
anchors = (
{
name = top;
position = "{235, 730}";
}
);
background = {
anchors = (
{
name = top;
position = "{206, 730}";
}
);
hints = (
{
place = "{144, 99}";
type = Stem;
},
{
place = "{156, 87}";
type = Stem;
},
{
horizontal = 1;
place = "{-229, 21}";
target = up;
type = BottomGhost;
},
{
horizontal = 1;
place = "{700, -20}";
target = down;
type = TopGhost;
}
);
paths = (
{
closed = 1;
nodes = (
"134 59 LINE SMOOTH",
"129 -48 OFFCURVE",
"105 -104 OFFCURVE",
"28 -190 CURVE",
"55 -229 LINE",
"178 -131 OFFCURVE",
"217 -64 OFFCURVE",
"222 59 CURVE SMOOTH",
"244 637 LINE",
"329 654 LINE",
"335 700 LINE",
"63 700 LINE",
"57 654 LINE",
"159 637 LINE"
);
}
);
};
hints = (
{
place = "{144, 99}";
type = Stem;
},
{
place = "{156, 87}";
type = Stem;
},
{
horizontal = 1;
place = "{-229, 21}";
target = up;
type = BottomGhost;
},
{
horizontal = 1;
place = "{700, -20}";
target = down;
type = TopGhost;
}
);
layerId = "183D4CB5-BDC3-4BCB-9164-6C94CC175920";
paths = (
{
closed = 1;
nodes = (
"123 114 LINE SMOOTH",
"118 -10 OFFCURVE",
"110 -65 OFFCURVE",
"26 -158 CURVE",
"94 -244 LINE",
"299 -105 OFFCURVE",
"348 -36 OFFCURVE",
"354 99 CURVE SMOOTH",
"375 596 LINE",
"462 611 LINE",
"469 700 LINE",
"45 700 LINE",
"39 611 LINE",
"144 593 LINE"
);
}
);
width = 461;
}
);
leftKerningGroup = J;
rightKerningGroup = J;
unicode = 004A;
},
{
color = 4;
glyphname = K;
layers = (
{
anchors = (
{
name = bottom;
position = "{348, -30}";
},
{
name = top;
position = "{393, 730}";
}
);
background = {
paths = (
{
closed = 1;
nodes = (
"672 -14 OFFCURVE",
"711 2 OFFCURVE",
"734 26 CURVE",
"724 62 LINE",
"706 56 OFFCURVE",
"692 53 OFFCURVE",
"679 53 CURVE SMOOTH",
"628 53 OFFCURVE",
"603 66 OFFCURVE",
"557 136 CURVE SMOOTH",
"382 401 LINE",
"576 596 LINE SMOOTH",
"606 626 OFFCURVE",
"619 637 OFFCURVE",
"644 642 CURVE SMOOTH",
"682 650 LINE",
"682 700 LINE",
"445 700 LINE",
"435 651 LINE",
"483 643 LINE SMOOTH",
"508 639 OFFCURVE",
"520 617 OFFCURVE",
"496 593 CURVE SMOOTH",
"253 350 LINE",
"253 592 LINE SMOOTH",
"253 622 OFFCURVE",
"255 639 OFFCURVE",
"283 643 CURVE SMOOTH",
"346 652 LINE",
"346 700 LINE",
"61 700 LINE",
"61 652 LINE",
"121 643 LINE SMOOTH",
"151 638 OFFCURVE",
"154 627 OFFCURVE",
"154 596 CURVE SMOOTH",
"154 108 LINE SMOOTH",
"154 78 OFFCURVE",
"152 62 OFFCURVE",
"123 57 CURVE SMOOTH",
"61 48 LINE",
"61 0 LINE",
"346 0 LINE",
"346 48 LINE",
"285 57 LINE SMOOTH",
"256 62 OFFCURVE",
"253 73 OFFCURVE",
"253 104 CURVE SMOOTH",
"253 275 LINE",
"313 336 LINE",
"470 85 LINE SMOOTH",
"515 13 OFFCURVE",
"559 -14 OFFCURVE",
"631 -14 CURVE SMOOTH"
);
}
);
};
hints = (
{
place = "{156, 87}";
type = Stem;
},
{
horizontal = 1;
place = "{-14, 59}";
type = Stem;
},
{
horizontal = 1;
place = "{700, -20}";
target = down;
type = TopGhost;
},
{
horizontal = 1;
place = "{0, 21}";
target = up;
type = BottomGhost;
}
);
layerId = UUID0;
paths = (
{
closed = 1;
nodes = (
"618 -14 OFFCURVE",
"659 2 OFFCURVE",
"686 28 CURVE",
"666 63 LINE",
"642 51 OFFCURVE",
"624 45 OFFCURVE",
"607 45 CURVE SMOOTH",
"560 45 OFFCURVE",
"543 71 OFFCURVE",
"501 208 CURVE SMOOTH",
"470 310 OFFCURVE",
"438 348 OFFCURVE",
"356 382 CURVE",
"356 388 LINE",
"605 638 LINE",
"683 653 LINE",
"690 700 LINE",
"452 700 LINE",
"443 652 LINE",
"525 639 LINE",
"271 373 LINE",
"269 342 LINE",
"343 333 OFFCURVE",
"380 293 OFFCURVE",
"411 191 CURVE SMOOTH",
"462 22 OFFCURVE",
"492 -14 OFFCURVE",
"580 -14 CURVE SMOOTH"
);
},
{
closed = 1;
nodes = (
"320 0 LINE",
"326 46 LINE",
"231 59 LINE",
"253 637 LINE",
"338 654 LINE",
"344 700 LINE",
"88 700 LINE",
"82 654 LINE",
"168 637 LINE",
"143 59 LINE",
"61 46 LINE",
"55 0 LINE"
);
}
);
width = 695;
},
{
anchors = (
{
name = bottom;
position = "{384, -30}";
},
{
name = top;
position = "{430, 730}";
}
);
background = {
paths = (
{
closed = 1;
nodes = (
"675 -14 OFFCURVE",
"718 2 OFFCURVE",
"747 28 CURVE",
"726 63 LINE",
"700 51 OFFCURVE",
"680 45 OFFCURVE",
"662 45 CURVE SMOOTH",
"609 45 OFFCURVE",
"590 71 OFFCURVE",
"545 208 CURVE SMOOTH",
"512 308 OFFCURVE",
"479 348 OFFCURVE",
"389 379 CURVE",
"389 388 LINE",
"657 638 LINE",
"742 653 LINE",
"749 700 LINE",
"491 700 LINE",
"485 654 LINE",
"573 639 LINE",
"298 373 LINE",
"296 342 LINE",
"377 333 OFFCURVE",
"418 295 OFFCURVE",
"453 189 CURVE SMOOTH",
"508 23 OFFCURVE",
"541 -14 OFFCURVE",
"634 -14 CURVE SMOOTH"
);
},
{
closed = 1;
nodes = (
"353 0 LINE",
"359 46 LINE",
"256 59 LINE",
"277 637 LINE",
"369 654 LINE",
"376 700 LINE",
"101 700 LINE",
"95 654 LINE",
"189 637 LINE",
"166 59 LINE",
"77 46 LINE",
"71 0 LINE"
);
}
);
};
hints = (
{
place = "{156, 87}";
type = Stem;
},
{
horizontal = 1;
place = "{-14, 59}";
type = Stem;
},
{
horizontal = 1;
place = "{700, -20}";
target = down;
type = TopGhost;
},
{
horizontal = 1;
place = "{0, 21}";
target = up;
type = BottomGhost;
}
);
layerId = "D666A065-31E2-40D8-BE19-B3556ED1E29D";
paths = (
{
closed = 1;
nodes = (
"679 -14 OFFCURVE",
"721 2 OFFCURVE",
"750 28 CURVE",
"728 70 LINE",
"704 58 OFFCURVE",
"682 52 OFFCURVE",
"664 52 CURVE SMOOTH",
"616 52 OFFCURVE",
"588 84 OFFCURVE",
"538 221 CURVE SMOOTH",
"502 321 OFFCURVE",
"463 352 OFFCURVE",
"386 377 CURVE",
"386 385 LINE",
"657 638 LINE",
"742 653 LINE",
"749 700 LINE",
"493 700 LINE",
"487 654 LINE",
"575 639 LINE",
"299 377 LINE",
"296 342 LINE",
"385 332 OFFCURVE",
"414 295 OFFCURVE",
"454 180 CURVE SMOOTH",
"508 25 OFFCURVE",
"551 -14 OFFCURVE",
"634 -14 CURVE SMOOTH"
);
},
{
closed = 1;
nodes = (
"353 0 LINE",
"359 46 LINE",
"256 59 LINE",
"277 637 LINE",
"369 654 LINE",
"376 700 LINE",
"101 700 LINE",
"95 654 LINE",
"189 637 LINE",
"166 59 LINE",
"77 46 LINE",
"71 0 LINE"
);
}
);
width = 762;
},
{
anchors = (
{
name = bottom;
position = "{348, -30}";
},
{
name = top;
position = "{393, 730}";
}
);
background = {
paths = (
{
closed = 1;
nodes = (
"610 -14 OFFCURVE",
"647 5 OFFCURVE",
"674 31 CURVE",
"665 44 LINE",
"645 32 OFFCURVE",
"627 26 OFFCURVE",
"611 26 CURVE SMOOTH",
"566 26 OFFCURVE",
"545 48 OFFCURVE",
"501 208 CURVE SMOOTH",
"468 327 OFFCURVE",
"429 402 OFFCURVE",
"330 407 CURVE",
"330 410 LINE",
"609 698 LINE",
"682 712 LINE",
"684 730 LINE",
"486 730 LINE",
"484 712 LINE",
"566 699 LINE",
"272 397 LINE",
"271 366 LINE",
"345 353 OFFCURVE",
"373 329 OFFCURVE",
"408 201 CURVE SMOOTH",
"458 20 OFFCURVE",
"490 -14 OFFCURVE",
"574 -14 CURVE SMOOTH"
);
},
{
closed = 1;
nodes = (
"143 30 LINE",
"59 18 LINE",
"56 0 LINE",
"322 0 LINE",
"324 18 LINE",
"231 30 LINE",
"257 698 LINE",
"346 713 LINE",
"348 730 LINE",
"90 730 LINE",
"88 713 LINE",
"170 698 LINE"
);
}
);
};
hints = (
{
place = "{156, 87}";
type = Stem;
},
{
horizontal = 1;
place = "{-14, 59}";
type = Stem;
},
{
horizontal = 1;
place = "{700, -20}";
target = down;
type = TopGhost;
},
{
horizontal = 1;
place = "{0, 21}";
target = up;
type = BottomGhost;
}
);
layerId = "703BE3CC-3FB5-4948-8633-0DF44FA889B7";
paths = (
{
closed = 1;
nodes = (
"618 -14 OFFCURVE",
"658 5 OFFCURVE",
"685 31 CURVE",
"676 44 LINE",
"656 32 OFFCURVE",
"638 26 OFFCURVE",
"622 26 CURVE SMOOTH",
"577 26 OFFCURVE",
"556 48 OFFCURVE",
"501 208 CURVE SMOOTH",
"460 328 OFFCURVE",
"412 393 OFFCURVE",
"313 398 CURVE",
"313 401 LINE",
"609 698 LINE",
"682 712 LINE",
"684 730 LINE",
"486 730 LINE",
"484 712 LINE",
"568 699 LINE",
"272 398 LINE",
"271 374 LINE",
"345 361 OFFCURVE",
"370 330 OFFCURVE",
"412 190 CURVE SMOOTH",
"464 19 OFFCURVE",
"505 -14 OFFCURVE",
"578 -14 CURVE SMOOTH"
);
},
{
closed = 1;
nodes = (
"143 30 LINE",
"59 18 LINE",
"56 0 LINE",
"322 0 LINE",
"324 18 LINE",
"231 30 LINE",
"257 698 LINE",
"346 713 LINE",
"348 730 LINE",
"90 730 LINE",
"88 713 LINE",
"170 698 LINE"
);
}
);
width = 687;
},
{
anchors = (
{
name = bottom;
position = "{319, -30}";
},
{
name = top;
position = "{372, 730}";
}
);
background = {
anchors = (
{
name = bottom;
position = "{347, -30}";
},
{
name = top;
position = "{392, 730}";
}
);
hints = (
{
place = "{156, 87}";
type = Stem;
},
{
horizontal = 1;
place = "{-14, 59}";
type = Stem;
},
{
horizontal = 1;
place = "{700, -20}";
target = down;
type = TopGhost;
},
{
horizontal = 1;
place = "{0, 21}";
target = up;
type = BottomGhost;
}
);
paths = (
{
closed = 1;
nodes = (
"579 -14 OFFCURVE",
"620 2 OFFCURVE",
"647 28 CURVE",
"627 63 LINE",
"603 51 OFFCURVE",
"585 45 OFFCURVE",
"568 45 CURVE SMOOTH",
"521 45 OFFCURVE",
"504 71 OFFCURVE",
"462 208 CURVE SMOOTH",
"431 310 OFFCURVE",
"399 348 OFFCURVE",
"317 382 CURVE",
"317 388 LINE",
"566 638 LINE",
"644 653 LINE",
"651 700 LINE",
"413 700 LINE",
"404 652 LINE",
"486 639 LINE",
"232 373 LINE",
"230 342 LINE",
"304 333 OFFCURVE",
"341 293 OFFCURVE",
"372 191 CURVE SMOOTH",
"423 22 OFFCURVE",
"453 -14 OFFCURVE",
"541 -14 CURVE SMOOTH"
);
},
{
closed = 1;
nodes = (
"281 0 LINE",
"287 46 LINE",
"192 59 LINE",
"214 637 LINE",
"299 654 LINE",
"305 700 LINE",
"49 700 LINE",
"43 654 LINE",
"129 637 LINE",
"104 59 LINE",
"22 46 LINE",
"16 0 LINE"
);
}
);
};
hints = (
{
place = "{156, 87}";
type = Stem;
},
{
horizontal = 1;
place = "{-14, 59}";
type = Stem;
},
{
horizontal = 1;
place = "{700, -20}";
target = down;
type = TopGhost;
},
{
horizontal = 1;
place = "{0, 21}";
target = up;
type = BottomGhost;
}
);
layerId = "51A3A961-7A3D-4D9D-A8A6-EF0E27CBF030";
paths = (
{
closed = 1;
nodes = (
"586 -14 OFFCURVE",
"620 3 OFFCURVE",
"646 28 CURVE",
"632 55 LINE",
"610 39 OFFCURVE",
"588 28 OFFCURVE",
"566 28 CURVE SMOOTH",
"515 28 OFFCURVE",
"489 58 OFFCURVE",
"443 199 CURVE SMOOTH",
"403 320 OFFCURVE",
"362 361 OFFCURVE",
"290 374 CURVE",
"290 378 LINE",
"569 655 LINE",
"646 668 LINE",
"652 700 LINE",
"427 700 LINE",
"423 668 LINE",
"516 655 LINE",
"231 366 LINE",
"231 350 LINE",
"324 340 OFFCURVE",
"350 319 OFFCURVE",
"397 173 CURVE SMOOTH",
"446 21 OFFCURVE",
"483 -14 OFFCURVE",
"554 -14 CURVE SMOOTH"
);
},
{
closed = 1;
nodes = (
"286 0 LINE",
"289 33 LINE",
"192 45 LINE",
"216 655 LINE",
"303 668 LINE",
"306 700 LINE",
"85 700 LINE",
"81 668 LINE",
"169 655 LINE",
"145 46 LINE",
"60 32 LINE",
"56 0 LINE"
);
}
);
width = 648;
},
{
anchors = (
{
name = bottom;
position = "{423, -30}";
},
{
name = top;
position = "{444, 730}";
}
);
background = {
anchors = (
{
name = bottom;
position = "{327, -30}";
},
{
name = top;
position = "{372, 730}";
}
);
hints = (
{
place = "{156, 87}";
type = Stem;
},
{
horizontal = 1;
place = "{-14, 59}";
type = Stem;
},
{
horizontal = 1;
place = "{700, -20}";
target = down;
type = TopGhost;
},
{
horizontal = 1;
place = "{0, 21}";
target = up;
type = BottomGhost;
}
);
paths = (
{
closed = 1;
nodes = (
"597 -14 OFFCURVE",
"638 2 OFFCURVE",
"665 28 CURVE",
"645 63 LINE",
"621 51 OFFCURVE",
"603 45 OFFCURVE",
"586 45 CURVE SMOOTH",
"539 45 OFFCURVE",
"522 71 OFFCURVE",
"480 208 CURVE SMOOTH",
"449 310 OFFCURVE",
"417 348 OFFCURVE",
"335 382 CURVE",
"335 388 LINE",
"584 638 LINE",
"662 653 LINE",
"669 700 LINE",
"431 700 LINE",
"422 652 LINE",
"504 639 LINE",
"250 373 LINE",
"248 342 LINE",
"322 333 OFFCURVE",
"359 293 OFFCURVE",
"390 191 CURVE SMOOTH",
"441 22 OFFCURVE",
"471 -14 OFFCURVE",
"559 -14 CURVE SMOOTH"
);
},
{
closed = 1;
nodes = (
"299 0 LINE",
"305 46 LINE",
"210 59 LINE",
"232 637 LINE",
"317 654 LINE",
"323 700 LINE",
"67 700 LINE",
"61 654 LINE",
"147 637 LINE",
"122 59 LINE",
"40 46 LINE",
"34 0 LINE"
);
}
);
};
hints = (
{
place = "{156, 87}";
type = Stem;
},
{
horizontal = 1;
place = "{-14, 59}";
type = Stem;
},
{
horizontal = 1;
place = "{700, -20}";
target = down;
type = TopGhost;
},
{
horizontal = 1;
place = "{0, 21}";
target = up;
type = BottomGhost;
}
);
layerId = "183D4CB5-BDC3-4BCB-9164-6C94CC175920";
paths = (
{
closed = 1;
nodes = (
"715 -14 OFFCURVE",
"776 13 OFFCURVE",
"818 40 CURVE",
"796 130 LINE",
"784 126 OFFCURVE",
"768 120 OFFCURVE",
"750 120 CURVE SMOOTH",
"717 120 OFFCURVE",
"705 141 OFFCURVE",
"665 258 CURVE SMOOTH",
"634 349 OFFCURVE",
"581 369 OFFCURVE",
"477 378 CURVE",
"477 384 LINE",
"734 597 LINE",
"805 612 LINE",
"812 700 LINE",
"524 700 LINE",
"508 612 LINE",
"590 598 LINE",
"366 400 LINE",
"363 320 LINE",
"415 310 OFFCURVE",
"425 297 OFFCURVE",
"454 191 CURVE SMOOTH",
"497 35 OFFCURVE",
"534 -14 OFFCURVE",
"650 -14 CURVE SMOOTH"
);
},
{
closed = 1;
nodes = (
"413 0 LINE",
"419 93 LINE",
"330 106 LINE",
"353 595 LINE",
"431 612 LINE",
"437 700 LINE",
"45 700 LINE",
"40 612 LINE",
"122 595 LINE",
"99 106 LINE",
"21 93 LINE",
"15 0 LINE"
);
}
);
width = 829;
}
);
leftKerningGroup = K;
leftMetricsKey = H;
rightKerningGroup = K;
unicode = 004B;
},
{
color = 4;
glyphname = L;
layers = (
{
anchors = (
{
name = bottom;
position = "{313, -30}";
},
{
name = top;
position = "{219, 730}";
}
);
background = {
paths = (
{
closed = 1;
nodes = (
"551 0 LINE",
"576 214 LINE",
"521 214 LINE",
"484 93 OFFCURVE",
"460 55 OFFCURVE",
"362 55 CURVE SMOOTH",
"249 55 LINE",
"249 596 LINE SMOOTH",
"249 627 OFFCURVE",
"252 638 OFFCURVE",
"281 643 CURVE SMOOTH",
"347 652 LINE",
"347 700 LINE",
"61 700 LINE",
"61 652 LINE",
"117 643 LINE SMOOTH",
"147 638 OFFCURVE",
"150 627 OFFCURVE",
"150 596 CURVE SMOOTH",
"150 108 LINE SMOOTH",
"150 78 OFFCURVE",
"148 62 OFFCURVE",
"119 57 CURVE SMOOTH",
"61 48 LINE",
"61 0 LINE"
);
}
);
};
hints = (
{
place = "{157, 86}";
type = Stem;
},
{
horizontal = 1;
place = "{0, 58}";
type = Stem;
},
{
horizontal = 1;
place = "{700, -20}";
target = down;
type = TopGhost;
}
);
layerId = UUID0;
paths = (
{
closed = 1;
nodes = (
"56 0 LINE",
"528 0 LINE",
"554 194 LINE",
"499 194 LINE",
"483 143 LINE SMOOTH",
"461 76 OFFCURVE",
"439 58 OFFCURVE",
"380 58 CURVE SMOOTH",
"230 58 LINE",
"254 637 LINE",
"359 654 LINE",
"365 700 LINE",
"88 700 LINE",
"82 654 LINE",
"168 637 LINE",
"144 59 LINE",
"62 46 LINE"
);
}
);
width = 589;
},
{
anchors = (
{
name = bottom;
position = "{347, -30}";
},
{
name = top;
position = "{242, 730}";
}
);
background = {
paths = (
{
closed = 1;
nodes = (
"552 1000 LINE",
"577 1214 LINE",
"522 1214 LINE",
"485 1093 OFFCURVE",
"461 1055 OFFCURVE",
"363 1055 CURVE SMOOTH",
"250 1055 LINE",
"250 1596 LINE SMOOTH",
"250 1627 OFFCURVE",
"253 1639 OFFCURVE",
"282 1643 CURVE SMOOTH",
"348 1652 LINE",
"348 1700 LINE",
"62 1700 LINE",
"62 1652 LINE",
"118 1643 LINE SMOOTH",
"148 1638 OFFCURVE",
"151 1627 OFFCURVE",
"151 1596 CURVE SMOOTH",
"151 1108 LINE SMOOTH",
"151 1078 OFFCURVE",
"149 1062 OFFCURVE",
"120 1057 CURVE SMOOTH",
"62 1048 LINE",
"62 1000 LINE"
);
},
{
closed = 1;
nodes = (
"155 59 LINE",
"66 46 LINE",
"60 0 LINE",
"576 0 LINE",
"601 184 LINE",
"543 184 LINE",
"528 143 LINE SMOOTH",
"501 69 OFFCURVE",
"474 58 OFFCURVE",
"418 58 CURVE SMOOTH",
"245 58 LINE",
"255 328 LINE",
"523 328 LINE",
"528 391 LINE",
"256 391 LINE",
"266 643 LINE",
"420 643 LINE SMOOTH",
"483 643 OFFCURVE",
"502 628 OFFCURVE",
"525 559 CURVE SMOOTH",
"537 523 LINE",
"595 532 LINE",
"579 700 LINE",
"91 700 LINE",
"84 654 LINE",
"178 637 LINE"
);
}
);
};
hints = (
{
place = "{157, 86}";
type = Stem;
},
{
horizontal = 1;
place = "{0, 58}";
type = Stem;
},
{
horizontal = 1;
place = "{700, -20}";
target = down;
type = TopGhost;
}
);
layerId = "D666A065-31E2-40D8-BE19-B3556ED1E29D";
paths = (
{
closed = 1;
nodes = (
"71 0 LINE",
"576 0 LINE",
"601 184 LINE",
"543 184 LINE",
"528 143 LINE SMOOTH",
"501 69 OFFCURVE",
"474 58 OFFCURVE",
"418 58 CURVE SMOOTH",
"256 58 LINE",
"277 637 LINE",
"391 654 LINE",
"397 700 LINE",
"102 700 LINE",
"95 654 LINE",
"189 637 LINE",
"166 59 LINE",
"77 46 LINE"
);
}
);
width = 645;
},
{
anchors = (
{
name = bottom;
position = "{313, -30}";
},
{
name = top;
position = "{219, 730}";
}
);
background = {
anchors = (
{
name = bottom;
position = "{313, -30}";
},
{
name = top;
position = "{219, 730}";
}
);
paths = (
{
closed = 1;
nodes = (
"57 0 LINE",
"513 0 LINE",
"540 173 LINE",
"522 173 LINE",
"506 121 LINE SMOOTH",
"480 36 OFFCURVE",
"448 23 OFFCURVE",
"379 23 CURVE SMOOTH",
"229 23 LINE",
"256 668 LINE",
"363 682 LINE",
"365 700 LINE",
"89 700 LINE",
"87 682 LINE",
"169 668 LINE",
"143 30 LINE",
"59 18 LINE"
);
}
);
};
hints = (
{
place = "{157, 86}";
type = Stem;
},
{
horizontal = 1;
place = "{0, 58}";
type = Stem;
},
{
horizontal = 1;
place = "{700, -20}";
target = down;
type = TopGhost;
}
);
layerId = "703BE3CC-3FB5-4948-8633-0DF44FA889B7";
paths = (
{
closed = 1;
nodes = (
"57 0 LINE",
"513 0 LINE",
"540 173 LINE",
"522 173 LINE",
"506 121 LINE SMOOTH",
"480 36 OFFCURVE",
"448 23 OFFCURVE",
"379 23 CURVE SMOOTH",
"229 23 LINE",
"257 698 LINE",
"364 712 LINE",
"366 730 LINE",
"90 730 LINE",
"88 712 LINE",
"170 698 LINE",
"143 30 LINE",
"59 18 LINE"
);
}
);
width = 579;
},
{
anchors = (
{
name = bottom;
position = "{295, -29}";
},
{
name = top;
position = "{206, 730}";
}
);
background = {
anchors = (
{
name = bottom;
position = "{312, -30}";
},
{
name = top;
position = "{218, 730}";
}
);
hints = (
{
place = "{157, 86}";
type = Stem;
},
{
horizontal = 1;
place = "{0, 58}";
type = Stem;
},
{
horizontal = 1;
place = "{700, -20}";
target = down;
type = TopGhost;
}
);
paths = (
{
closed = 1;
nodes = (
"35 1000 LINE",
"507 1000 LINE",
"533 1194 LINE",
"478 1194 LINE",
"462 1143 LINE SMOOTH",
"441 1076 OFFCURVE",
"418 1058 OFFCURVE",
"359 1058 CURVE SMOOTH",
"209 1058 LINE",
"233 1637 LINE",
"338 1654 LINE",
"344 1700 LINE",
"67 1700 LINE",
"61 1654 LINE",
"147 1637 LINE",
"123 1059 LINE",
"41 1046 LINE"
);
},
{
closed = 1;
nodes = (
"145 46 LINE",
"60 32 LINE",
"56 0 LINE",
"286 0 LINE",
"289 33 LINE",
"192 45 LINE",
"216 655 LINE",
"303 668 LINE",
"306 700 LINE",
"85 700 LINE",
"81 668 LINE",
"169 655 LINE"
);
}
);
};
hints = (
{
place = "{157, 86}";
type = Stem;
},
{
horizontal = 1;
place = "{0, 58}";
type = Stem;
},
{
horizontal = 1;
place = "{700, -20}";
target = down;
type = TopGhost;
}
);
layerId = "51A3A961-7A3D-4D9D-A8A6-EF0E27CBF030";
paths = (
{
closed = 1;
nodes = (
"56 0 LINE",
"494 0 LINE",
"516 157 LINE",
"480 157 LINE",
"468 114 LINE SMOOTH",
"448 42 OFFCURVE",
"425 39 OFFCURVE",
"369 39 CURVE SMOOTH",
"192 39 LINE",
"216 655 LINE",
"323 668 LINE",
"327 700 LINE",
"85 700 LINE",
"81 668 LINE",
"169 655 LINE",
"145 46 LINE",
"60 32 LINE"
);
}
);
width = 545;
},
{
anchors = (
{
name = bottom;
position = "{353, -33}";
},
{
name = top;
position = "{239, 730}";
}
);
background = {
anchors = (
{
name = bottom;
position = "{290, -30}";
},
{
name = top;
position = "{196, 730}";
}
);
hints = (
{
place = "{157, 86}";
type = Stem;
},
{
horizontal = 1;
place = "{0, 58}";
type = Stem;
},
{
horizontal = 1;
place = "{700, -20}";
target = down;
type = TopGhost;
}
);
paths = (
{
closed = 1;
nodes = (
"33 0 LINE",
"505 0 LINE",
"531 194 LINE",
"476 194 LINE",
"460 143 LINE SMOOTH",
"438 76 OFFCURVE",
"416 58 OFFCURVE",
"357 58 CURVE SMOOTH",
"207 58 LINE",
"231 637 LINE",
"336 654 LINE",
"342 700 LINE",
"65 700 LINE",
"59 654 LINE",
"145 637 LINE",
"121 59 LINE",
"39 46 LINE"
);
}
);
};
hints = (
{
place = "{157, 86}";
type = Stem;
},
{
horizontal = 1;
place = "{0, 58}";
type = Stem;
},
{
horizontal = 1;
place = "{700, -20}";
target = down;
type = TopGhost;
}
);
layerId = "183D4CB5-BDC3-4BCB-9164-6C94CC175920";
paths = (
{
closed = 1;
nodes = (
"14 0 LINE",
"619 0 LINE",
"645 238 LINE",
"536 238 LINE",
"517 177 LINE SMOOTH",
"497 114 OFFCURVE",
"459 105 OFFCURVE",
"406 105 CURVE SMOOTH",
"330 105 LINE",
"354 594 LINE",
"458 613 LINE",
"464 700 LINE",
"46 700 LINE",
"40 613 LINE",
"123 596 LINE",
"99 103 LINE",
"20 92 LINE"
);
}
);
width = 666;
}
);
leftKerningGroup = L;
leftMetricsKey = H;
rightKerningGroup = L;
unicode = 004C;
},
{
color = 4;
glyphname = M;
layers = (
{
anchors = (
{
name = bottom;
position = "{464, -30}";
}
);
background = {
paths = (
{
closed = 1;
nodes = (
"309 0 LINE",
"309 48 LINE",
"253 57 LINE SMOOTH",
"224 62 OFFCURVE",
"221 73 OFFCURVE",
"221 104 CURVE SMOOTH",
"251 615 LINE",
"251 623 LINE",
"431 113 LINE",
"531 113 LINE",
"718 622 LINE",
"718 614 LINE",
"748 108 LINE SMOOTH",
"748 78 OFFCURVE",
"746 62 OFFCURVE",
"717 57 CURVE SMOOTH",
"655 48 LINE",
"655 0 LINE",
"940 0 LINE",
"940 48 LINE",
"879 57 LINE SMOOTH",
"850 62 OFFCURVE",
"847 73 OFFCURVE",
"847 104 CURVE SMOOTH",
"817 592 LINE SMOOTH",
"817 622 OFFCURVE",
"819 639 OFFCURVE",
"847 643 CURVE SMOOTH",
"910 652 LINE",
"910 700 LINE",
"679 700 LINE",
"500 203 LINE",
"496 193 LINE",
"325 700 LINE",
"93 700 LINE",
"93 652 LINE",
"149 643 LINE SMOOTH",
"178 638 OFFCURVE",
"181 627 OFFCURVE",
"181 596 CURVE SMOOTH",
"151 108 LINE SMOOTH",
"149 78 OFFCURVE",
"148 61 OFFCURVE",
"120 57 CURVE SMOOTH",
"63 48 LINE",
"63 0 LINE"
);
}
);
};
hints = (
{
place = "{151, 65}";
type = Stem;
},
{
place = "{725, 87}";
type = Stem;
},
{
horizontal = 1;
place = "{0, 21}";
target = up;
type = BottomGhost;
},
{
horizontal = 1;
place = "{700, -20}";
target = down;
type = TopGhost;
},
{
horizontal = 1;
place = "{-11, 21}";
target = up;
type = BottomGhost;
}
);
layerId = UUID0;
paths = (
{
closed = 1;
nodes = (
"734 59 LINE",
"652 46 LINE",
"646 0 LINE",
"911 0 LINE",
"917 46 LINE",
"822 59 LINE",
"802 637 LINE",
"881 652 LINE",
"887 700 LINE",
"680 700 LINE",
"479 86 LINE",
"303 700 LINE",
"92 700 LINE",
"86 654 LINE",
"171 637 LINE",
"131 60 LINE",
"48 46 LINE",
"42 0 LINE",
"280 0 LINE",
"286 46 LINE",
"197 60 LINE",
"235 612 LINE",
"419 -11 LINE",
"516 6 LINE",
"717 622 LINE"
);
}
);
width = 932;
},
{
anchors = (
{
name = bottom;
position = "{511, -30}";
}
);
background = {
paths = (
{
closed = 1;
nodes = (
"291 -900 LINE",
"291 -852 LINE",
"235 -843 LINE SMOOTH",
"206 -838 OFFCURVE",
"201 -827 OFFCURVE",
"203 -796 CURVE SMOOTH",
"233 -285 LINE",
"233 -277 LINE",
"413 -787 LINE",
"513 -787 LINE",
"700 -278 LINE",
"700 -286 LINE",
"730 -792 LINE SMOOTH",
"732 -822 OFFCURVE",
"728 -839 OFFCURVE",
"699 -843 CURVE SMOOTH",
"637 -852 LINE",
"637 -900 LINE",
"922 -900 LINE",
"922 -852 LINE",
"861 -843 LINE SMOOTH",
"832 -839 OFFCURVE",
"831 -827 OFFCURVE",
"829 -796 CURVE SMOOTH",
"799 -308 LINE SMOOTH",
"797 -278 OFFCURVE",
"801 -261 OFFCURVE",
"829 -257 CURVE SMOOTH",
"892 -248 LINE",
"892 -200 LINE",
"661 -200 LINE",
"482 -697 LINE",
"478 -707 LINE",
"307 -200 LINE",
"75 -200 LINE",
"75 -248 LINE",
"131 -257 LINE SMOOTH",
"160 -262 OFFCURVE",
"165 -273 OFFCURVE",
"163 -304 CURVE SMOOTH",
"133 -792 LINE SMOOTH",
"131 -822 OFFCURVE",
"130 -839 OFFCURVE",
"102 -843 CURVE SMOOTH",
"45 -852 LINE",
"45 -900 LINE"
);
},
{
closed = 1;
nodes = (
"558 5 LINE",
"802 642 LINE",
"889 654 LINE",
"895 700 LINE",
"643 700 LINE",
"637 654 LINE",
"735 642 LINE",
"671 469 LINE",
"410 469 LINE",
"359 642 LINE",
"447 654 LINE",
"453 700 LINE",
"169 700 LINE",
"162 654 LINE",
"256 643 LINE",
"455 -6 LINE"
);
},
{
closed = 1;
nodes = (
"526 81 LINE",
"523 81 LINE",
"426 412 LINE",
"650 412 LINE"
);
}
);
};
hints = (
{
place = "{151, 65}";
type = Stem;
},
{
place = "{725, 87}";
type = Stem;
},
{
horizontal = 1;
place = "{0, 21}";
target = up;
type = BottomGhost;
},
{
horizontal = 1;
place = "{700, -20}";
target = down;
type = TopGhost;
},
{
horizontal = 1;
place = "{-11, 21}";
target = up;
type = BottomGhost;
}
);
layerId = "D666A065-31E2-40D8-BE19-B3556ED1E29D";
paths = (
{
closed = 1;
nodes = (
"802 59 LINE",
"713 46 LINE",
"707 0 LINE",
"988 0 LINE",
"995 46 LINE",
"891 59 LINE",
"867 637 LINE",
"953 652 LINE",
"960 700 LINE",
"743 700 LINE",
"529 76 LINE",
"331 700 LINE",
"115 700 LINE",
"108 654 LINE",
"202 637 LINE",
"161 59 LINE",
"72 46 LINE",
"66 0 LINE",
"320 0 LINE",
"326 46 LINE",
"223 59 LINE",
"261 612 LINE",
"464 -11 LINE",
"565 6 LINE",
"781 622 LINE"
);
}
);
width = 1021;
},
{
anchors = (
{
name = bottom;
position = "{458, -30}";
}
);
background = {
paths = (
{
closed = 1;
nodes = (
"338 2200 LINE",
"338 2248 LINE",
"282 2257 LINE SMOOTH",
"253 2262 OFFCURVE",
"248 2273 OFFCURVE",
"250 2304 CURVE SMOOTH",
"280 2815 LINE",
"280 2823 LINE",
"460 2313 LINE",
"560 2313 LINE",
"747 2822 LINE",
"747 2814 LINE",
"777 2308 LINE SMOOTH",
"779 2278 OFFCURVE",
"775 2261 OFFCURVE",
"746 2257 CURVE SMOOTH",
"684 2248 LINE",
"684 2200 LINE",
"969 2200 LINE",
"969 2248 LINE",
"908 2257 LINE SMOOTH",
"879 2261 OFFCURVE",
"878 2273 OFFCURVE",
"876 2304 CURVE SMOOTH",
"846 2792 LINE SMOOTH",
"844 2822 OFFCURVE",
"848 2839 OFFCURVE",
"876 2843 CURVE SMOOTH",
"939 2852 LINE",
"939 2900 LINE",
"708 2900 LINE",
"529 2403 LINE",
"525 2393 LINE",
"354 2900 LINE",
"122 2900 LINE",
"122 2852 LINE",
"178 2843 LINE SMOOTH",
"207 2838 OFFCURVE",
"212 2827 OFFCURVE",
"210 2796 CURVE SMOOTH",
"180 2308 LINE SMOOTH",
"178 2278 OFFCURVE",
"177 2261 OFFCURVE",
"149 2257 CURVE SMOOTH",
"92 2248 LINE",
"92 2200 LINE"
);
},
{
closed = 1;
nodes = (
"763 1159 LINE",
"681 1146 LINE",
"675 1100 LINE",
"940 1100 LINE",
"946 1146 LINE",
"851 1159 LINE",
"831 1737 LINE",
"910 1752 LINE",
"916 1800 LINE",
"709 1800 LINE",
"508 1186 LINE",
"332 1800 LINE",
"121 1800 LINE",
"115 1754 LINE",
"200 1737 LINE",
"160 1160 LINE",
"77 1146 LINE",
"71 1100 LINE",
"309 1100 LINE",
"315 1146 LINE",
"226 1160 LINE",
"264 1712 LINE",
"448 1089 LINE",
"545 1106 LINE",
"746 1722 LINE"
);
},
{
closed = 1;
nodes = (
"299 699 LINE",
"386 711 LINE",
"389 730 LINE",
"125 730 LINE",
"122 711 LINE",
"199 700 LINE",
"389 -11 LINE",
"471 0 LINE",
"727 700 LINE",
"806 711 LINE",
"809 730 LINE",
"606 730 LINE",
"603 711 LINE",
"699 700 LINE",
"466 46 LINE",
"463 46 LINE"
);
}
);
};
hints = (
{
place = "{151, 65}";
type = Stem;
},
{
place = "{725, 87}";
type = Stem;
},
{
horizontal = 1;
place = "{0, 21}";
target = up;
type = BottomGhost;
},
{
horizontal = 1;
place = "{700, -20}";
target = down;
type = TopGhost;
},
{
horizontal = 1;
place = "{-11, 21}";
target = up;
type = BottomGhost;
}
);
layerId = "703BE3CC-3FB5-4948-8633-0DF44FA889B7";
paths = (
{
closed = 1;
nodes = (
"729 31 LINE",
"643 18 LINE",
"640 0 LINE",
"905 0 LINE",
"908 18 LINE",
"817 31 LINE",
"796 698 LINE",
"878 713 LINE",
"881 731 LINE",
"705 730 LINE",
"470 41 LINE",
"279 730 LINE",
"111 730 LINE",
"109 713 LINE",
"188 698 LINE",
"145 30 LINE",
"61 18 LINE",
"58 0 LINE",
"256 0 LINE",
"258 18 LINE",
"172 30 LINE",
"213 665 LINE",
"402 -11 LINE",
"477 0 LINE",
"711 665 LINE"
);
}
);
width = 932;
},
{
anchors = (
{
name = bottom;
position = "{455, -30}";
}
);
background = {
anchors = (
{
name = bottom;
position = "{467, -30}";
}
);
hints = (
{
place = "{151, 65}";
type = Stem;
},
{
place = "{725, 87}";
type = Stem;
},
{
horizontal = 1;
place = "{0, 21}";
target = up;
type = BottomGhost;
},
{
horizontal = 1;
place = "{700, -20}";
target = down;
type = TopGhost;
},
{
horizontal = 1;
place = "{-11, 21}";
target = up;
type = BottomGhost;
}
);
paths = (
{
closed = 1;
nodes = (
"906 959 LINE",
"824 946 LINE",
"818 900 LINE",
"1083 900 LINE",
"1089 946 LINE",
"994 959 LINE",
"974 1537 LINE",
"1053 1552 LINE",
"1059 1600 LINE",
"852 1600 LINE",
"651 986 LINE",
"475 1600 LINE",
"264 1600 LINE",
"258 1554 LINE",
"343 1537 LINE",
"303 960 LINE",
"220 946 LINE",
"214 900 LINE",
"452 900 LINE",
"458 946 LINE",
"369 960 LINE",
"407 1512 LINE",
"591 889 LINE",
"688 906 LINE",
"889 1522 LINE"
);
}
);
};
hints = (
{
place = "{151, 65}";
type = Stem;
},
{
place = "{725, 87}";
type = Stem;
},
{
horizontal = 1;
place = "{0, 21}";
target = up;
type = BottomGhost;
},
{
horizontal = 1;
place = "{700, -20}";
target = down;
type = TopGhost;
},
{
horizontal = 1;
place = "{-11, 21}";
target = up;
type = BottomGhost;
}
);
layerId = "51A3A961-7A3D-4D9D-A8A6-EF0E27CBF030";
paths = (
{
closed = 1;
nodes = (
"732 46 LINE",
"648 33 LINE",
"644 0 LINE",
"872 0 LINE",
"876 33 LINE",
"780 46 LINE",
"757 655 LINE",
"846 668 LINE",
"849 700 LINE",
"687 700 LINE",
"457 39 LINE",
"249 700 LINE",
"96 700 LINE",
"91 668 LINE",
"177 655 LINE",
"131 46 LINE",
"46 32 LINE",
"42 0 LINE",
"269 0 LINE",
"273 33 LINE",
"177 46 LINE",
"221 629 LINE",
"424 -11 LINE",
"492 6 LINE",
"710 629 LINE"
);
}
);
width = 897;
},
{
anchors = (
{
name = bottom;
position = "{502, -30}";
}
);
background = {
anchors = (
{
name = bottom;
position = "{452, -30}";
}
);
hints = (
{
place = "{151, 65}";
type = Stem;
},
{
place = "{725, 87}";
type = Stem;
},
{
horizontal = 1;
place = "{0, 21}";
target = up;
type = BottomGhost;
},
{
horizontal = 1;
place = "{700, -20}";
target = down;
type = TopGhost;
},
{
horizontal = 1;
place = "{-11, 21}";
target = up;
type = BottomGhost;
}
);
paths = (
{
closed = 1;
nodes = (
"722 59 LINE",
"640 46 LINE",
"634 0 LINE",
"899 0 LINE",
"905 46 LINE",
"810 59 LINE",
"790 637 LINE",
"869 652 LINE",
"875 700 LINE",
"668 700 LINE",
"467 86 LINE",
"291 700 LINE",
"80 700 LINE",
"74 654 LINE",
"159 637 LINE",
"119 60 LINE",
"36 46 LINE",
"30 0 LINE",
"268 0 LINE",
"274 46 LINE",
"185 60 LINE",
"223 612 LINE",
"407 -11 LINE",
"504 6 LINE",
"705 622 LINE"
);
}
);
};
hints = (
{
place = "{151, 65}";
type = Stem;
},
{
place = "{725, 87}";
type = Stem;
},
{
horizontal = 1;
place = "{0, 21}";
target = up;
type = BottomGhost;
},
{
horizontal = 1;
place = "{700, -20}";
target = down;
type = TopGhost;
},
{
horizontal = 1;
place = "{-11, 21}";
target = up;
type = BottomGhost;
}
);
layerId = "183D4CB5-BDC3-4BCB-9164-6C94CC175920";
paths = (
{
closed = 1;
nodes = (
"783 104 LINE",
"699 91 LINE",
"691 0 LINE",
"1058 0 LINE",
"1066 91 LINE",
"985 104 LINE",
"960 599 LINE",
"1024 611 LINE",
"1032 700 LINE",
"676 700 LINE",
"548 241 LINE",
"432 700 LINE",
"69 700 LINE",
"61 613 LINE",
"147 596 LINE",
"110 105 LINE",
"27 91 LINE",
"19 0 LINE",
"303 0 LINE",
"311 91 LINE",
"220 105 LINE",
"256 581 LINE",
"408 -11 LINE",
"597 6 LINE",
"763 596 LINE"
);
}
);
width = 1085;
}
);
leftKerningGroup = M;
rightKerningGroup = M;
unicode = 004D;
},
{
color = 4;
glyphname = N;
layers = (
{
anchors = (
{
name = bottom;
position = "{368, -30}";
},
{
name = top;
position = "{399, 730}";
}
);
background = {
paths = (
{
closed = 1;
nodes = (
"302 0 LINE",
"302 48 LINE",
"246 57 LINE",
"217 62 OFFCURVE",
"214 73 OFFCURVE",
"214 104 CURVE",
"214 601 LINE",
"214 609 LINE",
"576 0 LINE",
"679 0 LINE",
"679 592 LINE",
"679 622 OFFCURVE",
"681 638 OFFCURVE",
"710 643 CURVE",
"767 652 LINE",
"767 700 LINE",
"522 700 LINE",
"522 652 LINE",
"577 643 LINE",
"607 638 OFFCURVE",
"610 627 OFFCURVE",
"610 596 CURVE",
"610 137 LINE",
"610 129 LINE",
"278 700 LINE",
"56 700 LINE",
"56 652 LINE",
"112 643 LINE",
"141 638 OFFCURVE",
"144 627 OFFCURVE",
"144 596 CURVE",
"144 108 LINE",
"144 78 OFFCURVE",
"142 62 OFFCURVE",
"114 57 CURVE",
"56 48 LINE",
"56 0 LINE"
);
}
);
};
hints = (
{
place = "{156, 66}";
type = Stem;
},
{
place = "{577, 64}";
type = Stem;
},
{
horizontal = 1;
place = "{0, 59}";
type = Stem;
},
{
horizontal = 1;
place = "{637, 63}";
type = Stem;
},
{
horizontal = 1;
place = "{-11, 21}";
target = up;
type = BottomGhost;
}
);
layerId = UUID0;
paths = (
{
closed = 1;
nodes = (
"285 700 LINE",
"88 700 LINE",
"82 652 LINE",
"161 641 LINE",
"137 59 LINE",
"56 46 LINE",
"50 0 LINE",
"293 0 LINE",
"299 46 LINE",
"205 59 LINE",
"225 619 LINE",
"529 -11 LINE",
"621 0 LINE",
"646 637 LINE",
"731 654 LINE",
"737 700 LINE",
"500 700 LINE",
"494 654 LINE",
"579 637 LINE",
"561 119 LINE"
);
}
);
width = 743;
},
{
anchors = (
{
name = bottom;
position = "{407, -30}";
},
{
name = top;
position = "{435, 730}";
}
);
background = {
paths = (
{
closed = 1;
nodes = (
"285 900 LINE",
"285 948 LINE",
"229 957 LINE",
"200 962 OFFCURVE",
"197 973 OFFCURVE",
"197 1004 CURVE",
"197 1501 LINE",
"197 1509 LINE",
"559 900 LINE",
"662 900 LINE",
"662 1492 LINE",
"662 1522 OFFCURVE",
"664 1538 OFFCURVE",
"693 1543 CURVE",
"750 1552 LINE",
"750 1600 LINE",
"505 1600 LINE",
"505 1552 LINE",
"560 1543 LINE",
"590 1538 OFFCURVE",
"593 1527 OFFCURVE",
"593 1496 CURVE",
"593 1037 LINE",
"593 1029 LINE",
"261 1600 LINE",
"39 1600 LINE",
"39 1552 LINE",
"95 1543 LINE",
"124 1538 OFFCURVE",
"127 1527 OFFCURVE",
"127 1496 CURVE",
"127 1008 LINE",
"127 978 OFFCURVE",
"125 962 OFFCURVE",
"97 957 CURVE",
"39 948 LINE",
"39 900 LINE"
);
},
{
closed = 1;
nodes = (
"319 700 LINE",
"103 700 LINE",
"96 654 LINE",
"190 637 LINE",
"167 59 LINE",
"78 46 LINE",
"72 0 LINE",
"335 0 LINE",
"341 46 LINE",
"239 59 LINE",
"258 619 LINE",
"591 -11 LINE",
"686 0 LINE",
"710 637 LINE",
"802 654 LINE",
"808 700 LINE",
"552 700 LINE",
"546 654 LINE",
"639 637 LINE",
"622 119 LINE"
);
}
);
};
hints = (
{
place = "{156, 66}";
type = Stem;
},
{
place = "{577, 64}";
type = Stem;
},
{
horizontal = 1;
place = "{0, 59}";
type = Stem;
},
{
horizontal = 1;
place = "{637, 63}";
type = Stem;
},
{
horizontal = 1;
place = "{-11, 21}";
target = up;
type = BottomGhost;
}
);
layerId = "D666A065-31E2-40D8-BE19-B3556ED1E29D";
paths = (
{
closed = 1;
nodes = (
"310 700 LINE",
"102 700 LINE",
"95 654 LINE",
"189 637 LINE",
"166 59 LINE",
"77 46 LINE",
"71 0 LINE",
"328 0 LINE",
"334 46 LINE",
"232 59 LINE",
"251 621 LINE",
"593 -11 LINE",
"683 0 LINE",
"707 637 LINE",
"799 654 LINE",
"805 700 LINE",
"557 700 LINE",
"551 654 LINE",
"644 637 LINE",
"626 101 LINE"
);
}
);
width = 821;
},
{
anchors = (
{
name = bottom;
position = "{350, -30}";
},
{
name = top;
position = "{381, 730}";
}
);
background = {
anchors = (
{
name = bottom;
position = "{350, -30}";
},
{
name = top;
position = "{381, 730}";
}
);
paths = (
{
closed = 1;
nodes = (
"250 700 LINE",
"89 700 LINE",
"87 683 LINE",
"166 668 LINE",
"140 30 LINE",
"56 18 LINE",
"53 0 LINE",
"260 0 LINE",
"262 18 LINE",
"169 30 LINE",
"190 629 LINE",
"511 -11 LINE",
"565 0 LINE",
"591 668 LINE",
"678 683 LINE",
"680 700 LINE",
"482 700 LINE",
"480 683 LINE",
"562 668 LINE",
"543 109 LINE"
);
}
);
};
hints = (
{
place = "{156, 66}";
type = Stem;
},
{
place = "{577, 64}";
type = Stem;
},
{
horizontal = 1;
place = "{0, 59}";
type = Stem;
},
{
horizontal = 1;
place = "{637, 63}";
type = Stem;
},
{
horizontal = 1;
place = "{-11, 21}";
target = up;
type = BottomGhost;
}
);
layerId = "703BE3CC-3FB5-4948-8633-0DF44FA889B7";
paths = (
{
closed = 1;
nodes = (
"251 730 LINE",
"90 730 LINE",
"88 713 LINE",
"167 698 LINE",
"140 30 LINE",
"56 18 LINE",
"53 0 LINE",
"260 0 LINE",
"262 18 LINE",
"169 30 LINE",
"191 659 LINE",
"531 -11 LINE",
"585 0 LINE",
"612 698 LINE",
"699 713 LINE",
"701 730 LINE",
"503 730 LINE",
"501 713 LINE",
"583 698 LINE",
"563 109 LINE"
);
}
);
width = 708;
},
{
anchors = (
{
name = bottom;
position = "{366, -30}";
},
{
name = top;
position = "{383, 730}";
}
);
background = {
anchors = (
{
name = bottom;
position = "{371, -30}";
},
{
name = top;
position = "{402, 730}";
}
);
hints = (
{
place = "{156, 66}";
type = Stem;
},
{
place = "{577, 64}";
type = Stem;
},
{
horizontal = 1;
place = "{0, 59}";
type = Stem;
},
{
horizontal = 1;
place = "{637, 63}";
type = Stem;
},
{
horizontal = 1;
place = "{-11, 21}";
target = up;
type = BottomGhost;
}
);
paths = (
{
closed = 1;
nodes = (
"288 1800 LINE",
"91 1800 LINE",
"85 1752 LINE",
"164 1741 LINE",
"140 1159 LINE",
"59 1146 LINE",
"53 1100 LINE",
"296 1100 LINE",
"302 1146 LINE",
"208 1159 LINE",
"228 1719 LINE",
"532 1089 LINE",
"624 1100 LINE",
"649 1737 LINE",
"734 1754 LINE",
"740 1800 LINE",
"503 1800 LINE",
"497 1754 LINE",
"582 1737 LINE",
"564 1219 LINE"
);
},
{
closed = 1;
nodes = (
"544 46 LINE",
"460 33 LINE",
"456 0 LINE",
"685 0 LINE",
"689 33 LINE",
"593 46 LINE",
"618 655 LINE",
"703 668 LINE",
"706 700 LINE",
"486 700 LINE",
"482 668 LINE",
"569 655 LINE",
"556 380 LINE",
"201 380 LINE",
"213 655 LINE",
"299 668 LINE",
"302 700 LINE",
"81 700 LINE",
"77 668 LINE",
"164 655 LINE",
"140 46 LINE",
"56 32 LINE",
"52 0 LINE",
"281 0 LINE",
"285 33 LINE",
"189 46 LINE",
"200 341 LINE",
"555 341 LINE"
);
}
);
};
hints = (
{
place = "{156, 66}";
type = Stem;
},
{
place = "{577, 64}";
type = Stem;
},
{
horizontal = 1;
place = "{0, 59}";
type = Stem;
},
{
horizontal = 1;
place = "{637, 63}";
type = Stem;
},
{
horizontal = 1;
place = "{-11, 21}";
target = up;
type = BottomGhost;
}
);
layerId = "51A3A961-7A3D-4D9D-A8A6-EF0E27CBF030";
paths = (
{
closed = 1;
nodes = (
"240 700 LINE",
"85 700 LINE",
"81 668 LINE",
"168 655 LINE",
"144 46 LINE",
"60 32 LINE",
"56 0 LINE",
"289 0 LINE",
"293 33 LINE",
"192 46 LINE",
"215 643 LINE",
"548 -9 LINE",
"601 0 LINE",
"628 655 LINE",
"713 668 LINE",
"716 700 LINE",
"493 700 LINE",
"489 668 LINE",
"580 655 LINE",
"559 72 LINE"
);
}
);
width = 724;
},
{
anchors = (
{
name = bottom;
position = "{355, -30}";
},
{
name = top;
position = "{427, 730}";
}
);
background = {
anchors = (
{
name = bottom;
position = "{328, -30}";
},
{
name = top;
position = "{359, 730}";
}
);
hints = (
{
place = "{156, 66}";
type = Stem;
},
{
place = "{577, 64}";
type = Stem;
},
{
horizontal = 1;
place = "{0, 59}";
type = Stem;
},
{
horizontal = 1;
place = "{637, 63}";
type = Stem;
},
{
horizontal = 1;
place = "{-11, 21}";
target = up;
type = BottomGhost;
}
);
paths = (
{
closed = 0;
nodes = (
"724 607 LINE",
"810 621 LINE",
"817 700 LINE",
"543 700 LINE",
"537 621 LINE",
"625 604 LINE"
);
}
);
};
hints = (
{
place = "{156, 66}";
type = Stem;
},
{
place = "{577, 64}";
type = Stem;
},
{
horizontal = 1;
place = "{0, 59}";
type = Stem;
},
{
horizontal = 1;
place = "{637, 63}";
type = Stem;
},
{
horizontal = 1;
place = "{-11, 21}";
target = up;
type = BottomGhost;
}
);
layerId = "183D4CB5-BDC3-4BCB-9164-6C94CC175920";
paths = (
{
closed = 1;
nodes = (
"384 700 LINE",
"45 700 LINE",
"39 607 LINE",
"118 596 LINE",
"94 104 LINE",
"20 91 LINE",
"14 0 LINE",
"286 0 LINE",
"292 91 LINE",
"207 104 LINE",
"222 567 LINE",
"488 -19 LINE",
"699 0 LINE",
"720 592 LINE",
"800 609 LINE",
"807 700 LINE",
"536 700 LINE",
"530 609 LINE",
"614 592 LINE",
"599 199 LINE"
);
}
);
width = 794;
}
);
leftKerningGroup = N;
leftMetricsKey = H;
rightKerningGroup = N;
rightMetricsKey = H;
unicode = 004E;
},
{
color = 4;
glyphname = O;
layers = (
{
anchors = (
{
name = bottom;
position = "{352, -30}";
},
{
name = top;
position = "{386, 730}";
}
);
background = {
paths = (
{
closed = 1;
nodes = (
"570 -14 OFFCURVE",
"719 122 OFFCURVE",
"719 368 CURVE SMOOTH",
"719 598 OFFCURVE",
"570 714 OFFCURVE",
"396 714 CURVE SMOOTH",
"225 714 OFFCURVE",
"59 607 OFFCURVE",
"59 336 CURVE SMOOTH",
"59 135 OFFCURVE",
"182 -14 OFFCURVE",
"387 -14 CURVE SMOOTH"
);
},
{
closed = 1;
nodes = (
"255 53 OFFCURVE",
"165 170 OFFCURVE",
"165 357 CURVE SMOOTH",
"165 565 OFFCURVE",
"259 650 OFFCURVE",
"383 650 CURVE SMOOTH",
"519 650 OFFCURVE",
"610 547 OFFCURVE",
"610 349 CURVE SMOOTH",
"610 144 OFFCURVE",
"528 53 OFFCURVE",
"399 53 CURVE SMOOTH"
);
}
);
};
hints = (
{
place = "{61, 95}";
type = Stem;
},
{
place = "{578, 98}";
type = Stem;
},
{
horizontal = 1;
place = "{-14, 65}";
type = Stem;
},
{
horizontal = 1;
place = "{653, 62}";
type = Stem;
}
);
layerId = UUID0;
paths = (
{
closed = 1;
nodes = (
"61 120 OFFCURVE",
"176 -14 OFFCURVE",
"355 -14 CURVE SMOOTH",
"548 -14 OFFCURVE",
"676 144 OFFCURVE",
"676 382 CURVE SMOOTH",
"676 586 OFFCURVE",
"564 715 OFFCURVE",
"387 715 CURVE SMOOTH",
"187 715 OFFCURVE",
"61 565 OFFCURVE",
"61 328 CURVE SMOOTH"
);
},
{
closed = 1;
nodes = (
"156 541 OFFCURVE",
"236 653 OFFCURVE",
"373 653 CURVE SMOOTH",
"503 653 OFFCURVE",
"578 547 OFFCURVE",
"578 364 CURVE SMOOTH",
"578 165 OFFCURVE",
"502 51 OFFCURVE",
"368 51 CURVE SMOOTH",
"237 51 OFFCURVE",
"156 165 OFFCURVE",
"156 349 CURVE SMOOTH"
);
}
);
width = 715;
},
{
anchors = (
{
name = bottom;
position = "{387, -30}";
},
{
name = top;
position = "{422, 730}";
}
);
background = {
paths = (
{
closed = 1;
nodes = (
"570 -14 OFFCURVE",
"719 122 OFFCURVE",
"719 368 CURVE SMOOTH",
"719 598 OFFCURVE",
"570 714 OFFCURVE",
"396 714 CURVE SMOOTH",
"225 714 OFFCURVE",
"59 607 OFFCURVE",
"59 336 CURVE SMOOTH",
"59 135 OFFCURVE",
"182 -14 OFFCURVE",
"387 -14 CURVE SMOOTH"
);
},
{
closed = 1;
nodes = (
"255 53 OFFCURVE",
"165 170 OFFCURVE",
"165 357 CURVE SMOOTH",
"165 565 OFFCURVE",
"259 650 OFFCURVE",
"383 650 CURVE SMOOTH",
"519 650 OFFCURVE",
"610 547 OFFCURVE",
"610 349 CURVE SMOOTH",
"610 144 OFFCURVE",
"528 53 OFFCURVE",
"399 53 CURVE SMOOTH"
);
}
);
};
hints = (
{
place = "{61, 95}";
type = Stem;
},
{
place = "{578, 98}";
type = Stem;
},
{
horizontal = 1;
place = "{-14, 65}";
type = Stem;
},
{
horizontal = 1;
place = "{653, 62}";
type = Stem;
}
);
layerId = "D666A065-31E2-40D8-BE19-B3556ED1E29D";
paths = (
{
closed = 1;
nodes = (
"73 120 OFFCURVE",
"199 -14 OFFCURVE",
"391 -14 CURVE SMOOTH",
"597 -14 OFFCURVE",
"734 143 OFFCURVE",
"734 379 CURVE SMOOTH",
"734 586 OFFCURVE",
"612 715 OFFCURVE",
"422 715 CURVE SMOOTH",
"208 715 OFFCURVE",
"73 566 OFFCURVE",
"73 331 CURVE SMOOTH"
);
},
{
closed = 1;
nodes = (
"171 542 OFFCURVE",
"258 653 OFFCURVE",
"407 653 CURVE SMOOTH",
"549 653 OFFCURVE",
"633 547 OFFCURVE",
"633 361 CURVE SMOOTH",
"633 164 OFFCURVE",
"550 51 OFFCURVE",
"404 51 CURVE SMOOTH",
"262 51 OFFCURVE",
"171 165 OFFCURVE",
"171 352 CURVE SMOOTH"
);
}
);
width = 784;
},
{
anchors = (
{
name = bottom;
position = "{352, -30}";
},
{
name = top;
position = "{386, 730}";
}
);
background = {
paths = (
{
closed = 1;
nodes = (
"61 120 OFFCURVE",
"176 -14 OFFCURVE",
"355 -14 CURVE SMOOTH",
"548 -14 OFFCURVE",
"676 144 OFFCURVE",
"676 382 CURVE SMOOTH",
"676 586 OFFCURVE",
"564 715 OFFCURVE",
"387 715 CURVE SMOOTH",
"187 715 OFFCURVE",
"61 565 OFFCURVE",
"61 328 CURVE SMOOTH"
);
},
{
closed = 1;
nodes = (
"156 586 OFFCURVE",
"236 698 OFFCURVE",
"373 698 CURVE SMOOTH",
"503 698 OFFCURVE",
"578 592 OFFCURVE",
"578 370 CURVE SMOOTH",
"578 118 OFFCURVE",
"502 4 OFFCURVE",
"368 4 CURVE SMOOTH",
"237 4 OFFCURVE",
"156 118 OFFCURVE",
"156 349 CURVE SMOOTH"
);
}
);
};
hints = (
{
place = "{61, 95}";
type = Stem;
},
{
place = "{578, 98}";
type = Stem;
},
{
horizontal = 1;
place = "{-14, 65}";
type = Stem;
},
{
horizontal = 1;
place = "{653, 62}";
type = Stem;
}
);
layerId = "703BE3CC-3FB5-4948-8633-0DF44FA889B7";
paths = (
{
closed = 1;
nodes = (
"61 114 OFFCURVE",
"176 -14 OFFCURVE",
"355 -14 CURVE SMOOTH",
"548 -14 OFFCURVE",
"676 138 OFFCURVE",
"676 397 CURVE SMOOTH",
"676 622 OFFCURVE",
"565 745 OFFCURVE",
"388 745 CURVE SMOOTH",
"188 745 OFFCURVE",
"61 601 OFFCURVE",
"61 343 CURVE SMOOTH"
);
},
{
closed = 1;
nodes = (
"156 622 OFFCURVE",
"237 728 OFFCURVE",
"374 728 CURVE SMOOTH",
"504 728 OFFCURVE",
"578 628 OFFCURVE",
"578 385 CURVE SMOOTH",
"578 112 OFFCURVE",
"502 4 OFFCURVE",
"368 4 CURVE SMOOTH",
"237 4 OFFCURVE",
"156 112 OFFCURVE",
"156 364 CURVE SMOOTH"
);
}
);
width = 715;
},
{
anchors = (
{
name = bottom;
position = "{340, -30}";
},
{
name = top;
position = "{380, 730}";
}
);
background = {
anchors = (
{
name = bottom;
position = "{352, -30}";
},
{
name = top;
position = "{386, 730}";
}
);
hints = (
{
place = "{61, 95}";
type = Stem;
},
{
place = "{578, 98}";
type = Stem;
},
{
horizontal = 1;
place = "{-14, 65}";
type = Stem;
},
{
horizontal = 1;
place = "{653, 62}";
type = Stem;
}
);
paths = (
{
closed = 1;
nodes = (
"61 120 OFFCURVE",
"176 -14 OFFCURVE",
"355 -14 CURVE SMOOTH",
"548 -14 OFFCURVE",
"676 144 OFFCURVE",
"676 382 CURVE SMOOTH",
"676 586 OFFCURVE",
"564 715 OFFCURVE",
"387 715 CURVE SMOOTH",
"187 715 OFFCURVE",
"61 565 OFFCURVE",
"61 328 CURVE SMOOTH"
);
},
{
closed = 1;
nodes = (
"156 541 OFFCURVE",
"236 653 OFFCURVE",
"373 653 CURVE SMOOTH",
"503 653 OFFCURVE",
"578 547 OFFCURVE",
"578 364 CURVE SMOOTH",
"578 165 OFFCURVE",
"502 51 OFFCURVE",
"368 51 CURVE SMOOTH",
"237 51 OFFCURVE",
"156 165 OFFCURVE",
"156 349 CURVE SMOOTH"
);
}
);
};
hints = (
{
place = "{61, 95}";
type = Stem;
},
{
place = "{578, 98}";
type = Stem;
},
{
horizontal = 1;
place = "{-14, 65}";
type = Stem;
},
{
horizontal = 1;
place = "{653, 62}";
type = Stem;
}
);
layerId = "51A3A961-7A3D-4D9D-A8A6-EF0E27CBF030";
paths = (
{
closed = 1;
nodes = (
"67 120 OFFCURVE",
"172 -14 OFFCURVE",
"346 -14 CURVE SMOOTH",
"534 -14 OFFCURVE",
"646 144 OFFCURVE",
"646 378 CURVE SMOOTH",
"646 583 OFFCURVE",
"543 715 OFFCURVE",
"375 715 CURVE SMOOTH",
"184 715 OFFCURVE",
"67 561 OFFCURVE",
"67 331 CURVE SMOOTH"
);
},
{
closed = 1;
nodes = (
"120 547 OFFCURVE",
"219 670 OFFCURVE",
"368 670 CURVE SMOOTH",
"516 670 OFFCURVE",
"597 559 OFFCURVE",
"595 367 CURVE SMOOTH",
"593 155 OFFCURVE",
"503 31 OFFCURVE",
"355 31 CURVE SMOOTH",
"202 31 OFFCURVE",
"116 146 OFFCURVE",
"118 346 CURVE SMOOTH"
);
}
);
width = 693;
},
{
anchors = (
{
name = bottom;
position = "{342, -30}";
},
{
name = top;
position = "{376, 730}";
}
);
background = {
anchors = (
{
name = bottom;
position = "{354, -30}";
},
{
name = top;
position = "{388, 730}";
}
);
hints = (
{
place = "{61, 95}";
type = Stem;
},
{
place = "{578, 98}";
type = Stem;
},
{
horizontal = 1;
place = "{-14, 65}";
type = Stem;
},
{
horizontal = 1;
place = "{653, 62}";
type = Stem;
}
);
paths = (
{
closed = 1;
nodes = (
"63 120 OFFCURVE",
"178 -14 OFFCURVE",
"357 -14 CURVE SMOOTH",
"550 -14 OFFCURVE",
"678 144 OFFCURVE",
"678 382 CURVE SMOOTH",
"678 586 OFFCURVE",
"566 715 OFFCURVE",
"389 715 CURVE SMOOTH",
"189 715 OFFCURVE",
"63 565 OFFCURVE",
"63 328 CURVE SMOOTH"
);
},
{
closed = 1;
nodes = (
"158 541 OFFCURVE",
"238 653 OFFCURVE",
"375 653 CURVE SMOOTH",
"505 653 OFFCURVE",
"580 547 OFFCURVE",
"580 364 CURVE SMOOTH",
"580 165 OFFCURVE",
"504 51 OFFCURVE",
"370 51 CURVE SMOOTH",
"239 51 OFFCURVE",
"158 165 OFFCURVE",
"158 349 CURVE SMOOTH"
);
}
);
};
layerId = "183D4CB5-BDC3-4BCB-9164-6C94CC175920";
paths = (
{
closed = 1;
nodes = (
"33 120 OFFCURVE",
"141 -16 OFFCURVE",
"372 -16 CURVE SMOOTH",
"627 -16 OFFCURVE",
"763 141 OFFCURVE",
"769 382 CURVE SMOOTH",
"774 586 OFFCURVE",
"669 717 OFFCURVE",
"430 717 CURVE SMOOTH",
"178 717 OFFCURVE",
"44 567 OFFCURVE",
"38 328 CURVE SMOOTH"
);
},
{
closed = 1;
nodes = (
"279 511 OFFCURVE",
"324 610 OFFCURVE",
"414 610 CURVE SMOOTH",
"516 610 OFFCURVE",
"535 514 OFFCURVE",
"529 361 CURVE SMOOTH",
"522 190 OFFCURVE",
"496 97 OFFCURVE",
"389 97 CURVE SMOOTH",
"290 97 OFFCURVE",
"269 193 OFFCURVE",
"274 349 CURVE SMOOTH"
);
}
);
width = 797;
}
);
leftKerningGroup = O;
rightKerningGroup = O;
unicode = 004F;
},
{
color = 4;
glyphname = P;
layers = (
{
background = {
paths = (
{
closed = 1;
nodes = (
"284 287 LINE",
"297 285 OFFCURVE",
"310 284 OFFCURVE",
"322 284 CURVE SMOOTH",
"470 284 OFFCURVE",
"569 371 OFFCURVE",
"569 502 CURVE SMOOTH",
"569 632 OFFCURVE",
"482 700 OFFCURVE",
"315 700 CURVE SMOOTH",
"88 700 LINE",
"82 654 LINE",
"169 637 LINE",
"144 60 LINE",
"55 44 LINE",
"50 0 LINE",
"356 0 LINE",
"360 45 LINE",
"232 59 LINE",
"255 646 LINE",
"306 646 LINE SMOOTH",
"416 646 OFFCURVE",
"472 598 OFFCURVE",
"472 503 CURVE SMOOTH",
"472 394 OFFCURVE",
"419 338 OFFCURVE",
"318 338 CURVE SMOOTH",
"304 338 OFFCURVE",
"297 338 OFFCURVE",
"287 339 CURVE"
);
}
);
};
hints = (
{
place = "{156, 87}";
type = Stem;
},
{
place = "{472, 97}";
type = Stem;
},
{
horizontal = 1;
place = "{284, 54}";
type = Stem;
},
{
horizontal = 1;
place = "{646, 54}";
type = Stem;
},
{
horizontal = 1;
place = "{0, 21}";
target = up;
type = BottomGhost;
}
);
layerId = UUID0;
paths = (
{
closed = 1;
nodes = (
"284 287 LINE",
"297 285 OFFCURVE",
"310 284 OFFCURVE",
"322 284 CURVE SMOOTH",
"470 284 OFFCURVE",
"569 371 OFFCURVE",
"569 502 CURVE SMOOTH",
"569 632 OFFCURVE",
"482 700 OFFCURVE",
"315 700 CURVE SMOOTH",
"88 700 LINE",
"82 654 LINE",
"169 637 LINE",
"144 60 LINE",
"55 44 LINE",
"50 0 LINE",
"356 0 LINE",
"360 45 LINE",
"232 59 LINE",
"255 646 LINE",
"306 646 LINE SMOOTH",
"416 646 OFFCURVE",
"472 598 OFFCURVE",
"472 503 CURVE SMOOTH",
"472 394 OFFCURVE",
"419 338 OFFCURVE",
"318 338 CURVE SMOOTH",
"304 338 OFFCURVE",
"296 338 OFFCURVE",
"287 339 CURVE"
);
}
);
width = 584;
},
{
background = {
paths = (
{
closed = 1;
nodes = (
"284 1287 LINE",
"297 1285 OFFCURVE",
"310 1284 OFFCURVE",
"322 1284 CURVE SMOOTH",
"470 1284 OFFCURVE",
"569 1371 OFFCURVE",
"569 1502 CURVE SMOOTH",
"569 1632 OFFCURVE",
"482 1700 OFFCURVE",
"315 1700 CURVE SMOOTH",
"88 1700 LINE",
"82 1654 LINE",
"169 1637 LINE",
"144 1060 LINE",
"55 1044 LINE",
"50 1000 LINE",
"356 1000 LINE",
"360 1045 LINE",
"232 1059 LINE",
"255 1646 LINE",
"306 1646 LINE SMOOTH",
"416 1646 OFFCURVE",
"472 1598 OFFCURVE",
"472 1503 CURVE SMOOTH",
"472 1394 OFFCURVE",
"419 1338 OFFCURVE",
"318 1338 CURVE SMOOTH",
"304 1338 OFFCURVE",
"297 1338 OFFCURVE",
"287 1339 CURVE"
);
},
{
closed = 1;
nodes = (
"609 651 OFFCURVE",
"523 700 OFFCURVE",
"343 700 CURVE SMOOTH",
"102 700 LINE",
"95 654 LINE",
"189 637 LINE",
"166 60 LINE",
"69 44 LINE",
"64 0 LINE",
"314 0 LINE SMOOTH",
"519 0 OFFCURVE",
"641 76 OFFCURVE",
"641 204 CURVE SMOOTH",
"641 297 OFFCURVE",
"576 356 OFFCURVE",
"442 369 CURVE",
"442 378 LINE",
"550 407 OFFCURVE",
"609 475 OFFCURVE",
"609 548 CURVE SMOOTH"
);
},
{
closed = 1;
nodes = (
"315 324 LINE",
"337 327 OFFCURVE",
"357 329 OFFCURVE",
"381 329 CURVE SMOOTH",
"486 329 OFFCURVE",
"541 291 OFFCURVE",
"541 207 CURVE SMOOTH",
"541 106 OFFCURVE",
"469 57 OFFCURVE",
"328 57 CURVE SMOOTH",
"256 57 LINE",
"277 643 LINE",
"335 643 LINE SMOOTH",
"445 643 OFFCURVE",
"509 620 OFFCURVE",
"509 536 CURVE SMOOTH",
"509 450 OFFCURVE",
"444 404 OFFCURVE",
"317 386 CURVE"
);
}
);
};
hints = (
{
place = "{156, 87}";
type = Stem;
},
{
place = "{472, 97}";
type = Stem;
},
{
horizontal = 1;
place = "{284, 54}";
type = Stem;
},
{
horizontal = 1;
place = "{646, 54}";
type = Stem;
},
{
horizontal = 1;
place = "{0, 21}";
target = up;
type = BottomGhost;
}
);
layerId = "D666A065-31E2-40D8-BE19-B3556ED1E29D";
paths = (
{
closed = 1;
nodes = (
"312 287 LINE",
"326 285 OFFCURVE",
"340 284 OFFCURVE",
"352 284 CURVE SMOOTH",
"511 284 OFFCURVE",
"616 371 OFFCURVE",
"616 501 CURVE SMOOTH",
"616 632 OFFCURVE",
"522 700 OFFCURVE",
"342 700 CURVE SMOOTH",
"102 700 LINE",
"95 654 LINE",
"189 637 LINE",
"166 60 LINE",
"69 44 LINE",
"64 0 LINE",
"391 0 LINE",
"395 45 LINE",
"256 60 LINE",
"277 643 LINE",
"336 643 LINE SMOOTH",
"463 643 OFFCURVE",
"517 595 OFFCURVE",
"517 502 CURVE SMOOTH",
"517 394 OFFCURVE",
"458 338 OFFCURVE",
"349 338 CURVE SMOOTH",
"336 338 OFFCURVE",
"325 338 OFFCURVE",
"315 339 CURVE"
);
}
);
width = 640;
},
{
background = {
paths = (
{
closed = 1;
nodes = (
"283 301 LINE",
"296 299 OFFCURVE",
"309 298 OFFCURVE",
"321 298 CURVE SMOOTH",
"469 298 OFFCURVE",
"569 376 OFFCURVE",
"569 504 CURVE SMOOTH",
"569 632 OFFCURVE",
"482 700 OFFCURVE",
"315 700 CURVE SMOOTH",
"89 700 LINE",
"87 683 LINE",
"169 668 LINE",
"143 30 LINE",
"59 18 LINE",
"57 0 LINE",
"342 0 LINE",
"344 18 LINE",
"229 30 LINE",
"256 677 LINE",
"307 677 LINE SMOOTH",
"417 677 OFFCURVE",
"472 628 OFFCURVE",
"472 500 CURVE SMOOTH",
"472 374 OFFCURVE",
"418 318 OFFCURVE",
"317 318 CURVE SMOOTH",
"305 318 OFFCURVE",
"294 319 OFFCURVE",
"285 320 CURVE"
);
}
);
};
hints = (
{
place = "{156, 87}";
type = Stem;
},
{
place = "{472, 97}";
type = Stem;
},
{
horizontal = 1;
place = "{284, 54}";
type = Stem;
},
{
horizontal = 1;
place = "{646, 54}";
type = Stem;
},
{
horizontal = 1;
place = "{0, 21}";
target = up;
type = BottomGhost;
}
);
layerId = "703BE3CC-3FB5-4948-8633-0DF44FA889B7";
paths = (
{
closed = 1;
nodes = (
"283 311 LINE",
"296 309 OFFCURVE",
"309 308 OFFCURVE",
"321 308 CURVE SMOOTH",
"469 308 OFFCURVE",
"569 386 OFFCURVE",
"569 524 CURVE SMOOTH",
"569 662 OFFCURVE",
"483 730 OFFCURVE",
"316 730 CURVE SMOOTH",
"90 730 LINE",
"88 713 LINE",
"170 698 LINE",
"143 30 LINE",
"59 18 LINE",
"57 0 LINE",
"342 0 LINE",
"344 18 LINE",
"229 30 LINE",
"257 707 LINE",
"308 707 LINE SMOOTH",
"418 707 OFFCURVE",
"472 658 OFFCURVE",
"472 520 CURVE SMOOTH",
"472 384 OFFCURVE",
"418 328 OFFCURVE",
"317 328 CURVE SMOOTH",
"305 328 OFFCURVE",
"294 329 OFFCURVE",
"285 330 CURVE"
);
}
);
width = 588;
},
{
background = {
hints = (
{
place = "{156, 87}";
type = Stem;
},
{
place = "{472, 97}";
type = Stem;
},
{
horizontal = 1;
place = "{284, 54}";
type = Stem;
},
{
horizontal = 1;
place = "{646, 54}";
type = Stem;
},
{
horizontal = 1;
place = "{0, 21}";
target = up;
type = BottomGhost;
}
);
paths = (
{
closed = 1;
nodes = (
"284 287 LINE",
"297 285 OFFCURVE",
"310 284 OFFCURVE",
"322 284 CURVE SMOOTH",
"470 284 OFFCURVE",
"569 371 OFFCURVE",
"569 502 CURVE SMOOTH",
"569 632 OFFCURVE",
"482 700 OFFCURVE",
"315 700 CURVE SMOOTH",
"88 700 LINE",
"82 654 LINE",
"169 637 LINE",
"144 60 LINE",
"55 44 LINE",
"50 0 LINE",
"356 0 LINE",
"360 45 LINE",
"232 59 LINE",
"255 646 LINE",
"306 646 LINE SMOOTH",
"416 646 OFFCURVE",
"472 598 OFFCURVE",
"472 503 CURVE SMOOTH",
"472 394 OFFCURVE",
"419 338 OFFCURVE",
"318 338 CURVE SMOOTH",
"304 338 OFFCURVE",
"296 338 OFFCURVE",
"287 339 CURVE"
);
}
);
};
hints = (
{
place = "{156, 87}";
type = Stem;
},
{
place = "{472, 97}";
type = Stem;
},
{
horizontal = 1;
place = "{284, 54}";
type = Stem;
},
{
horizontal = 1;
place = "{646, 54}";
type = Stem;
},
{
horizontal = 1;
place = "{0, 21}";
target = up;
type = BottomGhost;
}
);
layerId = "51A3A961-7A3D-4D9D-A8A6-EF0E27CBF030";
paths = (
{
closed = 1;
nodes = (
"253 301 LINE",
"263 299 OFFCURVE",
"276 298 OFFCURVE",
"290 298 CURVE SMOOTH",
"433 298 OFFCURVE",
"517 377 OFFCURVE",
"517 502 CURVE SMOOTH",
"517 616 OFFCURVE",
"444 700 OFFCURVE",
"284 700 CURVE SMOOTH",
"87 700 LINE",
"83 668 LINE",
"170 655 LINE",
"146 46 LINE",
"62 32 LINE",
"58 0 LINE",
"326 0 LINE",
"329 32 LINE",
"193 45 LINE",
"217 661 LINE",
"276 661 LINE SMOOTH",
"399 661 OFFCURVE",
"466 607 OFFCURVE",
"466 505 CURVE SMOOTH",
"466 392 OFFCURVE",
"408 333 OFFCURVE",
"286 333 CURVE SMOOTH",
"273 333 OFFCURVE",
"263 333 OFFCURVE",
"255 334 CURVE"
);
}
);
width = 534;
},
{
background = {
hints = (
{
place = "{156, 87}";
type = Stem;
},
{
place = "{472, 97}";
type = Stem;
},
{
horizontal = 1;
place = "{284, 54}";
type = Stem;
},
{
horizontal = 1;
place = "{646, 54}";
type = Stem;
},
{
horizontal = 1;
place = "{0, 21}";
target = up;
type = BottomGhost;
}
);
paths = (
{
closed = 1;
nodes = (
"275 287 LINE",
"288 285 OFFCURVE",
"301 284 OFFCURVE",
"313 284 CURVE SMOOTH",
"461 284 OFFCURVE",
"560 371 OFFCURVE",
"560 502 CURVE SMOOTH",
"560 632 OFFCURVE",
"473 700 OFFCURVE",
"306 700 CURVE SMOOTH",
"79 700 LINE",
"73 654 LINE",
"160 637 LINE",
"135 60 LINE",
"46 44 LINE",
"41 0 LINE",
"347 0 LINE",
"351 45 LINE",
"223 59 LINE",
"246 646 LINE",
"297 646 LINE SMOOTH",
"407 646 OFFCURVE",
"463 598 OFFCURVE",
"463 503 CURVE SMOOTH",
"463 394 OFFCURVE",
"410 338 OFFCURVE",
"309 338 CURVE SMOOTH",
"295 338 OFFCURVE",
"287 338 OFFCURVE",
"278 339 CURVE"
);
}
);
};
hints = (
{
place = "{156, 87}";
type = Stem;
},
{
place = "{472, 97}";
type = Stem;
},
{
horizontal = 1;
place = "{284, 54}";
type = Stem;
},
{
horizontal = 1;
place = "{646, 54}";
type = Stem;
},
{
horizontal = 1;
place = "{0, 21}";
target = up;
type = BottomGhost;
}
);
layerId = "183D4CB5-BDC3-4BCB-9164-6C94CC175920";
paths = (
{
closed = 1;
nodes = (
"367 261 LINE",
"388 259 OFFCURVE",
"416 258 OFFCURVE",
"445 258 CURVE SMOOTH",
"608 258 OFFCURVE",
"728 368 OFFCURVE",
"728 501 CURVE SMOOTH",
"728 627 OFFCURVE",
"636 700 OFFCURVE",
"473 700 CURVE SMOOTH",
"45 700 LINE",
"39 611 LINE",
"124 594 LINE",
"100 105 LINE",
"13 89 LINE",
"7 0 LINE",
"437 0 LINE",
"442 91 LINE",
"331 105 LINE",
"356 602 LINE",
"378 602 LINE SMOOTH",
"450 602 OFFCURVE",
"490 571 OFFCURVE",
"490 488 CURVE SMOOTH",
"490 399 OFFCURVE",
"453 353 OFFCURVE",
"398 353 CURVE SMOOTH",
"383 353 OFFCURVE",
"380 353 OFFCURVE",
"370 354 CURVE"
);
}
);
width = 736;
}
);
leftKerningGroup = P;
rightKerningGroup = P;
unicode = 0050;
},
{
color = 4;
glyphname = Q;
layers = (
{
background = {
paths = (
{
closed = 1;
nodes = (
"62 187 OFFCURVE",
"142 72 OFFCURVE",
"277 37 CURVE",
"277 32 LINE",
"248 26 OFFCURVE",
"217 15 OFFCURVE",
"187 0 CURVE",
"211 -54 LINE",
"277 -25 OFFCURVE",
"299 -18 OFFCURVE",
"335 -18 CURVE SMOOTH",
"395 -18 OFFCURVE",
"422 -41 OFFCURVE",
"496 -100 CURVE SMOOTH",
"563 -153 OFFCURVE",
"607 -174 OFFCURVE",
"651 -174 CURVE SMOOTH",
"699 -174 OFFCURVE",
"733 -143 OFFCURVE",
"733 -100 CURVE SMOOTH",
"733 -58 OFFCURVE",
"700 -33 OFFCURVE",
"646 -33 CURVE",
"638 -63 LINE SMOOTH",
"628 -100 OFFCURVE",
"603 -94 OFFCURVE",
"532 -43 CURVE SMOOTH",
"479 -5 OFFCURVE",
"438 14 OFFCURVE",
"385 24 CURVE",
"385 32 LINE",
"577 56 OFFCURVE",
"677 178 OFFCURVE",
"677 390 CURVE SMOOTH",
"677 587 OFFCURVE",
"563 715 OFFCURVE",
"388 715 CURVE SMOOTH",
"188 715 OFFCURVE",
"62 573 OFFCURVE",
"62 346 CURVE SMOOTH"
);
},
{
closed = 1;
nodes = (
"157 546 OFFCURVE",
"235 653 OFFCURVE",
"374 653 CURVE SMOOTH",
"502 653 OFFCURVE",
"579 549 OFFCURVE",
"579 376 CURVE SMOOTH",
"579 194 OFFCURVE",
"494 75 OFFCURVE",
"363 75 CURVE SMOOTH",
"230 75 OFFCURVE",
"157 174 OFFCURVE",
"157 355 CURVE SMOOTH"
);
}
);
};
hints = (
{
place = "{52, 95}";
type = Stem;
},
{
place = "{569, 98}";
type = Stem;
},
{
place = "{569, 154}";
type = Stem;
},
{
horizontal = 1;
place = "{-174, 141}";
type = Stem;
},
{
horizontal = 1;
place = "{-18, 93}";
type = Stem;
},
{
horizontal = 1;
place = "{653, 62}";
type = Stem;
}
);
layerId = UUID0;
paths = (
{
closed = 1;
nodes = (
"62 187 OFFCURVE",
"142 72 OFFCURVE",
"277 37 CURVE",
"277 32 LINE",
"248 26 OFFCURVE",
"217 15 OFFCURVE",
"187 0 CURVE",
"211 -54 LINE",
"277 -25 OFFCURVE",
"299 -18 OFFCURVE",
"335 -18 CURVE SMOOTH",
"386 -18 OFFCURVE",
"411 -31 OFFCURVE",
"496 -100 CURVE SMOOTH",
"562 -154 OFFCURVE",
"607 -174 OFFCURVE",
"651 -174 CURVE SMOOTH",
"699 -174 OFFCURVE",
"733 -143 OFFCURVE",
"733 -100 CURVE SMOOTH",
"733 -58 OFFCURVE",
"700 -33 OFFCURVE",
"646 -33 CURVE",
"638 -63 LINE SMOOTH",
"628 -99 OFFCURVE",
"604 -95 OFFCURVE",
"532 -43 CURVE SMOOTH",
"479 -5 OFFCURVE",
"438 14 OFFCURVE",
"385 24 CURVE",
"385 32 LINE",
"577 56 OFFCURVE",
"677 178 OFFCURVE",
"677 390 CURVE SMOOTH",
"677 587 OFFCURVE",
"563 715 OFFCURVE",
"388 715 CURVE SMOOTH",
"188 715 OFFCURVE",
"62 573 OFFCURVE",
"62 346 CURVE SMOOTH"
);
},
{
closed = 1;
nodes = (
"157 546 OFFCURVE",
"235 653 OFFCURVE",
"374 653 CURVE SMOOTH",
"502 653 OFFCURVE",
"579 549 OFFCURVE",
"579 376 CURVE SMOOTH",
"579 194 OFFCURVE",
"494 75 OFFCURVE",
"363 75 CURVE SMOOTH",
"230 75 OFFCURVE",
"157 174 OFFCURVE",
"157 355 CURVE SMOOTH"
);
}
);
width = 712;
},
{
background = {
paths = (
{
closed = 1;
nodes = (
"61 1302 OFFCURVE",
"141 1187 OFFCURVE",
"276 1152 CURVE",
"276 1147 LINE",
"247 1141 OFFCURVE",
"216 1130 OFFCURVE",
"186 1115 CURVE",
"210 1061 LINE",
"276 1090 OFFCURVE",
"298 1097 OFFCURVE",
"334 1097 CURVE SMOOTH",
"394 1097 OFFCURVE",
"421 1074 OFFCURVE",
"495 1015 CURVE SMOOTH",
"562 962 OFFCURVE",
"606 941 OFFCURVE",
"650 941 CURVE SMOOTH",
"698 941 OFFCURVE",
"732 972 OFFCURVE",
"732 1015 CURVE SMOOTH",
"732 1057 OFFCURVE",
"699 1082 OFFCURVE",
"645 1082 CURVE",
"637 1052 LINE SMOOTH",
"627 1015 OFFCURVE",
"602 1021 OFFCURVE",
"531 1072 CURVE SMOOTH",
"478 1110 OFFCURVE",
"437 1129 OFFCURVE",
"384 1139 CURVE",
"384 1147 LINE",
"576 1171 OFFCURVE",
"676 1293 OFFCURVE",
"676 1505 CURVE SMOOTH",
"676 1702 OFFCURVE",
"562 1830 OFFCURVE",
"387 1830 CURVE SMOOTH",
"187 1830 OFFCURVE",
"61 1688 OFFCURVE",
"61 1461 CURVE SMOOTH"
);
},
{
closed = 1;
nodes = (
"156 1661 OFFCURVE",
"234 1768 OFFCURVE",
"373 1768 CURVE SMOOTH",
"501 1768 OFFCURVE",
"578 1664 OFFCURVE",
"578 1491 CURVE SMOOTH",
"578 1309 OFFCURVE",
"493 1190 OFFCURVE",
"362 1190 CURVE SMOOTH",
"229 1190 OFFCURVE",
"156 1289 OFFCURVE",
"156 1470 CURVE SMOOTH"
);
},
{
closed = 1;
nodes = (
"73 188 OFFCURVE",
"160 72 OFFCURVE",
"306 37 CURVE",
"306 32 LINE",
"275 26 OFFCURVE",
"242 16 OFFCURVE",
"210 0 CURVE",
"235 -54 LINE",
"307 -25 OFFCURVE",
"330 -18 OFFCURVE",
"369 -18 CURVE SMOOTH",
"425 -18 OFFCURVE",
"452 -31 OFFCURVE",
"544 -100 CURVE SMOOTH",
"612 -151 OFFCURVE",
"662 -174 OFFCURVE",
"711 -174 CURVE SMOOTH",
"762 -174 OFFCURVE",
"798 -143 OFFCURVE",
"798 -100 CURVE SMOOTH",
"798 -58 OFFCURVE",
"762 -33 OFFCURVE",
"705 -33 CURVE",
"696 -63 LINE SMOOTH",
"686 -95 OFFCURVE",
"670 -101 OFFCURVE",
"582 -43 CURVE SMOOTH",
"525 -6 OFFCURVE",
"479 14 OFFCURVE",
"423 24 CURVE",
"423 32 LINE",
"629 56 OFFCURVE",
"734 177 OFFCURVE",
"734 387 CURVE SMOOTH",
"734 587 OFFCURVE",
"609 715 OFFCURVE",
"422 715 CURVE SMOOTH",
"209 715 OFFCURVE",
"73 574 OFFCURVE",
"73 348 CURVE SMOOTH"
);
},
{
closed = 1;
nodes = (
"171 547 OFFCURVE",
"256 653 OFFCURVE",
"407 653 CURVE SMOOTH",
"548 653 OFFCURVE",
"633 547 OFFCURVE",
"633 374 CURVE SMOOTH",
"633 194 OFFCURVE",
"540 75 OFFCURVE",
"397 75 CURVE SMOOTH",
"252 75 OFFCURVE",
"171 174 OFFCURVE",
"171 358 CURVE SMOOTH"
);
}
);
};
hints = (
{
place = "{52, 95}";
type = Stem;
},
{
place = "{569, 98}";
type = Stem;
},
{
place = "{569, 154}";
type = Stem;
},
{
horizontal = 1;
place = "{-174, 141}";
type = Stem;
},
{
horizontal = 1;
place = "{-18, 93}";
type = Stem;
},
{
horizontal = 1;
place = "{653, 62}";
type = Stem;
}
);
layerId = "D666A065-31E2-40D8-BE19-B3556ED1E29D";
paths = (
{
closed = 1;
nodes = (
"73 188 OFFCURVE",
"157 72 OFFCURVE",
"312 35 CURVE",
"312 30 LINE",
"281 24 OFFCURVE",
"242 16 OFFCURVE",
"210 0 CURVE",
"235 -56 LINE",
"277 -35 OFFCURVE",
"319 -25 OFFCURVE",
"358 -25 CURVE SMOOTH",
"414 -25 OFFCURVE",
"474 -46 OFFCURVE",
"550 -100 CURVE SMOOTH",
"620 -149 OFFCURVE",
"668 -174 OFFCURVE",
"717 -174 CURVE SMOOTH",
"771 -174 OFFCURVE",
"798 -141 OFFCURVE",
"798 -98 CURVE SMOOTH",
"798 -56 OFFCURVE",
"763 -35 OFFCURVE",
"716 -35 CURVE",
"707 -65 LINE SMOOTH",
"696 -103 OFFCURVE",
"670 -107 OFFCURVE",
"575 -43 CURVE SMOOTH",
"519 -5 OFFCURVE",
"473 16 OFFCURVE",
"417 26 CURVE",
"417 32 LINE",
"609 50 OFFCURVE",
"731 177 OFFCURVE",
"731 387 CURVE SMOOTH",
"731 587 OFFCURVE",
"609 715 OFFCURVE",
"422 715 CURVE SMOOTH",
"209 715 OFFCURVE",
"73 574 OFFCURVE",
"73 348 CURVE SMOOTH"
);
},
{
closed = 1;
nodes = (
"171 547 OFFCURVE",
"256 653 OFFCURVE",
"407 653 CURVE SMOOTH",
"554 653 OFFCURVE",
"633 547 OFFCURVE",
"633 374 CURVE SMOOTH",
"633 194 OFFCURVE",
"540 75 OFFCURVE",
"397 75 CURVE SMOOTH",
"252 75 OFFCURVE",
"171 174 OFFCURVE",
"171 358 CURVE SMOOTH"
);
}
);
width = 780;
},
{
background = {
paths = (
{
closed = 1;
nodes = (
"62 -914 OFFCURVE",
"142 -1029 OFFCURVE",
"277 -1064 CURVE",
"277 -1069 LINE",
"248 -1075 OFFCURVE",
"217 -1086 OFFCURVE",
"187 -1101 CURVE",
"211 -1155 LINE",
"277 -1126 OFFCURVE",
"299 -1119 OFFCURVE",
"335 -1119 CURVE SMOOTH",
"395 -1119 OFFCURVE",
"422 -1142 OFFCURVE",
"496 -1201 CURVE SMOOTH",
"563 -1254 OFFCURVE",
"607 -1275 OFFCURVE",
"651 -1275 CURVE SMOOTH",
"699 -1275 OFFCURVE",
"733 -1244 OFFCURVE",
"733 -1201 CURVE SMOOTH",
"733 -1159 OFFCURVE",
"700 -1134 OFFCURVE",
"646 -1134 CURVE",
"638 -1164 LINE SMOOTH",
"628 -1201 OFFCURVE",
"603 -1195 OFFCURVE",
"532 -1144 CURVE SMOOTH",
"479 -1106 OFFCURVE",
"438 -1087 OFFCURVE",
"385 -1077 CURVE",
"385 -1069 LINE",
"577 -1045 OFFCURVE",
"677 -923 OFFCURVE",
"677 -711 CURVE SMOOTH",
"677 -514 OFFCURVE",
"563 -386 OFFCURVE",
"388 -386 CURVE SMOOTH",
"188 -386 OFFCURVE",
"62 -528 OFFCURVE",
"62 -755 CURVE SMOOTH"
);
},
{
closed = 1;
nodes = (
"157 -555 OFFCURVE",
"235 -448 OFFCURVE",
"374 -448 CURVE SMOOTH",
"502 -448 OFFCURVE",
"579 -552 OFFCURVE",
"579 -725 CURVE SMOOTH",
"579 -907 OFFCURVE",
"494 -1026 OFFCURVE",
"363 -1026 CURVE SMOOTH",
"230 -1026 OFFCURVE",
"157 -927 OFFCURVE",
"157 -746 CURVE SMOOTH"
);
},
{
closed = 1;
nodes = (
"61 113 OFFCURVE",
"176 -15 OFFCURVE",
"355 -15 CURVE SMOOTH",
"548 -15 OFFCURVE",
"676 137 OFFCURVE",
"676 396 CURVE SMOOTH",
"676 621 OFFCURVE",
"565 744 OFFCURVE",
"388 744 CURVE SMOOTH",
"188 744 OFFCURVE",
"61 600 OFFCURVE",
"61 342 CURVE SMOOTH"
);
},
{
closed = 1;
nodes = (
"156 621 OFFCURVE",
"237 727 OFFCURVE",
"374 727 CURVE SMOOTH",
"504 727 OFFCURVE",
"578 627 OFFCURVE",
"578 384 CURVE SMOOTH",
"578 111 OFFCURVE",
"502 3 OFFCURVE",
"368 3 CURVE SMOOTH",
"237 3 OFFCURVE",
"156 111 OFFCURVE",
"156 363 CURVE SMOOTH"
);
}
);
};
hints = (
{
place = "{52, 95}";
type = Stem;
},
{
place = "{569, 98}";
type = Stem;
},
{
place = "{569, 154}";
type = Stem;
},
{
horizontal = 1;
place = "{-174, 141}";
type = Stem;
},
{
horizontal = 1;
place = "{-18, 93}";
type = Stem;
},
{
horizontal = 1;
place = "{653, 62}";
type = Stem;
}
);
layerId = "703BE3CC-3FB5-4948-8633-0DF44FA889B7";
paths = (
{
closed = 1;
nodes = (
"61 150 OFFCURVE",
"142 47 OFFCURVE",
"277 12 CURVE",
"277 9 LINE",
"248 3 OFFCURVE",
"218 -9 OFFCURVE",
"196 -23 CURVE",
"204 -39 LINE",
"236 -20 OFFCURVE",
"281 -5 OFFCURVE",
"331 -5 CURVE SMOOTH",
"389 -5 OFFCURVE",
"422 -21 OFFCURVE",
"504 -85 CURVE SMOOTH",
"580 -145 OFFCURVE",
"609 -172 OFFCURVE",
"661 -172 CURVE SMOOTH",
"699 -172 OFFCURVE",
"733 -148 OFFCURVE",
"733 -105 CURVE SMOOTH",
"733 -63 OFFCURVE",
"700 -38 OFFCURVE",
"646 -38 CURVE",
"638 -68 LINE SMOOTH",
"628 -104 OFFCURVE",
"585 -116 OFFCURVE",
"524 -69 CURVE SMOOTH",
"471 -28 OFFCURVE",
"430 0 OFFCURVE",
"385 6 CURVE",
"385 8 LINE",
"573 25 OFFCURVE",
"676 161 OFFCURVE",
"676 398 CURVE SMOOTH",
"676 622 OFFCURVE",
"565 745 OFFCURVE",
"388 745 CURVE SMOOTH",
"188 745 OFFCURVE",
"61 601 OFFCURVE",
"61 343 CURVE SMOOTH"
);
},
{
closed = 1;
nodes = (
"156 622 OFFCURVE",
"237 728 OFFCURVE",
"374 728 CURVE SMOOTH",
"504 728 OFFCURVE",
"578 628 OFFCURVE",
"578 384 CURVE SMOOTH",
"578 124 OFFCURVE",
"489 22 OFFCURVE",
"363 22 CURVE SMOOTH",
"230 22 OFFCURVE",
"156 143 OFFCURVE",
"156 363 CURVE SMOOTH"
);
}
);
width = 712;
},
{
background = {
anchors = (
{
name = bottom;
position = "{341, -1}";
},
{
name = top;
position = "{381, 759}";
}
);
hints = (
{
place = "{52, 95}";
type = Stem;
},
{
place = "{569, 98}";
type = Stem;
},
{
place = "{569, 154}";
type = Stem;
},
{
horizontal = 1;
place = "{-174, 141}";
type = Stem;
},
{
horizontal = 1;
place = "{-18, 93}";
type = Stem;
},
{
horizontal = 1;
place = "{653, 62}";
type = Stem;
}
);
paths = (
{
closed = 1;
nodes = (
"-637 1257 OFFCURVE",
"-557 1142 OFFCURVE",
"-422 1107 CURVE",
"-422 1102 LINE",
"-451 1096 OFFCURVE",
"-482 1085 OFFCURVE",
"-512 1070 CURVE",
"-488 1016 LINE",
"-422 1045 OFFCURVE",
"-400 1052 OFFCURVE",
"-364 1052 CURVE SMOOTH",
"-313 1052 OFFCURVE",
"-288 1039 OFFCURVE",
"-203 970 CURVE SMOOTH",
"-137 916 OFFCURVE",
"-92 896 OFFCURVE",
"-48 896 CURVE SMOOTH",
"0 896 OFFCURVE",
"34 927 OFFCURVE",
"34 970 CURVE SMOOTH",
"34 1012 OFFCURVE",
"1 1037 OFFCURVE",
"-53 1037 CURVE",
"-61 1007 LINE SMOOTH",
"-71 971 OFFCURVE",
"-95 975 OFFCURVE",
"-167 1027 CURVE SMOOTH",
"-220 1065 OFFCURVE",
"-261 1084 OFFCURVE",
"-314 1094 CURVE",
"-314 1102 LINE",
"-122 1126 OFFCURVE",
"-22 1248 OFFCURVE",
"-22 1460 CURVE SMOOTH",
"-22 1657 OFFCURVE",
"-136 1785 OFFCURVE",
"-311 1785 CURVE SMOOTH",
"-511 1785 OFFCURVE",
"-637 1643 OFFCURVE",
"-637 1416 CURVE SMOOTH"
);
},
{
closed = 1;
nodes = (
"-542 1616 OFFCURVE",
"-464 1723 OFFCURVE",
"-325 1723 CURVE SMOOTH",
"-197 1723 OFFCURVE",
"-120 1619 OFFCURVE",
"-120 1446 CURVE SMOOTH",
"-120 1264 OFFCURVE",
"-205 1145 OFFCURVE",
"-336 1145 CURVE SMOOTH",
"-469 1145 OFFCURVE",
"-542 1244 OFFCURVE",
"-542 1425 CURVE SMOOTH"
);
},
{
closed = 1;
nodes = (
"-632 132 OFFCURVE",
"-527 -2 OFFCURVE",
"-353 -2 CURVE SMOOTH",
"-165 -2 OFFCURVE",
"-53 156 OFFCURVE",
"-53 390 CURVE SMOOTH",
"-53 595 OFFCURVE",
"-156 727 OFFCURVE",
"-324 727 CURVE SMOOTH",
"-515 727 OFFCURVE",
"-632 573 OFFCURVE",
"-632 343 CURVE SMOOTH"
);
},
{
closed = 1;
nodes = (
"-579 559 OFFCURVE",
"-480 682 OFFCURVE",
"-331 682 CURVE SMOOTH",
"-183 682 OFFCURVE",
"-102 571 OFFCURVE",
"-104 379 CURVE SMOOTH",
"-106 167 OFFCURVE",
"-196 43 OFFCURVE",
"-344 43 CURVE SMOOTH",
"-497 43 OFFCURVE",
"-583 158 OFFCURVE",
"-581 358 CURVE SMOOTH"
);
},
{
closed = 1;
nodes = (
"68 168 OFFCURVE",
"154 58 OFFCURVE",
"279 29 CURVE",
"279 26 LINE",
"250 20 OFFCURVE",
"220 12 OFFCURVE",
"190 -3 CURVE",
"207 -40 LINE",
"240 -21 OFFCURVE",
"286 -7 OFFCURVE",
"323 -7 CURVE SMOOTH",
"379 -7 OFFCURVE",
"415 -22 OFFCURVE",
"500 -85 CURVE SMOOTH",
"571 -138 OFFCURVE",
"609 -157 OFFCURVE",
"652 -157 CURVE SMOOTH",
"691 -157 OFFCURVE",
"719 -134 OFFCURVE",
"719 -99 CURVE SMOOTH",
"719 -64 OFFCURVE",
"696 -48 OFFCURVE",
"649 -48 CURVE",
"644 -72 LINE SMOOTH",
"636 -112 OFFCURVE",
"607 -113 OFFCURVE",
"524 -53 CURVE SMOOTH",
"459 -6 OFFCURVE",
"428 14 OFFCURVE",
"383 22 CURVE",
"383 25 LINE",
"535 40 OFFCURVE",
"647 170 OFFCURVE",
"647 391 CURVE SMOOTH",
"647 586 OFFCURVE",
"544 715 OFFCURVE",
"378 715 CURVE SMOOTH",
"185 715 OFFCURVE",
"68 566 OFFCURVE",
"68 344 CURVE SMOOTH"
);
},
{
closed = 1;
nodes = (
"119 552 OFFCURVE",
"220 670 OFFCURVE",
"369 670 CURVE SMOOTH",
"517 670 OFFCURVE",
"596 564 OFFCURVE",
"596 382 CURVE SMOOTH",
"596 195 OFFCURVE",
"503 60 OFFCURVE",
"356 60 CURVE SMOOTH",
"196 60 OFFCURVE",
"119 173 OFFCURVE",
"119 359 CURVE SMOOTH"
);
},
{
closed = 0;
nodes = (
"-97.345 -364.808 LINE",
"-97.217 -364.936 OFFCURVE",
"-97.088 -365.065 OFFCURVE",
"-96.96 -365.193 CURVE"
);
}
);
};
hints = (
{
place = "{52, 95}";
type = Stem;
},
{
place = "{569, 98}";
type = Stem;
},
{
place = "{569, 154}";
type = Stem;
},
{
horizontal = 1;
place = "{-174, 141}";
type = Stem;
},
{
horizontal = 1;
place = "{-18, 93}";
type = Stem;
},
{
horizontal = 1;
place = "{653, 62}";
type = Stem;
}
);
layerId = "51A3A961-7A3D-4D9D-A8A6-EF0E27CBF030";
paths = (
{
closed = 1;
nodes = (
"68 168 OFFCURVE",
"154 58 OFFCURVE",
"279 29 CURVE",
"279 26 LINE",
"250 20 OFFCURVE",
"220 12 OFFCURVE",
"190 -3 CURVE",
"207 -40 LINE",
"240 -21 OFFCURVE",
"286 -7 OFFCURVE",
"323 -7 CURVE SMOOTH",
"379 -7 OFFCURVE",
"415 -22 OFFCURVE",
"500 -85 CURVE SMOOTH",
"571 -138 OFFCURVE",
"610 -157 OFFCURVE",
"652 -157 CURVE SMOOTH",
"691 -157 OFFCURVE",
"719 -133 OFFCURVE",
"719 -100 CURVE SMOOTH",
"719 -68 OFFCURVE",
"694 -57 OFFCURVE",
"659 -60 CURVE",
"654 -82 LINE SMOOTH",
"646 -115 OFFCURVE",
"612 -117 OFFCURVE",
"524 -53 CURVE SMOOTH",
"459 -6 OFFCURVE",
"428 14 OFFCURVE",
"383 22 CURVE",
"383 25 LINE",
"535 40 OFFCURVE",
"647 170 OFFCURVE",
"647 391 CURVE SMOOTH",
"647 586 OFFCURVE",
"544 715 OFFCURVE",
"378 715 CURVE SMOOTH",
"185 715 OFFCURVE",
"68 566 OFFCURVE",
"68 344 CURVE SMOOTH"
);
},
{
closed = 1;
nodes = (
"119 552 OFFCURVE",
"220 670 OFFCURVE",
"369 670 CURVE SMOOTH",
"517 670 OFFCURVE",
"596 564 OFFCURVE",
"596 382 CURVE SMOOTH",
"596 195 OFFCURVE",
"503 60 OFFCURVE",
"356 60 CURVE SMOOTH",
"196 60 OFFCURVE",
"119 173 OFFCURVE",
"119 359 CURVE SMOOTH"
);
}
);
width = 701;
},
{
background = {
hints = (
{
place = "{52, 95}";
type = Stem;
},
{
place = "{569, 98}";
type = Stem;
},
{
place = "{569, 154}";
type = Stem;
},
{
horizontal = 1;
place = "{-174, 141}";
type = Stem;
},
{
horizontal = 1;
place = "{-18, 93}";
type = Stem;
},
{
horizontal = 1;
place = "{653, 62}";
type = Stem;
}
);
paths = (
{
closed = 1;
nodes = (
"86 187 OFFCURVE",
"166 72 OFFCURVE",
"301 37 CURVE",
"301 32 LINE",
"272 26 OFFCURVE",
"241 15 OFFCURVE",
"211 0 CURVE",
"235 -54 LINE",
"301 -25 OFFCURVE",
"323 -18 OFFCURVE",
"359 -18 CURVE SMOOTH",
"410 -18 OFFCURVE",
"435 -31 OFFCURVE",
"520 -100 CURVE SMOOTH",
"586 -154 OFFCURVE",
"631 -174 OFFCURVE",
"675 -174 CURVE SMOOTH",
"723 -174 OFFCURVE",
"757 -143 OFFCURVE",
"757 -100 CURVE SMOOTH",
"757 -58 OFFCURVE",
"724 -33 OFFCURVE",
"670 -33 CURVE",
"662 -63 LINE SMOOTH",
"652 -99 OFFCURVE",
"628 -95 OFFCURVE",
"556 -43 CURVE SMOOTH",
"503 -5 OFFCURVE",
"462 14 OFFCURVE",
"409 24 CURVE",
"409 32 LINE",
"601 56 OFFCURVE",
"701 178 OFFCURVE",
"701 390 CURVE SMOOTH",
"701 587 OFFCURVE",
"587 715 OFFCURVE",
"412 715 CURVE SMOOTH",
"212 715 OFFCURVE",
"86 573 OFFCURVE",
"86 346 CURVE SMOOTH"
);
},
{
closed = 1;
nodes = (
"181 546 OFFCURVE",
"259 653 OFFCURVE",
"398 653 CURVE SMOOTH",
"526 653 OFFCURVE",
"603 549 OFFCURVE",
"603 376 CURVE SMOOTH",
"603 194 OFFCURVE",
"518 75 OFFCURVE",
"387 75 CURVE SMOOTH",
"254 75 OFFCURVE",
"181 174 OFFCURVE",
"181 355 CURVE SMOOTH"
);
}
);
};
hints = (
{
place = "{52, 95}";
type = Stem;
},
{
place = "{569, 98}";
type = Stem;
},
{
place = "{569, 154}";
type = Stem;
},
{
horizontal = 1;
place = "{-174, 141}";
type = Stem;
},
{
horizontal = 1;
place = "{-18, 93}";
type = Stem;
},
{
horizontal = 1;
place = "{653, 62}";
type = Stem;
}
);
layerId = "183D4CB5-BDC3-4BCB-9164-6C94CC175920";
paths = (
{
closed = 1;
nodes = (
"39 177 OFFCURVE",
"150 75 OFFCURVE",
"290 43 CURVE",
"290 32 LINE",
"257 25 OFFCURVE",
"214 8 OFFCURVE",
"182 -8 CURVE",
"220 -84 LINE",
"276 -57 OFFCURVE",
"306 -50 OFFCURVE",
"336 -50 CURVE SMOOTH",
"373 -50 OFFCURVE",
"404 -73 OFFCURVE",
"471 -123 CURVE SMOOTH",
"549 -181 OFFCURVE",
"612 -209 OFFCURVE",
"678 -209 CURVE SMOOTH",
"765 -209 OFFCURVE",
"800 -156 OFFCURVE",
"800 -106 CURVE SMOOTH",
"800 -43 OFFCURVE",
"761 0 OFFCURVE",
"665 -5 CURVE",
"655 -46 LINE SMOOTH",
"648 -75 OFFCURVE",
"615 -67 OFFCURVE",
"545 -25 CURVE SMOOTH",
"495 5 OFFCURVE",
"462 16 OFFCURVE",
"402 16 CURVE",
"402 28 LINE",
"617 34 OFFCURVE",
"763 187 OFFCURVE",
"763 402 CURVE SMOOTH",
"763 608 OFFCURVE",
"649 715 OFFCURVE",
"426 715 CURVE SMOOTH",
"182 715 OFFCURVE",
"39 581 OFFCURVE",
"39 347 CURVE SMOOTH"
);
},
{
closed = 1;
nodes = (
"273 511 OFFCURVE",
"318 610 OFFCURVE",
"411 610 CURVE SMOOTH",
"504 610 OFFCURVE",
"527 526 OFFCURVE",
"527 394 CURVE SMOOTH",
"527 201 OFFCURVE",
"476 135 OFFCURVE",
"393 135 CURVE SMOOTH",
"296 135 OFFCURVE",
"273 213 OFFCURVE",
"273 353 CURVE SMOOTH"
);
}
);
width = 789;
}
);
leftKerningGroup = O;
leftMetricsKey = O;
rightKerningGroup = O;
unicode = 0051;
},
{
color = 4;
glyphname = R;
layers = (
{
anchors = (
{
name = bottom;
position = "{341, -31}";
},
{
name = top;
position = "{324, 730}";
}
);
background = {
paths = (
{
closed = 1;
nodes = (
"286 321 LINE",
"322 299 OFFCURVE",
"342 270 OFFCURVE",
"373 197 CURVE SMOOTH",
"415 98 LINE SMOOTH",
"456 15 OFFCURVE",
"497 -14 OFFCURVE",
"570 -14 CURVE SMOOTH",
"608 -14 OFFCURVE",
"649 2 OFFCURVE",
"676 28 CURVE",
"656 63 LINE",
"632 51 OFFCURVE",
"614 45 OFFCURVE",
"597 45 CURVE SMOOTH",
"557 45 OFFCURVE",
"537 62 OFFCURVE",
"507 123 CURVE SMOOTH",
"449 243 LINE SMOOTH",
"424 295 OFFCURVE",
"400 319 OFFCURVE",
"355 338 CURVE",
"355 341 LINE",
"475 355 OFFCURVE",
"562 435 OFFCURVE",
"562 532 CURVE SMOOTH",
"562 648 OFFCURVE",
"485 700 OFFCURVE",
"315 700 CURVE SMOOTH",
"88 700 LINE",
"82 654 LINE",
"169 637 LINE",
"144 60 LINE",
"55 44 LINE",
"50 0 LINE",
"336 0 LINE",
"341 44 LINE",
"233 58 LINE",
"255 646 LINE",
"306 646 LINE SMOOTH",
"419 646 OFFCURVE",
"465 611 OFFCURVE",
"465 523 CURVE SMOOTH",
"465 431 OFFCURVE",
"398 373 OFFCURVE",
"290 370 CURVE"
);
}
);
};
hints = (
{
place = "{156, 88}";
type = Stem;
},
{
place = "{465, 97}";
type = Stem;
},
{
horizontal = 1;
place = "{-14, 59}";
type = Stem;
},
{
horizontal = 1;
place = "{646, 54}";
type = Stem;
},
{
horizontal = 1;
place = "{0, 21}";
target = up;
type = BottomGhost;
}
);
layerId = UUID0;
paths = (
{
closed = 1;
nodes = (
"286 321 LINE",
"322 299 OFFCURVE",
"342 270 OFFCURVE",
"373 197 CURVE SMOOTH",
"415 98 LINE SMOOTH",
"448 20 OFFCURVE",
"497 -14 OFFCURVE",
"570 -14 CURVE SMOOTH",
"608 -14 OFFCURVE",
"649 2 OFFCURVE",
"676 28 CURVE",
"656 63 LINE",
"632 51 OFFCURVE",
"614 45 OFFCURVE",
"597 45 CURVE SMOOTH",
"557 45 OFFCURVE",
"537 62 OFFCURVE",
"507 123 CURVE SMOOTH",
"449 243 LINE SMOOTH",
"424 295 OFFCURVE",
"400 319 OFFCURVE",
"355 338 CURVE",
"355 341 LINE",
"475 355 OFFCURVE",
"562 435 OFFCURVE",
"562 532 CURVE SMOOTH",
"562 648 OFFCURVE",
"485 700 OFFCURVE",
"315 700 CURVE SMOOTH",
"88 700 LINE",
"82 654 LINE",
"169 637 LINE",
"144 60 LINE",
"55 44 LINE",
"50 0 LINE",
"336 0 LINE",
"341 44 LINE",
"233 58 LINE",
"255 646 LINE",
"306 646 LINE SMOOTH",
"419 646 OFFCURVE",
"465 611 OFFCURVE",
"465 523 CURVE SMOOTH",
"465 431 OFFCURVE",
"398 373 OFFCURVE",
"290 370 CURVE"
);
}
);
width = 681;
},
{
anchors = (
{
name = bottom;
position = "{374, -31}";
},
{
name = top;
position = "{352, 730}";
}
);
background = {
paths = (
{
closed = 1;
nodes = (
"286 1121 LINE",
"322 1099 OFFCURVE",
"342 1070 OFFCURVE",
"373 997 CURVE SMOOTH",
"415 898 LINE SMOOTH",
"451 813 OFFCURVE",
"497 786 OFFCURVE",
"570 786 CURVE SMOOTH",
"608 786 OFFCURVE",
"649 802 OFFCURVE",
"676 828 CURVE",
"656 863 LINE",
"632 851 OFFCURVE",
"614 845 OFFCURVE",
"597 845 CURVE SMOOTH",
"557 845 OFFCURVE",
"537 862 OFFCURVE",
"507 923 CURVE SMOOTH",
"449 1043 LINE SMOOTH",
"424 1095 OFFCURVE",
"400 1119 OFFCURVE",
"355 1138 CURVE",
"355 1141 LINE",
"475 1155 OFFCURVE",
"562 1235 OFFCURVE",
"562 1332 CURVE SMOOTH",
"562 1448 OFFCURVE",
"485 1500 OFFCURVE",
"315 1500 CURVE SMOOTH",
"88 1500 LINE",
"82 1454 LINE",
"169 1437 LINE",
"144 860 LINE",
"55 844 LINE",
"50 800 LINE",
"336 800 LINE",
"341 844 LINE",
"233 858 LINE",
"255 1446 LINE",
"306 1446 LINE SMOOTH",
"419 1446 OFFCURVE",
"465 1411 OFFCURVE",
"465 1323 CURVE SMOOTH",
"465 1231 OFFCURVE",
"398 1173 OFFCURVE",
"290 1170 CURVE"
);
},
{
closed = 1;
nodes = (
"313 321 LINE",
"353 299 OFFCURVE",
"375 269 OFFCURVE",
"408 197 CURVE SMOOTH",
"454 98 LINE SMOOTH",
"486 29 OFFCURVE",
"534 -14 OFFCURVE",
"622 -14 CURVE SMOOTH",
"662 -14 OFFCURVE",
"706 2 OFFCURVE",
"734 28 CURVE",
"713 63 LINE",
"687 51 OFFCURVE",
"667 45 OFFCURVE",
"649 45 CURVE SMOOTH",
"602 45 OFFCURVE",
"579 65 OFFCURVE",
"549 123 CURVE SMOOTH",
"486 243 LINE SMOOTH",
"457 298 OFFCURVE",
"433 317 OFFCURVE",
"386 337 CURVE",
"386 341 LINE",
"515 355 OFFCURVE",
"608 435 OFFCURVE",
"608 531 CURVE SMOOTH",
"608 662 OFFCURVE",
"500 700 OFFCURVE",
"341 700 CURVE SMOOTH",
"102 700 LINE",
"95 654 LINE",
"189 637 LINE",
"166 59 LINE",
"76 46 LINE",
"71 0 LINE",
"369 0 LINE",
"374 44 LINE",
"256 58 LINE",
"277 643 LINE",
"335 643 LINE SMOOTH",
"446 643 OFFCURVE",
"508 619 OFFCURVE",
"508 522 CURVE SMOOTH",
"508 431 OFFCURVE",
"435 373 OFFCURVE",
"317 370 CURVE"
);
}
);
};
hints = (
{
place = "{156, 88}";
type = Stem;
},
{
place = "{465, 97}";
type = Stem;
},
{
horizontal = 1;
place = "{-14, 59}";
type = Stem;
},
{
horizontal = 1;
place = "{646, 54}";
type = Stem;
},
{
horizontal = 1;
place = "{0, 21}";
target = up;
type = BottomGhost;
}
);
layerId = "D666A065-31E2-40D8-BE19-B3556ED1E29D";
paths = (
{
closed = 1;
nodes = (
"313 321 LINE",
"353 299 OFFCURVE",
"372 274 OFFCURVE",
"406 202 CURVE SMOOTH",
"452 103 LINE SMOOTH",
"493 16 OFFCURVE",
"547 -14 OFFCURVE",
"617 -14 CURVE SMOOTH",
"657 -14 OFFCURVE",
"701 4 OFFCURVE",
"729 28 CURVE",
"706 69 LINE",
"684 57 OFFCURVE",
"662 50 OFFCURVE",
"637 50 CURVE SMOOTH",
"594 50 OFFCURVE",
"572 70 OFFCURVE",
"537 139 CURVE SMOOTH",
"492 229 LINE SMOOTH",
"456 300 OFFCURVE",
"433 316 OFFCURVE",
"386 336 CURVE",
"386 342 LINE",
"515 356 OFFCURVE",
"608 435 OFFCURVE",
"608 531 CURVE SMOOTH",
"608 662 OFFCURVE",
"500 700 OFFCURVE",
"341 700 CURVE SMOOTH",
"102 700 LINE",
"95 654 LINE",
"189 637 LINE",
"166 59 LINE",
"76 46 LINE",
"71 0 LINE",
"369 0 LINE",
"374 44 LINE",
"256 58 LINE",
"277 643 LINE",
"335 643 LINE SMOOTH",
"446 643 OFFCURVE",
"508 619 OFFCURVE",
"508 522 CURVE SMOOTH",
"508 431 OFFCURVE",
"435 373 OFFCURVE",
"317 370 CURVE"
);
}
);
width = 736;
},
{
anchors = (
{
name = bottom;
position = "{340, -31}";
},
{
name = top;
position = "{323, 730}";
}
);
background = {
paths = (
{
closed = 1;
nodes = (
"285 321 LINE",
"321 299 OFFCURVE",
"341 270 OFFCURVE",
"372 197 CURVE SMOOTH",
"414 98 LINE SMOOTH",
"447 20 OFFCURVE",
"496 -14 OFFCURVE",
"569 -14 CURVE SMOOTH",
"607 -14 OFFCURVE",
"648 2 OFFCURVE",
"675 28 CURVE",
"655 63 LINE",
"631 51 OFFCURVE",
"613 45 OFFCURVE",
"596 45 CURVE SMOOTH",
"556 45 OFFCURVE",
"536 62 OFFCURVE",
"506 123 CURVE SMOOTH",
"448 243 LINE SMOOTH",
"423 295 OFFCURVE",
"399 319 OFFCURVE",
"354 338 CURVE",
"354 341 LINE",
"474 355 OFFCURVE",
"561 435 OFFCURVE",
"561 532 CURVE SMOOTH",
"561 648 OFFCURVE",
"484 700 OFFCURVE",
"314 700 CURVE SMOOTH",
"87 700 LINE",
"81 654 LINE",
"168 637 LINE",
"143 60 LINE",
"54 44 LINE",
"49 0 LINE",
"335 0 LINE",
"340 44 LINE",
"232 58 LINE",
"254 646 LINE",
"305 646 LINE SMOOTH",
"418 646 OFFCURVE",
"464 611 OFFCURVE",
"464 523 CURVE SMOOTH",
"464 431 OFFCURVE",
"397 373 OFFCURVE",
"289 370 CURVE"
);
}
);
};
hints = (
{
place = "{156, 88}";
type = Stem;
},
{
place = "{465, 97}";
type = Stem;
},
{
horizontal = 1;
place = "{-14, 59}";
type = Stem;
},
{
horizontal = 1;
place = "{646, 54}";
type = Stem;
},
{
horizontal = 1;
place = "{0, 21}";
target = up;
type = BottomGhost;
}
);
layerId = "703BE3CC-3FB5-4948-8633-0DF44FA889B7";
paths = (
{
closed = 1;
nodes = (
"286 350 LINE",
"321 337 OFFCURVE",
"333 313 OFFCURVE",
"359 251 CURVE SMOOTH",
"424 98 LINE SMOOTH",
"457 20 OFFCURVE",
"506 -14 OFFCURVE",
"569 -14 CURVE SMOOTH",
"606 -14 OFFCURVE",
"645 4 OFFCURVE",
"673 31 CURVE",
"664 44 LINE",
"640 30 OFFCURVE",
"625 26 OFFCURVE",
"607 26 CURVE SMOOTH",
"571 26 OFFCURVE",
"553 47 OFFCURVE",
"516 123 CURVE SMOOTH",
"452 254 LINE SMOOTH",
"421 317 OFFCURVE",
"391 344 OFFCURVE",
"335 361 CURVE",
"335 363 LINE",
"455 377 OFFCURVE",
"561 452 OFFCURVE",
"561 564 CURVE SMOOTH",
"561 678 OFFCURVE",
"485 730 OFFCURVE",
"315 730 CURVE SMOOTH",
"90 730 LINE",
"88 713 LINE",
"170 698 LINE",
"142 30 LINE",
"58 18 LINE",
"55 0 LINE",
"321 0 LINE",
"323 18 LINE",
"230 30 LINE",
"256 707 LINE",
"307 707 LINE SMOOTH",
"420 707 OFFCURVE",
"464 672 OFFCURVE",
"464 560 CURVE SMOOTH",
"464 448 OFFCURVE",
"397 383 OFFCURVE",
"289 380 CURVE"
);
}
);
width = 665;
},
{
anchors = (
{
name = bottom;
position = "{307, -32}";
},
{
name = top;
position = "{289, 730}";
}
);
background = {
anchors = (
{
name = bottom;
position = "{334, -31}";
},
{
name = top;
position = "{317, 730}";
}
);
hints = (
{
place = "{156, 88}";
type = Stem;
},
{
place = "{465, 97}";
type = Stem;
},
{
horizontal = 1;
place = "{-14, 59}";
type = Stem;
},
{
horizontal = 1;
place = "{646, 54}";
type = Stem;
},
{
horizontal = 1;
place = "{0, 21}";
target = up;
type = BottomGhost;
}
);
paths = (
{
closed = 1;
nodes = (
"232 321 LINE",
"268 299 OFFCURVE",
"288 270 OFFCURVE",
"319 197 CURVE SMOOTH",
"361 98 LINE SMOOTH",
"394 20 OFFCURVE",
"443 -14 OFFCURVE",
"516 -14 CURVE SMOOTH",
"554 -14 OFFCURVE",
"595 2 OFFCURVE",
"622 28 CURVE",
"602 63 LINE",
"578 51 OFFCURVE",
"560 45 OFFCURVE",
"543 45 CURVE SMOOTH",
"503 45 OFFCURVE",
"483 62 OFFCURVE",
"453 123 CURVE SMOOTH",
"395 243 LINE SMOOTH",
"370 295 OFFCURVE",
"346 319 OFFCURVE",
"301 338 CURVE",
"301 341 LINE",
"421 355 OFFCURVE",
"508 435 OFFCURVE",
"508 532 CURVE SMOOTH",
"508 648 OFFCURVE",
"431 700 OFFCURVE",
"261 700 CURVE SMOOTH",
"34 700 LINE",
"28 654 LINE",
"115 637 LINE",
"90 60 LINE",
"1 44 LINE",
"-4 0 LINE",
"282 0 LINE",
"287 44 LINE",
"179 58 LINE",
"201 646 LINE",
"252 646 LINE SMOOTH",
"365 646 OFFCURVE",
"411 611 OFFCURVE",
"411 523 CURVE SMOOTH",
"411 431 OFFCURVE",
"344 373 OFFCURVE",
"236 370 CURVE"
);
},
{
closed = 1;
nodes = (
"204 -599 LINE",
"214 -601 OFFCURVE",
"227 -602 OFFCURVE",
"241 -602 CURVE SMOOTH",
"384 -602 OFFCURVE",
"468 -523 OFFCURVE",
"468 -398 CURVE SMOOTH",
"468 -284 OFFCURVE",
"395 -200 OFFCURVE",
"235 -200 CURVE SMOOTH",
"38 -200 LINE",
"34 -232 LINE",
"121 -245 LINE",
"97 -854 LINE",
"13 -868 LINE",
"9 -900 LINE",
"277 -900 LINE",
"280 -868 LINE",
"144 -855 LINE",
"168 -239 LINE",
"227 -239 LINE SMOOTH",
"350 -239 OFFCURVE",
"417 -293 OFFCURVE",
"417 -395 CURVE SMOOTH",
"417 -508 OFFCURVE",
"359 -567 OFFCURVE",
"237 -567 CURVE SMOOTH",
"224 -567 OFFCURVE",
"214 -567 OFFCURVE",
"206 -566 CURVE"
);
}
);
};
hints = (
{
place = "{156, 88}";
type = Stem;
},
{
place = "{465, 97}";
type = Stem;
},
{
horizontal = 1;
place = "{-14, 59}";
type = Stem;
},
{
horizontal = 1;
place = "{646, 54}";
type = Stem;
},
{
horizontal = 1;
place = "{0, 21}";
target = up;
type = BottomGhost;
}
);
layerId = "51A3A961-7A3D-4D9D-A8A6-EF0E27CBF030";
paths = (
{
closed = 1;
nodes = (
"248 320 LINE",
"288 310 OFFCURVE",
"314 298 OFFCURVE",
"360 196 CURVE SMOOTH",
"398 112 LINE SMOOTH",
"440 19 OFFCURVE",
"481 -14 OFFCURVE",
"537 -14 CURVE SMOOTH",
"574 -14 OFFCURVE",
"604 0 OFFCURVE",
"625 21 CURVE",
"609 48 LINE",
"589 33 OFFCURVE",
"567 28 OFFCURVE",
"547 28 CURVE SMOOTH",
"500 28 OFFCURVE",
"481 48 OFFCURVE",
"438 142 CURVE SMOOTH",
"400 224 LINE SMOOTH",
"366 297 OFFCURVE",
"343 318 OFFCURVE",
"303 335 CURVE",
"303 338 LINE",
"418 353 OFFCURVE",
"508 424 OFFCURVE",
"508 532 CURVE SMOOTH",
"508 646 OFFCURVE",
"432 700 OFFCURVE",
"263 700 CURVE SMOOTH",
"85 700 LINE",
"81 668 LINE",
"168 655 LINE",
"144 46 LINE",
"60 32 LINE",
"56 0 LINE",
"304 0 LINE",
"308 32 LINE",
"191 44 LINE",
"215 661 LINE",
"280 661 LINE SMOOTH",
"388 661 OFFCURVE",
"457 631 OFFCURVE",
"457 530 CURVE SMOOTH",
"457 422 OFFCURVE",
"362 368 OFFCURVE",
"251 363 CURVE"
);
}
);
width = 627;
},
{
anchors = (
{
name = bottom;
position = "{419, -29}";
},
{
name = top;
position = "{404, 730}";
}
);
background = {
anchors = (
{
name = bottom;
position = "{328, -31}";
},
{
name = top;
position = "{311, 730}";
}
);
hints = (
{
place = "{156, 88}";
type = Stem;
},
{
place = "{465, 97}";
type = Stem;
},
{
horizontal = 1;
place = "{-14, 59}";
type = Stem;
},
{
horizontal = 1;
place = "{646, 54}";
type = Stem;
},
{
horizontal = 1;
place = "{0, 21}";
target = up;
type = BottomGhost;
}
);
paths = (
{
closed = 1;
nodes = (
"273 321 LINE",
"309 299 OFFCURVE",
"329 270 OFFCURVE",
"360 197 CURVE SMOOTH",
"402 98 LINE SMOOTH",
"435 20 OFFCURVE",
"484 -14 OFFCURVE",
"557 -14 CURVE SMOOTH",
"595 -14 OFFCURVE",
"636 2 OFFCURVE",
"663 28 CURVE",
"643 63 LINE",
"619 51 OFFCURVE",
"601 45 OFFCURVE",
"584 45 CURVE SMOOTH",
"544 45 OFFCURVE",
"524 62 OFFCURVE",
"494 123 CURVE SMOOTH",
"436 243 LINE SMOOTH",
"411 295 OFFCURVE",
"387 319 OFFCURVE",
"342 338 CURVE",
"342 341 LINE",
"462 355 OFFCURVE",
"549 435 OFFCURVE",
"549 532 CURVE SMOOTH",
"549 648 OFFCURVE",
"472 700 OFFCURVE",
"302 700 CURVE SMOOTH",
"75 700 LINE",
"69 654 LINE",
"156 637 LINE",
"131 60 LINE",
"42 44 LINE",
"37 0 LINE",
"323 0 LINE",
"328 44 LINE",
"220 58 LINE",
"242 646 LINE",
"293 646 LINE SMOOTH",
"406 646 OFFCURVE",
"452 611 OFFCURVE",
"452 523 CURVE SMOOTH",
"452 431 OFFCURVE",
"385 373 OFFCURVE",
"277 370 CURVE"
);
}
);
};
hints = (
{
place = "{156, 88}";
type = Stem;
},
{
place = "{465, 97}";
type = Stem;
},
{
horizontal = 1;
place = "{-14, 59}";
type = Stem;
},
{
horizontal = 1;
place = "{646, 54}";
type = Stem;
},
{
horizontal = 1;
place = "{0, 21}";
target = up;
type = BottomGhost;
}
);
layerId = "183D4CB5-BDC3-4BCB-9164-6C94CC175920";
paths = (
{
closed = 1;
nodes = (
"358 306 LINE",
"394 301 OFFCURVE",
"402 276 OFFCURVE",
"429 197 CURVE SMOOTH",
"459 108 LINE SMOOTH",
"493 8 OFFCURVE",
"548 -14 OFFCURVE",
"637 -14 CURVE SMOOTH",
"691 -14 OFFCURVE",
"759 11 OFFCURVE",
"794 44 CURVE",
"773 131 LINE",
"757 124 OFFCURVE",
"745 120 OFFCURVE",
"730 120 CURVE SMOOTH",
"709 120 OFFCURVE",
"690 127 OFFCURVE",
"674 161 CURVE SMOOTH",
"633 248 LINE SMOOTH",
"607 303 OFFCURVE",
"573 333 OFFCURVE",
"479 344 CURVE",
"479 349 LINE",
"631 358 OFFCURVE",
"719 428 OFFCURVE",
"719 527 CURVE SMOOTH",
"719 640 OFFCURVE",
"624 700 OFFCURVE",
"442 700 CURVE SMOOTH",
"46 700 LINE",
"40 612 LINE",
"123 595 LINE",
"100 109 LINE",
"14 93 LINE",
"8 0 LINE",
"401 0 LINE",
"407 93 LINE",
"331 107 LINE",
"350 605 LINE",
"369 605 LINE SMOOTH",
"447 605 OFFCURVE",
"480 572 OFFCURVE",
"480 522 CURVE SMOOTH",
"480 441 OFFCURVE",
"443 403 OFFCURVE",
"362 390 CURVE"
);
}
);
width = 805;
}
);
leftKerningGroup = R;
leftMetricsKey = H;
rightKerningGroup = R;
unicode = 0052;
},
{
color = 4;
glyphname = S;
layers = (
{
anchors = (
{
name = bottom;
position = "{239, -32}";
},
{
name = top;
position = "{289, 730}";
}
);
background = {
paths = (
{
closed = 1;
nodes = (
"472 283 OFFCURVE",
"439 320 OFFCURVE",
"315 386 CURVE SMOOTH",
"190 452 OFFCURVE",
"152 488 OFFCURVE",
"152 545 CURVE SMOOTH",
"152 615 OFFCURVE",
"201 653 OFFCURVE",
"291 653 CURVE SMOOTH",
"358 653 OFFCURVE",
"392 621 OFFCURVE",
"371 579 CURVE SMOOTH",
"352 542 LINE",
"366 528 OFFCURVE",
"393 518 OFFCURVE",
"417 518 CURVE SMOOTH",
"453 518 OFFCURVE",
"477 544 OFFCURVE",
"477 582 CURVE SMOOTH",
"477 657 OFFCURVE",
"398 715 OFFCURVE",
"296 715 CURVE SMOOTH",
"164 715 OFFCURVE",
"70 633 OFFCURVE",
"70 519 CURVE SMOOTH",
"70 438 OFFCURVE",
"116 386 OFFCURVE",
"252 315 CURVE SMOOTH",
"360 258 OFFCURVE",
"391 228 OFFCURVE",
"391 179 CURVE SMOOTH",
"391 101 OFFCURVE",
"331 49 OFFCURVE",
"239 49 CURVE SMOOTH",
"166 49 OFFCURVE",
"130 82 OFFCURVE",
"154 128 CURVE SMOOTH",
"170 161 LINE",
"154 177 OFFCURVE",
"128 187 OFFCURVE",
"103 187 CURVE SMOOTH",
"66 187 OFFCURVE",
"40 157 OFFCURVE",
"40 115 CURVE SMOOTH",
"40 40 OFFCURVE",
"121 -14 OFFCURVE",
"232 -14 CURVE SMOOTH",
"373 -14 OFFCURVE",
"472 73 OFFCURVE",
"472 197 CURVE SMOOTH"
);
}
);
};
hints = (
{
place = "{40, 112}";
type = Stem;
},
{
place = "{70, 82}";
type = Stem;
},
{
place = "{391, 81}";
type = Stem;
},
{
horizontal = 1;
place = "{-14, 63}";
type = Stem;
},
{
horizontal = 1;
place = "{518, 197}";
type = Stem;
},
{
horizontal = 1;
place = "{653, 62}";
type = Stem;
},
{
horizontal = 1;
place = "{-14, 201}";
type = Stem;
}
);
layerId = UUID0;
paths = (
{
closed = 1;
nodes = (
"472 283 OFFCURVE",
"439 320 OFFCURVE",
"315 386 CURVE SMOOTH",
"190 452 OFFCURVE",
"152 488 OFFCURVE",
"152 545 CURVE SMOOTH",
"152 615 OFFCURVE",
"201 653 OFFCURVE",
"291 653 CURVE SMOOTH",
"358 653 OFFCURVE",
"393 621 OFFCURVE",
"371 579 CURVE SMOOTH",
"352 542 LINE",
"366 528 OFFCURVE",
"393 518 OFFCURVE",
"417 518 CURVE SMOOTH",
"453 518 OFFCURVE",
"477 544 OFFCURVE",
"477 582 CURVE SMOOTH",
"477 657 OFFCURVE",
"398 715 OFFCURVE",
"296 715 CURVE SMOOTH",
"164 715 OFFCURVE",
"70 633 OFFCURVE",
"70 519 CURVE SMOOTH",
"70 438 OFFCURVE",
"116 386 OFFCURVE",
"252 315 CURVE SMOOTH",
"360 258 OFFCURVE",
"391 228 OFFCURVE",
"391 179 CURVE SMOOTH",
"391 101 OFFCURVE",
"331 49 OFFCURVE",
"239 49 CURVE SMOOTH",
"166 49 OFFCURVE",
"131 81 OFFCURVE",
"154 128 CURVE SMOOTH",
"170 161 LINE",
"154 177 OFFCURVE",
"128 187 OFFCURVE",
"103 187 CURVE SMOOTH",
"66 187 OFFCURVE",
"40 157 OFFCURVE",
"40 115 CURVE SMOOTH",
"40 40 OFFCURVE",
"121 -14 OFFCURVE",
"232 -14 CURVE SMOOTH",
"373 -14 OFFCURVE",
"472 73 OFFCURVE",
"472 197 CURVE SMOOTH"
);
}
);
width = 496;
},
{
anchors = (
{
name = bottom;
position = "{267, -32}";
},
{
name = top;
position = "{318, 730}";
}
);
background = {
anchors = (
{
name = bottom;
position = "{267, -32}";
},
{
name = top;
position = "{318, 730}";
}
);
paths = (
{
closed = 1;
nodes = (
"474 1283 OFFCURVE",
"441 1320 OFFCURVE",
"317 1386 CURVE SMOOTH",
"192 1452 OFFCURVE",
"154 1488 OFFCURVE",
"154 1545 CURVE SMOOTH",
"154 1615 OFFCURVE",
"203 1653 OFFCURVE",
"293 1653 CURVE SMOOTH",
"360 1653 OFFCURVE",
"394 1621 OFFCURVE",
"373 1579 CURVE SMOOTH",
"354 1542 LINE",
"368 1528 OFFCURVE",
"395 1518 OFFCURVE",
"419 1518 CURVE SMOOTH",
"455 1518 OFFCURVE",
"479 1544 OFFCURVE",
"479 1582 CURVE SMOOTH",
"479 1657 OFFCURVE",
"400 1715 OFFCURVE",
"298 1715 CURVE SMOOTH",
"166 1715 OFFCURVE",
"72 1633 OFFCURVE",
"72 1519 CURVE SMOOTH",
"72 1438 OFFCURVE",
"118 1387 OFFCURVE",
"254 1315 CURVE SMOOTH",
"362 1258 OFFCURVE",
"393 1228 OFFCURVE",
"393 1179 CURVE SMOOTH",
"393 1101 OFFCURVE",
"333 1049 OFFCURVE",
"241 1049 CURVE SMOOTH",
"168 1049 OFFCURVE",
"133 1081 OFFCURVE",
"156 1128 CURVE SMOOTH",
"172 1161 LINE",
"156 1177 OFFCURVE",
"130 1187 OFFCURVE",
"105 1187 CURVE SMOOTH",
"68 1187 OFFCURVE",
"42 1157 OFFCURVE",
"42 1115 CURVE SMOOTH",
"42 1040 OFFCURVE",
"123 986 OFFCURVE",
"234 986 CURVE SMOOTH",
"375 986 OFFCURVE",
"474 1073 OFFCURVE",
"474 1197 CURVE SMOOTH"
);
},
{
closed = 1;
nodes = (
"515 273 OFFCURVE",
"480 319 OFFCURVE",
"347 386 CURVE SMOOTH",
"196 462 OFFCURVE",
"168 490 OFFCURVE",
"168 551 CURVE SMOOTH",
"168 615 OFFCURVE",
"226 653 OFFCURVE",
"317 653 CURVE SMOOTH",
"392 653 OFFCURVE",
"430 621 OFFCURVE",
"407 579 CURVE SMOOTH",
"387 542 LINE",
"402 528 OFFCURVE",
"432 518 OFFCURVE",
"457 518 CURVE SMOOTH",
"494 518 OFFCURVE",
"520 544 OFFCURVE",
"520 582 CURVE SMOOTH",
"520 656 OFFCURVE",
"434 715 OFFCURVE",
"325 715 CURVE SMOOTH",
"184 715 OFFCURVE",
"84 637 OFFCURVE",
"84 527 CURVE SMOOTH",
"84 434 OFFCURVE",
"136 385 OFFCURVE",
"280 316 CURVE SMOOTH",
"399 259 OFFCURVE",
"432 221 OFFCURVE",
"432 171 CURVE SMOOTH",
"432 94 OFFCURVE",
"366 49 OFFCURVE",
"266 49 CURVE SMOOTH",
"187 49 OFFCURVE",
"149 81 OFFCURVE",
"173 128 CURVE SMOOTH",
"190 161 LINE",
"173 177 OFFCURVE",
"145 187 OFFCURVE",
"119 187 CURVE SMOOTH",
"81 187 OFFCURVE",
"53 157 OFFCURVE",
"53 115 CURVE SMOOTH",
"53 40 OFFCURVE",
"141 -14 OFFCURVE",
"260 -14 CURVE SMOOTH",
"411 -14 OFFCURVE",
"515 64 OFFCURVE",
"515 187 CURVE SMOOTH"
);
}
);
};
hints = (
{
place = "{40, 112}";
type = Stem;
},
{
place = "{70, 82}";
type = Stem;
},
{
place = "{391, 81}";
type = Stem;
},
{
horizontal = 1;
place = "{-14, 63}";
type = Stem;
},
{
horizontal = 1;
place = "{518, 197}";
type = Stem;
},
{
horizontal = 1;
place = "{653, 62}";
type = Stem;
},
{
horizontal = 1;
place = "{-14, 201}";
type = Stem;
}
);
layerId = "D666A065-31E2-40D8-BE19-B3556ED1E29D";
paths = (
{
closed = 1;
nodes = (
"515 273 OFFCURVE",
"480 319 OFFCURVE",
"347 386 CURVE SMOOTH",
"196 462 OFFCURVE",
"168 490 OFFCURVE",
"168 551 CURVE SMOOTH",
"168 615 OFFCURVE",
"226 653 OFFCURVE",
"317 653 CURVE SMOOTH",
"392 653 OFFCURVE",
"430 621 OFFCURVE",
"407 579 CURVE SMOOTH",
"387 542 LINE",
"404 528 OFFCURVE",
"427 515 OFFCURVE",
"457 515 CURVE SMOOTH",
"497 515 OFFCURVE",
"520 544 OFFCURVE",
"520 582 CURVE SMOOTH",
"520 656 OFFCURVE",
"434 715 OFFCURVE",
"325 715 CURVE SMOOTH",
"184 715 OFFCURVE",
"84 637 OFFCURVE",
"84 527 CURVE SMOOTH",
"84 434 OFFCURVE",
"136 385 OFFCURVE",
"280 316 CURVE SMOOTH",
"399 259 OFFCURVE",
"432 221 OFFCURVE",
"432 171 CURVE SMOOTH",
"432 94 OFFCURVE",
"366 49 OFFCURVE",
"266 49 CURVE SMOOTH",
"187 49 OFFCURVE",
"149 81 OFFCURVE",
"173 128 CURVE SMOOTH",
"190 161 LINE",
"173 177 OFFCURVE",
"151 190 OFFCURVE",
"125 190 CURVE SMOOTH",
"81 190 OFFCURVE",
"53 158 OFFCURVE",
"53 115 CURVE SMOOTH",
"53 40 OFFCURVE",
"141 -14 OFFCURVE",
"260 -14 CURVE SMOOTH",
"411 -14 OFFCURVE",
"515 64 OFFCURVE",
"515 187 CURVE SMOOTH"
);
}
);
width = 559;
},
{
anchors = (
{
name = bottom;
position = "{245, -32}";
},
{
name = top;
position = "{295, 730}";
}
);
background = {
paths = (
{
closed = 1;
nodes = (
"476 304 OFFCURVE",
"441 343 OFFCURVE",
"312 411 CURVE SMOOTH",
"182 480 OFFCURVE",
"142 518 OFFCURVE",
"142 577 CURVE SMOOTH",
"142 650 OFFCURVE",
"193 690 OFFCURVE",
"287 690 CURVE SMOOTH",
"357 690 OFFCURVE",
"392 657 OFFCURVE",
"370 613 CURVE SMOOTH",
"351 574 LINE",
"365 560 OFFCURVE",
"393 549 OFFCURVE",
"418 549 CURVE SMOOTH",
"456 549 OFFCURVE",
"481 576 OFFCURVE",
"481 616 CURVE SMOOTH",
"481 694 OFFCURVE",
"399 755 OFFCURVE",
"292 755 CURVE SMOOTH",
"154 755 OFFCURVE",
"56 669 OFFCURVE",
"56 550 CURVE SMOOTH",
"56 466 OFFCURVE",
"104 411 OFFCURVE",
"246 337 CURVE SMOOTH",
"359 278 OFFCURVE",
"391 247 OFFCURVE",
"391 195 CURVE SMOOTH",
"391 114 OFFCURVE",
"329 60 OFFCURVE",
"233 60 CURVE SMOOTH",
"157 60 OFFCURVE",
"120 93 OFFCURVE",
"144 142 CURVE SMOOTH",
"161 177 LINE",
"144 193 OFFCURVE",
"117 204 OFFCURVE",
"91 204 CURVE SMOOTH",
"52 204 OFFCURVE",
"25 172 OFFCURVE",
"25 129 CURVE SMOOTH",
"25 50 OFFCURVE",
"110 -6 OFFCURVE",
"225 -6 CURVE SMOOTH",
"373 -6 OFFCURVE",
"476 85 OFFCURVE",
"476 214 CURVE SMOOTH"
);
},
{
closed = 1;
nodes = (
"476 304 OFFCURVE",
"441 343 OFFCURVE",
"312 411 CURVE SMOOTH",
"182 480 OFFCURVE",
"142 518 OFFCURVE",
"142 577 CURVE SMOOTH",
"142 650 OFFCURVE",
"193 690 OFFCURVE",
"287 690 CURVE SMOOTH",
"357 690 OFFCURVE",
"392 658 OFFCURVE",
"370 613 CURVE SMOOTH",
"351 574 LINE",
"365 560 OFFCURVE",
"393 549 OFFCURVE",
"418 549 CURVE SMOOTH",
"456 549 OFFCURVE",
"481 576 OFFCURVE",
"481 616 CURVE SMOOTH",
"481 694 OFFCURVE",
"399 755 OFFCURVE",
"292 755 CURVE SMOOTH",
"154 755 OFFCURVE",
"56 669 OFFCURVE",
"56 550 CURVE SMOOTH",
"56 466 OFFCURVE",
"104 411 OFFCURVE",
"246 337 CURVE SMOOTH",
"359 278 OFFCURVE",
"391 247 OFFCURVE",
"391 195 CURVE SMOOTH",
"391 114 OFFCURVE",
"329 60 OFFCURVE",
"233 60 CURVE SMOOTH",
"157 60 OFFCURVE",
"120 93 OFFCURVE",
"144 142 CURVE SMOOTH",
"161 177 LINE",
"144 193 OFFCURVE",
"117 204 OFFCURVE",
"91 204 CURVE SMOOTH",
"52 204 OFFCURVE",
"25 172 OFFCURVE",
"25 129 CURVE SMOOTH",
"25 50 OFFCURVE",
"110 -6 OFFCURVE",
"225 -6 CURVE SMOOTH",
"373 -6 OFFCURVE",
"476 85 OFFCURVE",
"476 214 CURVE SMOOTH"
);
}
);
};
hints = (
{
place = "{40, 112}";
type = Stem;
},
{
place = "{70, 82}";
type = Stem;
},
{
place = "{391, 81}";
type = Stem;
},
{
horizontal = 1;
place = "{-14, 63}";
type = Stem;
},
{
horizontal = 1;
place = "{518, 197}";
type = Stem;
},
{
horizontal = 1;
place = "{653, 62}";
type = Stem;
},
{
horizontal = 1;
place = "{-14, 201}";
type = Stem;
}
);
layerId = "703BE3CC-3FB5-4948-8633-0DF44FA889B7";
paths = (
{
closed = 1;
nodes = (
"478 288 OFFCURVE",
"434 341 OFFCURVE",
"309 407 CURVE SMOOTH",
"182 474 OFFCURVE",
"146 522 OFFCURVE",
"146 590 CURVE SMOOTH",
"146 670 OFFCURVE",
"203 722 OFFCURVE",
"297 722 CURVE SMOOTH",
"390 722 OFFCURVE",
"409 681 OFFCURVE",
"377 619 CURVE SMOOTH",
"358 582 LINE",
"372 568 OFFCURVE",
"399 558 OFFCURVE",
"423 558 CURVE SMOOTH",
"459 558 OFFCURVE",
"483 584 OFFCURVE",
"483 622 CURVE SMOOTH",
"483 697 OFFCURVE",
"404 745 OFFCURVE",
"302 745 CURVE SMOOTH",
"170 745 OFFCURVE",
"76 676 OFFCURVE",
"76 551 CURVE SMOOTH",
"76 466 OFFCURVE",
"122 409 OFFCURVE",
"258 337 CURVE SMOOTH",
"374 276 OFFCURVE",
"407 232 OFFCURVE",
"407 159 CURVE SMOOTH",
"407 66 OFFCURVE",
"340 9 OFFCURVE",
"245 9 CURVE SMOOTH",
"156 9 OFFCURVE",
"121 51 OFFCURVE",
"156 123 CURVE SMOOTH",
"172 156 LINE",
"156 172 OFFCURVE",
"130 182 OFFCURVE",
"105 182 CURVE SMOOTH",
"68 182 OFFCURVE",
"42 152 OFFCURVE",
"42 110 CURVE SMOOTH",
"42 35 OFFCURVE",
"127 -14 OFFCURVE",
"238 -14 CURVE SMOOTH",
"379 -14 OFFCURVE",
"478 73 OFFCURVE",
"478 187 CURVE SMOOTH"
);
}
);
width = 522;
},
{
anchors = (
{
name = bottom;
position = "{220, -34}";
},
{
name = top;
position = "{270, 730}";
}
);
background = {
anchors = (
{
name = bottom;
position = "{233, -32}";
},
{
name = top;
position = "{283, 730}";
}
);
hints = (
{
place = "{40, 112}";
type = Stem;
},
{
place = "{70, 82}";
type = Stem;
},
{
place = "{391, 81}";
type = Stem;
},
{
horizontal = 1;
place = "{-14, 63}";
type = Stem;
},
{
horizontal = 1;
place = "{518, 197}";
type = Stem;
},
{
horizontal = 1;
place = "{653, 62}";
type = Stem;
},
{
horizontal = 1;
place = "{-14, 201}";
type = Stem;
}
);
paths = (
{
closed = 1;
nodes = (
"966 283 OFFCURVE",
"933 320 OFFCURVE",
"809 386 CURVE SMOOTH",
"684 452 OFFCURVE",
"646 488 OFFCURVE",
"646 545 CURVE SMOOTH",
"646 615 OFFCURVE",
"695 653 OFFCURVE",
"785 653 CURVE SMOOTH",
"852 653 OFFCURVE",
"887 621 OFFCURVE",
"865 579 CURVE SMOOTH",
"846 542 LINE",
"860 528 OFFCURVE",
"887 518 OFFCURVE",
"911 518 CURVE SMOOTH",
"947 518 OFFCURVE",
"971 544 OFFCURVE",
"971 582 CURVE SMOOTH",
"971 657 OFFCURVE",
"892 715 OFFCURVE",
"790 715 CURVE SMOOTH",
"658 715 OFFCURVE",
"564 633 OFFCURVE",
"564 519 CURVE SMOOTH",
"564 438 OFFCURVE",
"610 387 OFFCURVE",
"746 315 CURVE SMOOTH",
"854 258 OFFCURVE",
"885 228 OFFCURVE",
"885 179 CURVE SMOOTH",
"885 101 OFFCURVE",
"825 49 OFFCURVE",
"733 49 CURVE SMOOTH",
"660 49 OFFCURVE",
"625 81 OFFCURVE",
"648 128 CURVE SMOOTH",
"664 161 LINE",
"648 177 OFFCURVE",
"622 187 OFFCURVE",
"597 187 CURVE SMOOTH",
"560 187 OFFCURVE",
"534 157 OFFCURVE",
"534 115 CURVE SMOOTH",
"534 40 OFFCURVE",
"615 -14 OFFCURVE",
"726 -14 CURVE SMOOTH",
"867 -14 OFFCURVE",
"966 73 OFFCURVE",
"966 197 CURVE SMOOTH"
);
},
{
closed = 1;
nodes = (
"460 305 OFFCURVE",
"369 345 OFFCURVE",
"274 391 CURVE SMOOTH",
"154 449 OFFCURVE",
"131 488 OFFCURVE",
"131 543 CURVE SMOOTH",
"131 597 OFFCURVE",
"168 671 OFFCURVE",
"294 671 CURVE SMOOTH",
"365 671 OFFCURVE",
"404 647 OFFCURVE",
"378 597 CURVE SMOOTH",
"363 568 LINE",
"374 555 OFFCURVE",
"391 542 OFFCURVE",
"417 542 CURVE SMOOTH",
"447 542 OFFCURVE",
"464 566 OFFCURVE",
"464 595 CURVE SMOOTH",
"464 660 OFFCURVE",
"390 715 OFFCURVE",
"294 715 CURVE SMOOTH",
"142 715 OFFCURVE",
"82 622 OFFCURVE",
"82 535 CURVE SMOOTH",
"82 461 OFFCURVE",
"114 412 OFFCURVE",
"250 347 CURVE SMOOTH",
"352 298 OFFCURVE",
"411 263 OFFCURVE",
"411 184 CURVE SMOOTH",
"411 82 OFFCURVE",
"338 30 OFFCURVE",
"244 30 CURVE SMOOTH",
"139 30 OFFCURVE",
"113 66 OFFCURVE",
"139 119 CURVE SMOOTH",
"156 154 LINE",
"138 167 OFFCURVE",
"124 171 OFFCURVE",
"104 171 CURVE SMOOTH",
"80 171 OFFCURVE",
"52 152 OFFCURVE",
"52 117 CURVE SMOOTH",
"52 48 OFFCURVE",
"112 -14 OFFCURVE",
"230 -14 CURVE SMOOTH",
"388 -14 OFFCURVE",
"460 77 OFFCURVE",
"460 192 CURVE SMOOTH"
);
}
);
};
hints = (
{
place = "{40, 112}";
type = Stem;
},
{
place = "{70, 82}";
type = Stem;
},
{
place = "{391, 81}";
type = Stem;
},
{
horizontal = 1;
place = "{-14, 63}";
type = Stem;
},
{
horizontal = 1;
place = "{518, 197}";
type = Stem;
},
{
horizontal = 1;
place = "{653, 62}";
type = Stem;
},
{
horizontal = 1;
place = "{-14, 201}";
type = Stem;
}
);
layerId = "51A3A961-7A3D-4D9D-A8A6-EF0E27CBF030";
paths = (
{
closed = 1;
nodes = (
"460 305 OFFCURVE",
"369 343 OFFCURVE",
"274 389 CURVE SMOOTH",
"154 447 OFFCURVE",
"131 483 OFFCURVE",
"131 543 CURVE SMOOTH",
"131 599 OFFCURVE",
"168 673 OFFCURVE",
"294 673 CURVE SMOOTH",
"378 673 OFFCURVE",
"403 639 OFFCURVE",
"385 605 CURVE SMOOTH",
"372 580 LINE",
"383 567 OFFCURVE",
"398 557 OFFCURVE",
"421 557 CURVE SMOOTH",
"448 557 OFFCURVE",
"464 574 OFFCURVE",
"464 606 CURVE SMOOTH",
"464 662 OFFCURVE",
"394 715 OFFCURVE",
"294 715 CURVE SMOOTH",
"142 715 OFFCURVE",
"82 622 OFFCURVE",
"82 535 CURVE SMOOTH",
"82 461 OFFCURVE",
"113 410 OFFCURVE",
"250 348 CURVE SMOOTH",
"352 302 OFFCURVE",
"411 263 OFFCURVE",
"411 184 CURVE SMOOTH",
"411 82 OFFCURVE",
"338 26 OFFCURVE",
"244 26 CURVE SMOOTH",
"143 26 OFFCURVE",
"110 66 OFFCURVE",
"133 113 CURVE SMOOTH",
"147 142 LINE",
"131 155 OFFCURVE",
"117 161 OFFCURVE",
"100 161 CURVE SMOOTH",
"76 161 OFFCURVE",
"53 142 OFFCURVE",
"53 107 CURVE SMOOTH",
"53 45 OFFCURVE",
"116 -14 OFFCURVE",
"230 -14 CURVE SMOOTH",
"388 -14 OFFCURVE",
"460 77 OFFCURVE",
"460 192 CURVE SMOOTH"
);
}
);
width = 498;
},
{
anchors = (
{
name = bottom;
position = "{291, -27}";
},
{
name = top;
position = "{341, 730}";
}
);
background = {
anchors = (
{
name = bottom;
position = "{239, -32}";
},
{
name = top;
position = "{289, 730}";
}
);
hints = (
{
place = "{40, 112}";
type = Stem;
},
{
place = "{70, 82}";
type = Stem;
},
{
place = "{391, 81}";
type = Stem;
},
{
horizontal = 1;
place = "{-14, 63}";
type = Stem;
},
{
horizontal = 1;
place = "{518, 197}";
type = Stem;
},
{
horizontal = 1;
place = "{653, 62}";
type = Stem;
},
{
horizontal = 1;
place = "{-14, 201}";
type = Stem;
}
);
paths = (
{
closed = 1;
nodes = (
"472 283 OFFCURVE",
"439 320 OFFCURVE",
"315 386 CURVE SMOOTH",
"190 452 OFFCURVE",
"152 488 OFFCURVE",
"152 545 CURVE SMOOTH",
"152 615 OFFCURVE",
"201 653 OFFCURVE",
"291 653 CURVE SMOOTH",
"358 653 OFFCURVE",
"393 621 OFFCURVE",
"371 579 CURVE SMOOTH",
"352 542 LINE",
"366 528 OFFCURVE",
"393 518 OFFCURVE",
"417 518 CURVE SMOOTH",
"453 518 OFFCURVE",
"477 544 OFFCURVE",
"477 582 CURVE SMOOTH",
"477 657 OFFCURVE",
"398 715 OFFCURVE",
"296 715 CURVE SMOOTH",
"164 715 OFFCURVE",
"70 633 OFFCURVE",
"70 519 CURVE SMOOTH",
"70 438 OFFCURVE",
"116 386 OFFCURVE",
"252 315 CURVE SMOOTH",
"360 258 OFFCURVE",
"391 228 OFFCURVE",
"391 179 CURVE SMOOTH",
"391 101 OFFCURVE",
"331 49 OFFCURVE",
"239 49 CURVE SMOOTH",
"166 49 OFFCURVE",
"131 81 OFFCURVE",
"154 128 CURVE SMOOTH",
"170 161 LINE",
"154 177 OFFCURVE",
"128 187 OFFCURVE",
"103 187 CURVE SMOOTH",
"66 187 OFFCURVE",
"40 157 OFFCURVE",
"40 115 CURVE SMOOTH",
"40 40 OFFCURVE",
"121 -14 OFFCURVE",
"232 -14 CURVE SMOOTH",
"373 -14 OFFCURVE",
"472 73 OFFCURVE",
"472 197 CURVE SMOOTH"
);
}
);
};
hints = (
{
place = "{40, 112}";
type = Stem;
},
{
place = "{70, 82}";
type = Stem;
},
{
place = "{391, 81}";
type = Stem;
},
{
horizontal = 1;
place = "{-14, 63}";
type = Stem;
},
{
horizontal = 1;
place = "{518, 197}";
type = Stem;
},
{
horizontal = 1;
place = "{653, 62}";
type = Stem;
},
{
horizontal = 1;
place = "{-14, 201}";
type = Stem;
}
);
layerId = "183D4CB5-BDC3-4BCB-9164-6C94CC175920";
paths = (
{
closed = 1;
nodes = (
"598 365 OFFCURVE",
"526 402 OFFCURVE",
"390 455 CURVE SMOOTH",
"278 499 OFFCURVE",
"249 520 OFFCURVE",
"249 553 CURVE SMOOTH",
"249 597 OFFCURVE",
"289 624 OFFCURVE",
"349 624 CURVE SMOOTH",
"437 624 OFFCURVE",
"434 598 OFFCURVE",
"418 563 CURVE SMOOTH",
"397 517 LINE",
"414 498 OFFCURVE",
"451 483 OFFCURVE",
"481 483 CURVE SMOOTH",
"540 483 OFFCURVE",
"580 521 OFFCURVE",
"580 572 CURVE SMOOTH",
"580 661 OFFCURVE",
"499 715 OFFCURVE",
"354 715 CURVE SMOOTH",
"193 715 OFFCURVE",
"60 636 OFFCURVE",
"60 493 CURVE SMOOTH",
"60 383 OFFCURVE",
"112 333 OFFCURVE",
"252 285 CURVE SMOOTH",
"353 250 OFFCURVE",
"394 232 OFFCURVE",
"394 180 CURVE SMOOTH",
"394 125 OFFCURVE",
"340 89 OFFCURVE",
"279 89 CURVE SMOOTH",
"204 89 OFFCURVE",
"201 118 OFFCURVE",
"220 151 CURVE SMOOTH",
"235 177 LINE",
"217 207 OFFCURVE",
"178 227 OFFCURVE",
"138 227 CURVE SMOOTH",
"72 227 OFFCURVE",
"30 179 OFFCURVE",
"30 125 CURVE SMOOTH",
"30 37 OFFCURVE",
"125 -14 OFFCURVE",
"266 -14 CURVE SMOOTH",
"455 -14 OFFCURVE",
"598 99 OFFCURVE",
"598 248 CURVE SMOOTH"
);
}
);
width = 610;
}
);
leftKerningGroup = S;
rightKerningGroup = S;
unicode = 0053;
},
{
color = 4;
glyphname = T;
layers = (
{
anchors = (
{
name = bottom;
position = "{307, -30}";
},
{
name = top;
position = "{345, 730}";
}
);
background = {
paths = (
{
closed = 1;
nodes = (
"532 0 LINE",
"532 48 LINE",
"453 60 LINE SMOOTH",
"424 65 OFFCURVE",
"419 75 OFFCURVE",
"419 106 CURVE SMOOTH",
"419 645 LINE",
"475 645 LINE SMOOTH",
"575 645 OFFCURVE",
"599 617 OFFCURVE",
"641 487 CURVE",
"696 500 LINE",
"659 700 LINE",
"81 700 LINE",
"42 500 LINE",
"96 487 LINE",
"139 617 OFFCURVE",
"165 645 OFFCURVE",
"265 645 CURVE SMOOTH",
"320 645 LINE",
"320 110 LINE SMOOTH",
"320 80 OFFCURVE",
"316 64 OFFCURVE",
"287 60 CURVE SMOOTH",
"207 48 LINE",
"207 0 LINE"
);
}
);
};
hints = (
{
place = "{282, 85}";
type = Stem;
},
{
horizontal = 1;
place = "{643, 57}";
type = Stem;
},
{
horizontal = 1;
place = "{0, 21}";
target = up;
type = BottomGhost;
}
);
layerId = UUID0;
paths = (
{
closed = 1;
nodes = (
"163 0 LINE",
"461 0 LINE",
"467 46 LINE",
"358 58 LINE",
"380 643 LINE",
"469 643 LINE SMOOTH",
"524 643 OFFCURVE",
"542 628 OFFCURVE",
"564 562 CURVE SMOOTH",
"577 523 LINE",
"631 533 LINE",
"617 700 LINE",
"64 700 LINE",
"40 534 LINE",
"96 523 LINE",
"109 562 LINE SMOOTH",
"131 630 OFFCURVE",
"147 643 OFFCURVE",
"207 643 CURVE SMOOTH",
"295 643 LINE",
"274 59 LINE",
"169 46 LINE"
);
}
);
width = 621;
},
{
anchors = (
{
name = bottom;
position = "{339, -30}";
},
{
name = top;
position = "{376, 730}";
}
);
background = {
paths = (
{
closed = 1;
nodes = (
"525 0 LINE",
"525 48 LINE",
"446 60 LINE SMOOTH",
"417 64 OFFCURVE",
"412 75 OFFCURVE",
"412 106 CURVE SMOOTH",
"412 645 LINE",
"468 645 LINE SMOOTH",
"568 645 OFFCURVE",
"592 617 OFFCURVE",
"634 487 CURVE",
"689 500 LINE",
"652 700 LINE",
"74 700 LINE",
"35 500 LINE",
"89 487 LINE",
"132 617 OFFCURVE",
"158 645 OFFCURVE",
"258 645 CURVE SMOOTH",
"313 645 LINE",
"313 110 LINE SMOOTH",
"313 80 OFFCURVE",
"309 64 OFFCURVE",
"280 60 CURVE SMOOTH",
"200 48 LINE",
"200 0 LINE"
);
}
);
};
hints = (
{
place = "{282, 85}";
type = Stem;
},
{
horizontal = 1;
place = "{643, 57}";
type = Stem;
},
{
horizontal = 1;
place = "{0, 21}";
target = up;
type = BottomGhost;
}
);
layerId = "D666A065-31E2-40D8-BE19-B3556ED1E29D";
paths = (
{
closed = 1;
nodes = (
"186 0 LINE",
"502 0 LINE",
"508 46 LINE",
"392 58 LINE",
"411 643 LINE",
"510 643 LINE SMOOTH",
"570 643 OFFCURVE",
"589 628 OFFCURVE",
"613 562 CURVE SMOOTH",
"627 523 LINE",
"684 533 LINE",
"669 700 LINE",
"74 700 LINE",
"49 534 LINE",
"108 523 LINE",
"122 562 LINE SMOOTH",
"146 630 OFFCURVE",
"165 643 OFFCURVE",
"228 643 CURVE SMOOTH",
"324 643 LINE",
"303 59 LINE",
"192 46 LINE"
);
}
);
width = 681;
},
{
anchors = (
{
name = bottom;
position = "{310, -30}";
},
{
name = top;
position = "{348, 730}";
}
);
background = {
anchors = (
{
name = bottom;
position = "{310, -30}";
},
{
name = top;
position = "{348, 730}";
}
);
paths = (
{
closed = 1;
nodes = (
"162 0 LINE",
"460 0 LINE",
"462 18 LINE",
"360 30 LINE",
"384 677 LINE",
"466 677 LINE SMOOTH",
"527 677 OFFCURVE",
"556 663 OFFCURVE",
"573 595 CURVE SMOOTH",
"590 528 LINE",
"612 533 LINE",
"598 700 LINE",
"84 700 LINE",
"60 534 LINE",
"82 529 LINE",
"103 598 LINE SMOOTH",
"124 666 OFFCURVE",
"151 677 OFFCURVE",
"211 677 CURVE SMOOTH",
"299 677 LINE",
"272 30 LINE",
"164 18 LINE"
);
}
);
};
hints = (
{
place = "{282, 85}";
type = Stem;
},
{
horizontal = 1;
place = "{643, 57}";
type = Stem;
},
{
horizontal = 1;
place = "{0, 21}";
target = up;
type = BottomGhost;
}
);
layerId = "703BE3CC-3FB5-4948-8633-0DF44FA889B7";
paths = (
{
closed = 1;
nodes = (
"162 0 LINE",
"460 0 LINE",
"462 18 LINE",
"360 30 LINE",
"385 707 LINE",
"465 707 LINE SMOOTH",
"526 707 OFFCURVE",
"550 692 OFFCURVE",
"572 615 CURVE SMOOTH",
"591 548 LINE",
"613 553 LINE",
"599 730 LINE",
"85 730 LINE",
"61 554 LINE",
"83 549 LINE",
"106 618 LINE SMOOTH",
"132 695 OFFCURVE",
"154 707 OFFCURVE",
"212 707 CURVE SMOOTH",
"300 707 LINE",
"272 30 LINE",
"164 18 LINE"
);
}
);
width = 622;
},
{
anchors = (
{
name = bottom;
position = "{301, -30}";
},
{
name = top;
position = "{331, 730}";
}
);
background = {
anchors = (
{
name = bottom;
position = "{305, -30}";
},
{
name = top;
position = "{343, 730}";
}
);
hints = (
{
place = "{282, 85}";
type = Stem;
},
{
horizontal = 1;
place = "{643, 57}";
type = Stem;
},
{
horizontal = 1;
place = "{0, 21}";
target = up;
type = BottomGhost;
}
);
paths = (
{
closed = 1;
nodes = (
"148 899 LINE",
"446 899 LINE",
"452 945 LINE",
"343 957 LINE",
"369 1542 LINE",
"458 1542 LINE SMOOTH",
"513 1542 OFFCURVE",
"531 1527 OFFCURVE",
"553 1461 CURVE SMOOTH",
"566 1422 LINE",
"620 1432 LINE",
"606 1599 LINE",
"53 1599 LINE",
"29 1433 LINE",
"85 1422 LINE",
"98 1461 LINE SMOOTH",
"121 1529 OFFCURVE",
"136 1542 OFFCURVE",
"196 1542 CURVE SMOOTH",
"284 1542 LINE",
"259 958 LINE",
"154 945 LINE"
);
},
{
closed = 1;
nodes = (
"188 0 LINE",
"418 0 LINE",
"421 33 LINE",
"324 45 LINE",
"348 661 LINE",
"464 661 LINE SMOOTH",
"518 661 OFFCURVE",
"542 654 OFFCURVE",
"559 591 CURVE SMOOTH",
"572 542 LINE",
"607 547 LINE",
"593 700 LINE",
"61 700 LINE",
"40 547 LINE",
"75 542 LINE",
"91 591 LINE SMOOTH",
"111 654 OFFCURVE",
"136 661 OFFCURVE",
"190 661 CURVE SMOOTH",
"301 661 LINE",
"277 46 LINE",
"192 32 LINE"
);
},
{
closed = 1;
nodes = (
"188 0 LINE",
"418 0 LINE",
"421 33 LINE",
"324 45 LINE",
"348 661 LINE",
"464 661 LINE SMOOTH",
"518 661 OFFCURVE",
"542 654 OFFCURVE",
"559 591 CURVE SMOOTH",
"572 542 LINE",
"607 547 LINE",
"593 700 LINE",
"61 700 LINE",
"40 547 LINE",
"75 542 LINE",
"91 591 LINE SMOOTH",
"111 654 OFFCURVE",
"136 661 OFFCURVE",
"190 661 CURVE SMOOTH",
"301 661 LINE",
"277 46 LINE",
"192 32 LINE"
);
}
);
};
hints = (
{
place = "{282, 85}";
type = Stem;
},
{
horizontal = 1;
place = "{643, 57}";
type = Stem;
},
{
horizontal = 1;
place = "{0, 21}";
target = up;
type = BottomGhost;
}
);
layerId = "51A3A961-7A3D-4D9D-A8A6-EF0E27CBF030";
paths = (
{
closed = 1;
nodes = (
"188 0 LINE",
"418 0 LINE",
"421 33 LINE",
"324 45 LINE",
"348 661 LINE",
"471 661 LINE SMOOTH",
"525 661 OFFCURVE",
"545 655 OFFCURVE",
"560 592 CURVE SMOOTH",
"572 543 LINE",
"607 547 LINE",
"593 700 LINE",
"61 700 LINE",
"40 547 LINE",
"75 543 LINE",
"90 592 LINE SMOOTH",
"109 653 OFFCURVE",
"119 661 OFFCURVE",
"184 661 CURVE SMOOTH",
"301 661 LINE",
"277 46 LINE",
"192 32 LINE"
);
}
);
width = 604;
},
{
anchors = (
{
name = bottom;
position = "{337, -30}";
},
{
name = top;
position = "{397, 730}";
}
);
background = {
anchors = (
{
name = bottom;
position = "{312, -30}";
},
{
name = top;
position = "{350, 730}";
}
);
hints = (
{
place = "{282, 85}";
type = Stem;
},
{
horizontal = 1;
place = "{643, 57}";
type = Stem;
},
{
horizontal = 1;
place = "{0, 21}";
target = up;
type = BottomGhost;
}
);
paths = (
{
closed = 1;
nodes = (
"164 0 LINE",
"462 0 LINE",
"468 46 LINE",
"359 58 LINE",
"385 643 LINE",
"474 643 LINE SMOOTH",
"529 643 OFFCURVE",
"547 628 OFFCURVE",
"569 562 CURVE SMOOTH",
"582 523 LINE",
"636 533 LINE",
"622 700 LINE",
"69 700 LINE",
"45 534 LINE",
"101 523 LINE",
"114 562 LINE SMOOTH",
"136 630 OFFCURVE",
"152 643 OFFCURVE",
"212 643 CURVE SMOOTH",
"300 643 LINE",
"275 59 LINE",
"170 46 LINE"
);
}
);
};
hints = (
{
place = "{282, 85}";
type = Stem;
},
{
horizontal = 1;
place = "{643, 57}";
type = Stem;
},
{
horizontal = 1;
place = "{0, 21}";
target = up;
type = BottomGhost;
}
);
layerId = "183D4CB5-BDC3-4BCB-9164-6C94CC175920";
paths = (
{
closed = 1;
nodes = (
"134 0 LINE",
"575 0 LINE",
"581 92 LINE",
"474 104 LINE",
"500 606 LINE",
"517 606 LINE SMOOTH",
"563 606 OFFCURVE",
"578 593 OFFCURVE",
"593 537 CURVE SMOOTH",
"614 458 LINE",
"724 468 LINE",
"701 700 LINE",
"55 700 LINE",
"23 469 LINE",
"136 458 LINE",
"159 537 LINE SMOOTH",
"174 590 OFFCURVE",
"189 606 OFFCURVE",
"239 606 CURVE SMOOTH",
"269 606 LINE",
"243 105 LINE",
"141 92 LINE"
);
}
);
width = 715;
}
);
leftKerningGroup = T;
rightKerningGroup = T;
unicode = 0054;
},
